<svg t="1756475255865" class="icon" viewBox="0 0 1024 1024" version="1.1" xmlns="http://www.w3.org/2000/svg" p-id="18552" width="200" height="200"><path d="M987.516685 719.87642c-20.556383 0-34.28907 11.088505-41.112765 16.632758-123.423593 100.009787-281.008311 16.675406-418.079295-11.131153-143.937327-33.265516-322.121076-27.721263-466.015755 16.675406-20.599031 5.586901-47.979109 11.131153-54.845453 22.219658-13.690039 22.219659-6.866344 44.396669 6.866344 55.570471 75.401835 16.632758 123.380945-27.806559 260.40928-44.439317 253.585585-22.219659 363.27649 83.249085 541.460239 77.704832 47.979109 0 89.091875-11.131153 130.247288-27.763911 27.422726-11.088505 68.492844-38.852416 75.401836-66.658975 6.823696-22.134362-6.908992-38.809768-34.331719-38.809769zM177.970509 649.251172l2.985366-0.127944a863.9225 863.9225 0 0 0 70.198768-9.382582c9.084045-1.492683 12.240004-2.089757 33.734645-5.928085 47.50998-8.316379 72.032636-11.984115 101.886303-14.415057 66.445735-4.307458 105.639336 3.667736 176.520474 29.171298l11.600282 4.179514c78.643091 28.190392 128.711957 36.549419 208.591843 25.887395 38.212695-4.989827 70.966433-12.154708 100.265676-24.906489 49.258552-21.366697 79.837238-56.423432 75.359187-107.686445l-0.426481-4.776587-1.407387-4.520698c-1.663276-5.032475-13.178262-41.155414-16.163629-50.367402-4.435402-13.732687-8.9561-27.422726-13.690039-41.02747a935.699248 935.699248 0 0 0-11.131154-29.981612c-13.562095-34.417014-29.981612-68.407548-59.280854-123.167704-28.105096-48.704127-59.579391-94.081702-80.860792-108.709999-46.571722-29.086002-87.300655-0.597073-127.347218 51.689493C595.751267 130.820905 545.042679 56.31468 488.150118 21.897665c-60.602946-42.008376-116.941082-19.404884-175.838104 41.709839-82.182883 101.07599-147.477119 224.840767-231.024741 415.648353-43.714299 81.372569-2.47359 169.995315 96.683236 169.995315zM929.557922 890.554105c-17.101887 0-28.574225 11.088505-34.246422 16.632757-102.824562 99.967139-234.1807 16.675406-348.392304-11.131153-119.969097-33.265516-268.427122-27.721263-388.39622 16.675406-17.144535 5.586901-40.003915 11.131153-45.676111 22.219659-11.42969 22.219659-5.714845 44.396669 5.714845 55.527822 62.820647 16.675406 102.824562-27.763911 217.036165-44.396669 211.321321-22.219659 302.673544 83.249085 451.216866 77.704833 40.003915 0 74.207689-11.131153 108.539407-27.763912 22.816732-11.088505 57.105802-38.852416 62.820647-66.658975 5.714845-22.134362-5.757493-38.809768-28.616873-38.809768z" p-id="18553"></path></svg>
