<svg t="1756630465329" class="icon" viewBox="0 0 1024 1024" version="1.1" xmlns="http://www.w3.org/2000/svg" p-id="7434" id="mx_n_1756630465330" width="200" height="200"><path d="M479.08835 618.780029a46.515136 46.515136 0 0 1 65.823306 0l162.876113 162.802976a46.515136 46.515136 0 0 1 0 65.823305L544.911656 1010.35556a46.515136 46.515136 0 0 1-65.823306 0l-162.876112-162.94925a46.515136 46.515136 0 0 1 0-65.823305z m368.317964-279.383364l162.949249 162.94925a46.515136 46.515136 0 0 1 0 65.823306l-162.949249 162.876113a46.515136 46.515136 0 0 1-65.823306 0L618.780032 568.169221a46.515136 46.515136 0 0 1 0-65.823306l162.876113-162.876113a46.515136 46.515136 0 0 1 65.823306 0z m-604.989316-23.184431L405.219974 479.088347a46.515136 46.515136 0 0 1 0 65.823306L242.416998 707.787766a46.515136 46.515136 0 0 1-65.823305 0L13.644443 544.911653a46.515136 46.515136 0 0 1 0-65.823306l162.94925-162.876113a46.515136 46.515136 0 0 1 65.823305 0zM544.911656 13.64444l162.876113 162.94925a46.515136 46.515136 0 0 1 0 65.823305L544.911656 405.219971a46.515136 46.515136 0 0 1-65.823306 0L316.212238 242.416995a46.515136 46.515136 0 0 1 0-65.823305L479.08835 13.64444a46.515136 46.515136 0 0 1 65.823306 0z" p-id="7435"></path></svg>
