<svg t="1756647929020" class="icon" viewBox="0 0 1024 1024" version="1.1" xmlns="http://www.w3.org/2000/svg" p-id="70375" id="mx_n_1756647929021" width="200" height="200"><path d="M85.333333 0h853.333334a85.333333 85.333333 0 0 1 85.333333 85.333333v682.666667a85.333333 85.333333 0 0 1-85.333333 85.333333H85.333333a85.333333 85.333333 0 0 1-85.333333-85.333333V85.333333a85.333333 85.333333 0 0 1 85.333333-85.333333z m42.666667 85.333333a42.666667 42.666667 0 0 0-42.666667 42.666667v512a42.666667 42.666667 0 0 0 42.666667 42.666667h768a42.666667 42.666667 0 0 0 42.666667-42.666667V128a42.666667 42.666667 0 0 0-42.666667-42.666667H128z m384 725.333334a42.666667 42.666667 0 1 0 0-85.333334 42.666667 42.666667 0 0 0 0 85.333334z m-170.666667 128h341.333334a85.333333 85.333333 0 0 1 85.333333 85.333333H256a85.333333 85.333333 0 0 1 85.333333-85.333333z m85.333334-85.333334h170.666666v85.333334h-170.666666v-85.333334zM384 341.333333h85.333333v256H384V341.333333z m-170.666667 85.333334h85.333334v170.666666H213.333333v-170.666666z m341.333334-170.666667h85.333333v341.333333h-85.333333V256z m170.666666-85.333333h85.333334v426.666666h-85.333334V170.666667z" p-id="70376"></path></svg>
