<svg t="1756632211589" class="icon" viewBox="0 0 1024 1024" version="1.1" xmlns="http://www.w3.org/2000/svg" p-id="24597" id="mx_n_1756632211590" width="200" height="200"><path d="M149.5 580.071h724.999v74.786h76.357V505.286H580.071v-72.143H437.5v72.143H73.143v149.571H149.5zM731.428 0H292.571v365.714h438.856V0z m-73.143 292.571H365.714V73.143h292.571v219.428zM0 1024h292.571V731.429H0V1024z m73.143-219.429h146.286v146.286H73.143V804.571z m658.285-73.142V1024H1024V731.429H731.428z m219.428 219.428H804.571V804.571h146.285v146.286zM365.714 1024h292.571V731.429H365.714V1024z m73.142-219.429h146.286v146.286H438.856V804.571z" p-id="24598"></path></svg>
