<svg t="1756631827683" class="icon" viewBox="0 0 1024 1024" version="1.1" xmlns="http://www.w3.org/2000/svg" p-id="19530" id="mx_n_1756631827684" width="200" height="200"><path d="M992 0H32C12.8 0 0 12.8 0 32v960c0 19.2 12.8 32 32 32h960c19.2 0 32-12.8 32-32V32c0-19.2-12.8-32-32-32zM448 64v371.2L377.6 332.8c-6.4-6.4-12.8-12.8-25.6-12.8s-19.2 6.4-25.6 12.8L256 435.2V64h192zM192 64v480c0 12.8 6.4 25.6 25.6 32 12.8 0 25.6 0 32-12.8l102.4-153.6 102.4 153.6c6.4 6.4 12.8 12.8 25.6 12.8h6.4c19.2-6.4 25.6-19.2 25.6-32V64h448v704H64V64h128zM64 960v-128h896v128H64z" p-id="19531"></path></svg>
