<svg t="1756649857964" class="icon" viewBox="0 0 1024 1024" version="1.1" xmlns="http://www.w3.org/2000/svg" p-id="92063" id="mx_n_1756649857965" width="200" height="200"><path d="M182.442667 1019.221333c-54.442667 0-99.242667-16.042667-131.242667-48.042666C-67.242667 852.821333 43.178667 558.421333 302.421333 299.178667c30.378667-30.378667 62.378667-59.136 92.757334-86.357334a32.426667 32.426667 0 0 1 44.8 3.157334 32.426667 32.426667 0 0 1-3.157334 44.8c-30.378667 25.6-60.842667 52.821333-89.6 81.664C99.242667 595.2 17.578667 848.042667 96 928c78.421333 80.042667 332.8-1.621333 580.778667-251.221333C790.442667 563.2 878.421333 436.906667 924.842667 323.242667c41.557333-105.642667 43.178667-187.221333 3.157333-227.242667-43.178667-43.178667-166.4-43.178667-291.157333 32a30.122667 30.122667 0 0 1-43.264-11.178667 30.122667 30.122667 0 0 1 11.264-43.178666c139.093333-84.821333 297.557333-94.464 369.493333-22.442667 59.306667 59.221333 64 164.778667 11.264 296.021333-49.578667 121.6-142.421333 256-262.4 375.978667-188.757333 187.221333-396.8 296.021333-540.757333 296.021333z" p-id="92064"></path><path d="M843.178667 1019.221333c-143.957333 0-352-108.8-540.757334-297.642666C43.178667 464.042667-67.242667 168.106667 51.2 51.2 169.642667-67.242667 464.042667 43.178667 723.2 302.421333c259.242667 259.157333 368.042667 553.557333 251.221333 672-33.621333 30.378667-78.421333 44.8-131.242666 44.8zM96 96c-79.957333 80.042667 1.621333 332.8 251.221333 580.778667 247.978667 248.064 500.821333 329.642667 580.778667 251.221333 40.021333-40.021333 38.4-123.221333-3.157333-227.157333C878.421333 587.093333 790.442667 460.8 676.693333 347.221333 428.8 97.621333 176.042667 16.042667 96 96z" p-id="92065"></path></svg>
