<svg t="1756688787764" class="icon" viewBox="0 0 1024 1024" version="1.1" xmlns="http://www.w3.org/2000/svg" p-id="3556" id="mx_n_1756688787766" width="200" height="200"><path d="M115.2 468.48c2.56 2.56 15.36 30.72 46.08 30.72 17.92 0 35.84-17.92 40.96-20.48l87.04-107.52c5.12-7.68 7.68-17.92 5.12-25.6-2.56-7.68-7.68-15.36-17.92-20.48-5.12-2.56-7.68-2.56-12.8-2.56s-15.36 2.56-25.6 12.8l-35.84 40.96v-5.12-12.8c0-25.6 5.12-51.2 5.12-53.76v-5.12c7.68-35.84 23.04-64 30.72-74.24l2.56 2.56 5.12-7.68c28.16-38.4 58.88-61.44 97.28-79.36 20.48-7.68 40.96-12.8 61.44-17.92h2.56c28.16-2.56 38.4-23.04 35.84-40.96 0-12.8-5.12-28.16-15.36-28.16-17.92 0-35.84 0-53.76 5.12-51.2 10.24-99.84 33.28-143.36 74.24C184.32 179.2 158.72 225.28 145.92 276.48c-5.12 25.6-7.68 51.2-10.24 79.36v7.68L92.16 307.2s-7.68-7.68-17.92-7.68c-7.68 0-15.36 2.56-23.04 12.8-23.04 23.04-10.24 40.96-10.24 40.96l74.24 115.2zM926.72 550.4c-2.56-5.12-17.92-30.72-46.08-30.72-17.92 0-35.84 17.92-40.96 20.48l-87.04 107.52c-2.56 2.56-10.24 15.36-5.12 25.6 2.56 10.24 7.68 15.36 17.92 20.48 5.12 2.56 7.68 2.56 12.8 2.56s15.36-2.56 25.6-12.8l38.4-46.08v20.48c0 17.92-2.56 33.28-5.12 51.2v2.56c0 2.56 0 5.12-2.56 7.68-12.8 48.64-38.4 92.16-53.76 99.84h-2.56c-28.16 33.28-58.88 56.32-69.12 56.32h-2.56c-25.6 10.24-46.08 12.8-71.68 17.92-28.16 2.56-38.4 20.48-35.84 35.84 0 15.36 12.8 33.28 33.28 33.28h17.92c10.24-2.56 20.48-2.56 33.28-7.68h5.12c7.68-2.56 12.8-2.56 12.8-5.12 56.32-17.92 104.96-51.2 145.92-104.96 40.96-56.32 64-117.76 64-181.76v-17.92l43.52 58.88s7.68 7.68 17.92 7.68c7.68 0 15.36-2.56 23.04-12.8 23.04-20.48 10.24-38.4 10.24-38.4l-79.36-110.08zM893.44 40.96h-248.32c-71.68 0-130.56 61.44-130.56 133.12v145.92c0 74.24 58.88 133.12 130.56 133.12h248.32c71.68 0 130.56-61.44 130.56-133.12V176.64c0-74.24-58.88-135.68-130.56-135.68z m53.76 281.6c0 30.72-23.04 56.32-53.76 56.32h-248.32c-30.72 0-53.76-25.6-53.76-56.32V176.64c0-30.72 23.04-56.32 53.76-56.32h248.32c30.72 0 53.76 25.6 53.76 56.32v145.92zM378.88 568.32H130.56c-71.68 0-130.56 61.44-130.56 133.12v145.92c0 74.24 58.88 133.12 130.56 133.12h248.32c71.68 0 130.56-61.44 130.56-133.12v-145.92c0-74.24-58.88-133.12-130.56-133.12z m0 335.36H130.56c-30.72 0-53.76-25.6-53.76-56.32v-145.92c0-30.72 23.04-56.32 53.76-56.32h248.32c30.72 0 53.76 25.6 53.76 56.32v145.92c0 30.72-23.04 56.32-53.76 56.32z" p-id="3557"></path></svg>
