<svg t="1756518873071" class="icon" viewBox="0 0 1024 1024" version="1.1" xmlns="http://www.w3.org/2000/svg" p-id="11304" width="200" height="200"><path d="M937.107903 832.211544l-80.521587-139.63281v-223.179773A342.333104 342.333104 0 0 0 640.155462 151.967041a137.072875 137.072875 0 0 0 2.094492-23.272135A129.160349 129.160349 0 0 0 384.161978 127.996742a139.632809 139.632809 0 0 0 2.327214 23.272135 342.333104 342.333104 0 0 0-218.758068 318.130084v222.248888l-80.754308 139.632809a42.820728 42.820728 0 0 0 0 42.588007 43.286171 43.286171 0 0 0 37.235415 21.177643H314.345573a216.198133 216.198133 0 0 0 395.626294 0h190.133342a43.286171 43.286171 0 0 0 37.235415-21.177643 42.820728 42.820728 0 0 0-0.232721-41.657121zM469.10527 127.996742a43.05345 43.05345 0 0 1 86.1069 0v2.559935a359.321763 359.321763 0 0 0-85.641457 0 9.541575 9.541575 0 0 1-0.465443-2.559935z m43.05345 810.568458a128.462185 128.462185 0 0 1-96.113917-42.588007h192.227834a128.462185 128.462185 0 0 1-96.113917 42.588007z m215.267248-127.996742H197.984899l49.569647-86.572342a40.028072 40.028072 0 0 0 5.585313-23.272134v-231.325021a258.320697 258.320697 0 0 1 516.641394 0v230.394135a40.260793 40.260793 0 0 0 5.585313 23.272135L826.332541 810.568458z" p-id="11305"></path></svg>
