<svg t="1756632720549" class="icon" viewBox="0 0 1024 1024" version="1.1" xmlns="http://www.w3.org/2000/svg" p-id="37667" width="200" height="200"><path d="M514.329166 0.213287c4.47903 0.383917 8.958059 1.279723 13.223802 2.772733l426.574242 155.187709a38.391682 38.391682 0 0 1 27.00215 36.941329v286.956493c0 341.344709-372.740573 491.285555-464.112776 537.91012a37.965108 37.965108 0 0 1-33.997967 0C391.518442 973.357106 42.666027 825.037242 42.666027 484.119108V196.138837a39.543432 39.543432 0 0 1 26.234316-36.856015L501.574596 2.98602c4.095113-1.450352 8.403513-2.346158 12.75457-2.772733z m0 85.613451L121.28366 223.780847v260.338261c0 279.022212 282.050889 402.60077 378.627297 455.92255 97.813474-53.32178 399.870695-174.596837 399.870695-456.647727v-260.636862l-385.452486-136.930331zM511.897693 213.500408a170.629697 170.629697 0 0 1 42.657424 335.884559V725.389499a42.657424 42.657424 0 0 1-85.314848 0v-176.004532A170.715012 170.715012 0 0 1 511.897693 213.500408z m0 85.314849a85.314848 85.314848 0 1 0 0 170.629697 85.314848 85.314848 0 0 0 0-170.629697z" p-id="37668"></path></svg>
