<svg t="1756491852043" class="icon" viewBox="0 0 1024 1024" version="1.1" xmlns="http://www.w3.org/2000/svg" p-id="87756" width="200" height="200"><path d="M160.896 219.456c0-32.32 26.24-58.56 58.56-58.56H512a58.496 58.496 0 1 1 0 117.056H424.256V512A58.496 58.496 0 0 1 307.2 512V277.952H219.456a58.496 58.496 0 0 1-58.56-58.496zM694.848 277.952a51.2 51.2 0 0 0 0 102.4h109.696a51.2 51.2 0 0 0 0-102.4h-109.696zM533.952 475.456a51.2 51.2 0 0 1 51.2-51.2h219.392a51.2 51.2 0 0 1 0 102.4H585.152a51.2 51.2 0 0 1-51.2-51.2z" p-id="87757"></path><path d="M0 146.304A146.304 146.304 0 0 1 146.304 0h731.392A146.304 146.304 0 0 1 1024 146.304v731.392A146.304 146.304 0 0 1 877.696 1024H146.304A146.304 146.304 0 0 1 0 877.696V146.304zM146.304 102.4a43.904 43.904 0 0 0-43.904 43.904v731.392c0 2.56 0.192 5.056 0.64 7.424l149.504-149.504c40.32-40.32 103.04-48.064 151.936-18.688l91.712 55.04c7.68 4.544 17.28 4.096 24.448-1.28l209.28-156.992a124.352 124.352 0 0 1 149.248 0l42.432 31.808v-499.2a43.904 43.904 0 0 0-43.904-43.904H146.304z m65.088 819.2h666.304a43.904 43.904 0 0 0 43.904-43.904v-104.256l-0.448-0.32-1.024-0.704-102.4-76.8a21.952 21.952 0 0 0-26.304 0l-209.344 156.992a124.352 124.352 0 0 1-138.624 7.168l-91.712-55.04a21.952 21.952 0 0 0-26.752 3.264L211.392 921.6z" p-id="87758"></path></svg>
