<svg t="1756630664492" class="icon" viewBox="0 0 1024 1024" version="1.1" xmlns="http://www.w3.org/2000/svg" p-id="10483" width="200" height="200"><path d="M512 0a512 512 0 1 1 0 1024A512 512 0 0 1 512 0zM410.24 682.56c7.488 27.52 6.656 53.248-1.024 76.48l-2.816 7.68a143.168 143.168 0 0 1-27.008 42.048c-29.76 32.384-71.296 44.672-89.152 34.304-19.2-11.136-9.6-56.96 24.96-93.44 37.12-39.168 90.432-64.384 90.432-64.384v-0.128l4.608-2.56z m422.912-463.36c-23.168-91.008-173.952-120.96-316.672-70.208C431.552 179.2 339.648 226.56 273.536 288.384 194.944 361.856 182.4 425.856 187.52 452.608c18.24 94.336 147.52 156.032 200.704 201.792v0.256c-15.68 7.68-130.368 65.28-157.248 124.8-28.8 62.72 4.48 107.52 26.24 113.28 67.2 18.56 136.32-15.36 173.44-70.4 35.84-53.76 32.64-122.88 17.28-156.8 21.12-5.76 46.08-8.32 78.08-4.48 89.6 10.24 107.52 66.56 103.68 89.6-3.84 23.04-22.4 36.48-28.8 40.32-6.4 3.84-8.32 5.12-7.68 7.68 0.64 3.84 3.84 3.84 8.96 3.2 7.04-1.28 46.72-19.2 48.64-62.72 1.92-55.04-50.56-116.48-144-115.2-38.4 0.64-62.72 3.84-80 10.88a14.976 14.976 0 0 0-4.48-4.48c-57.6-62.08-164.48-105.6-160-188.16 1.28-30.08 12.16-109.44 204.8-205.44 158.08-78.72 284.16-56.96 305.92-8.96 31.36 68.48-67.2 195.84-231.68 214.4-62.72 7.04-95.36-17.28-103.68-26.24-8.96-9.6-10.24-10.24-13.44-8.32-5.12 2.56-1.92 10.88 0 16 5.12 12.8 24.96 35.2 59.52 46.72 30.08 9.6 103.68 15.36 192-19.2 99.2-38.4 176.64-145.28 154.24-234.88z" p-id="10484"></path></svg>
