<svg t="1756646947226" class="icon" viewBox="0 0 1024 1024" version="1.1" xmlns="http://www.w3.org/2000/svg" p-id="50807" id="mx_n_1756646947228" width="200" height="200"><path d="M793.448145 1020.108195L512 865.016251l-281.448145 155.091944a31.061055 31.061055 0 0 1-34.005029-2.58131 34.62369 34.62369 0 0 1-12.842552-33.087704l53.759519-328.466391L9.753833 423.356207a34.986353 34.986353 0 0 1-8.170594-34.687689 32.746373 32.746373 0 0 1 26.0691-23.039793l314.663848-47.914238L483.050926 18.858498A32.170378 32.170378 0 0 1 512 0c12.28789 0 23.509123 7.317268 28.949074 18.858498l140.734739 298.855989 314.663848 47.914238c12.159891 1.855983 22.2718 10.773237 26.0691 23.039793a34.986353 34.986353 0 0 1-8.170594 34.687689L786.55754 655.97279l53.759519 328.466391c1.599986 9.813245-1.023991 19.903822-7.146603 27.519754a31.701049 31.701049 0 0 1-24.703779 12.031892c-5.119954 0-10.282575-1.279989-15.018532-3.882632z m-117.268282-190.376961a18.133171 18.133171 0 0 0 23.167792-4.757291 20.415817 20.415817 0 0 0 4.159963-16.063856l-31.359719-191.59295 132.820143-135.678785a20.415817 20.415817 0 0 0 4.778624-20.266485 19.093162 19.093162 0 0 0-15.21053-13.43988l-183.550356-27.946416-82.089931-174.313105A18.773165 18.773165 0 0 0 512 234.664564a18.773165 18.773165 0 0 0-16.895849 11.007902l-82.089931 174.313105-183.550356 27.946416a19.093162 19.093162 0 0 0-15.21053 13.43988 20.394484 20.394484 0 0 0 4.778624 20.266485l132.820143 135.678785-31.359719 191.59295a20.202486 20.202486 0 0 0 7.487933 19.306494 18.133171 18.133171 0 0 0 19.839822 1.49332L512 739.278711l164.179863 90.452523z" p-id="50808"></path></svg>
