<svg t="1756541746188" class="icon" viewBox="0 0 1024 1024" version="1.1" xmlns="http://www.w3.org/2000/svg" p-id="8917" id="mx_n_1756541746189" width="200" height="200"><path d="M486.642 1000.635c-48.733-6.213-73.116-10.413-93.54-16.116-85.69-23.922-155.492-63.33-216.723-122.358C99.845 788.382 49.111 688.484 34.121 582.05c-4.879-34.638-4.494-99.996 0.805-136.89 3.306-23.018 15.513-71.808 22.94-91.685C96.893 249.013 166.574 162.578 257.887 105.36c51.53-32.288 108.697-54.914 168.926-66.855 33.05-6.553 48.43-7.95 87.502-7.95 28.208 0 38.503 0.657 61.04 3.899C684.088 50.092 783.23 100.306 858.73 177.979c36.13 37.17 62.884 75.126 85.854 121.803 31.01 63.017 46.007 119.91 49.75 188.748 7.496 137.9-43 269.453-141.013 367.368-80.335 80.255-183.374 129.958-293.813 141.727-22.935 2.444-64.003 4.14-72.868 3.01zM345.508 945.78c0-0.335-5.25-5.684-11.666-11.889-36.81-35.592-60.408-75.913-73.534-125.64-3.9-14.775-4.287-18.87-4.922-52.086-0.8-41.824 0.631-53.43 10.18-82.506 13.043-39.72 32.28-70.928 62.222-100.938 29.81-29.878 59.437-48.41 97.719-61.125 20.859-6.928 34.48-9.574 59.6-11.58 73.115-5.837 84.112-8.256 122.21-26.883 63.038-30.821 107.29-88.406 122.606-159.545 3.73-17.327 3.73-67.047 0-84.373-15.25-70.835-59.422-128.72-121.19-158.815-29.274-14.263-52.301-18.807-94.704-18.689-164.786 0.46-319.346 91.612-402.823 237.569C47.98 399.825 34.253 536.46 74.073 658.857c22.65 69.621 59.734 129.795 112.523 182.584 40.662 40.662 84.854 71.486 137.435 95.86 18.606 8.625 21.477 9.759 21.477 8.48zM537.6 844.8c38.522-17.772 47.607-68.507 17.634-98.48-4.54-4.539-11.993-10.214-16.563-12.61-7.72-4.048-9.56-4.358-25.95-4.374-16.748-0.015-18.064 0.216-25.955 4.585-12.783 7.077-22.45 16.64-27.793 27.494-16.589 33.696-0.61 72.973 35.1 86.276 3.695 1.376 10.579 1.93 20.182 1.622 11.866-0.38 16.203-1.218 23.345-4.513z m-24.835-615.568c-33.082 0-59.97 27.085-59.97 60.41 0 33.325 26.888 60.41 59.97 60.41 33.082 0 59.97-27.085 59.97-60.41 0-33.325-26.888-60.41-59.97-60.41z" p-id="8918"></path></svg>
