<svg t="1756488443116" class="icon" viewBox="0 0 1024 1024" version="1.1" xmlns="http://www.w3.org/2000/svg" p-id="63290" width="200" height="200"><path d="M291.238946 355.687319c-19.576355 0-32.075105-5.11997-37.526368-15.359909-5.421145-10.23994-1.626343-23.491627 11.444639-39.75506a2213.634037 2213.634037 0 0 0 47.796424-61.439639c18.100599-23.973506 36.924018-48.880654 56.500374-74.661208l57.042488-75.173205A2115.390851 2115.390851 0 0 1 475.919271 26.262434c13.040864-16.263434 25.539614-24.696325 37.49625-25.419145 11.956636-0.692702 24.816795 6.716196 38.580479 22.25681 13.763684 16.233316 29.51512 35.839789 47.284428 58.759184 17.73919 22.949512 36.020494 46.983253 54.843912 72.040988 18.853536 25.057735 37.49625 49.603473 55.95826 73.607097 18.492127 24.003624 34.966383 44.844913 49.452885 62.49375 15.962259 19.064358 22.106223 34.936265 18.462009 47.645837-3.614096 12.709572-15.570732 18.733066-35.839789 18.010247-12.348163 0-28.250187 0.36141-47.826542 1.054111-19.576355 0.722819-35.839789 1.084229-48.880654 1.084229-14.486503 0.692702-23.371157 5.11997-26.623843 13.251687-3.252687 8.101599-4.909148 19.214946-4.909148 33.340039v51.892401c0 19.064358 0.210822 38.490127 0.572232 58.247187 0.36141 19.787178 0.542114 39.212946 0.542115 58.277304v52.946512c0 7.047488-0.542114 14.456386-1.656461 22.226693a53.307922 53.307922 0 0 1-7.589603 21.202699 46.832666 46.832666 0 0 1-17.37778 15.871906c-7.61972 4.246563-17.950012 6.354786-30.990876 6.354786-15.209322 0-29.153711 0.180705-41.833166 0.542115-12.649337 0.36141-27.708072 0.542114-45.085853 0.542114-23.913271 0-40.026117-5.48138-48.338539-16.444138-8.342539-10.932642-12.49875-28.400774-12.49875-52.404398v-41.321169c0-16.263434-0.180705-33.550861-0.542114-51.8924-0.36141-18.371657-0.542114-36.743313-0.542115-55.084853V425.55985c0-21.172581-2.198575-37.948012-6.535491-50.296175-4.336916-12.348163-14.125093-18.190952-29.334415-17.468133-10.842289 0-24.093976-0.36141-39.664708-1.084229-15.570732-0.692702-29.51512-1.054111-41.833166-1.054111z m729.083711 541.210935a77.100723 77.100723 0 0 1-2.710572 48.730066 107.12784 107.12784 0 0 1-28.792302 40.779054 142.60622 142.60622 0 0 1-47.826542 27.527368 180.072353 180.072353 0 0 1-60.837289 10.059235H143.422403c-26.051611 0-49.091476-4.577855-68.969006-13.763684-19.937765-9.185828-35.869907-20.47988-47.826542-33.912271a103.483627 103.483627 0 0 1-23.913271-43.941389c-3.975506-15.902024-3.433392-30.177705 1.626343-42.887277 4.367033-9.908648 8.703949-20.11847 13.040865-30.719819a987.973483 987.973483 0 0 1 29.334416-66.740314l41.291051-97.430015h123.873153l-46.712195 133.450509h699.779413l-46.742314-133.450509H936.656326c15.209322 36.020494 28.973006 68.487127 41.260933 97.430015 5.11997 12.709572 10.179705 25.087852 15.23944 37.074606 5.059735 12.01687 9.607473 22.768807 13.582979 32.316045 3.975506 9.51712 7.228193 17.648837 9.788178 24.365033 2.529867 6.686078 3.794801 10.390527 3.794801 11.113347z" p-id="63291"></path></svg>
