<svg t="1756486489018" class="icon" viewBox="0 0 1024 1024" version="1.1" xmlns="http://www.w3.org/2000/svg" p-id="40480" width="200" height="200"><path d="M512.193819 898.8346c-118.630939 76.212314-234.119244 118.243301-324.992564 118.243301-54.698429 0-100.508882-15.228619-132.668956-47.402537-85.612525-85.612525-51.223535-267.594516 70.896141-457.66152C3.322608 321.932996-31.080226 139.93716 54.532299 54.33848a152.410783 152.410783 0 0 1 60.346862-36.507152A227.044858 227.044858 0 0 1 187.201255 6.922099a389.589595 389.589595 0 0 1 92.437714 12.26596 795.76454 795.76454 0 0 1 232.582538 105.977341C630.810913 48.953087 746.313063 6.922099 837.158695 6.922099c54.712273 0 100.508882 15.228619 132.6828 47.416381 85.626369 85.59868 51.223535 267.580672-70.909986 457.66152 122.105832 190.067004 156.536355 372.048995 70.909986 457.66152-32.173918 32.173918-77.970527 47.402536-132.6828 47.402536-90.859476 0.013844-206.347781-42.017143-324.964876-118.229456z m213.352946-173.481654a1348.757213 1348.757213 0 0 1-139.051132 121.455155c100.176622 59.239326 189.471703 87.218452 250.663062 87.218452 33.752156 0 58.630181-7.78044 73.941865-23.092124 31.426331-31.440175 30.457237-107.209475-2.491956-197.764378a760.046508 760.046508 0 0 0-61.578996-126.965146 1347.442014 1347.442014 0 0 1-121.482843 139.148041z m-609.809264-12.182895c-32.963037 90.554904-33.918287 166.324203-2.491956 197.750534 15.311684 15.325528 40.148176 23.105968 73.95571 23.105968 61.191358 0 150.514128-27.979126 250.676905-87.218452a1350.058567 1350.058567 0 0 1-139.051131-121.455155 1345.78071 1345.78071 0 0 1-121.482844-139.148041 761.223265 761.223265 0 0 0-61.606684 126.965146z m241.816618-355.795906a1250.477246 1250.477246 0 0 0-131.672173 154.625855 1254.132115 1254.132115 0 0 0 131.630641 154.625855 1235.926993 1235.926993 0 0 0 154.625855 131.519888 1236.757645 1236.757645 0 0 0 154.612011-131.519888 1254.284401 1254.284401 0 0 0 131.630641-154.625855 1250.588 1250.588 0 0 0-131.630641-154.625855 1235.705486 1235.705486 0 0 0-154.612011-131.519888 1234.902523 1234.902523 0 0 0-154.570478 131.519888zM586.495633 177.205743a1347.040532 1347.040532 0 0 1 139.051132 121.441311 1350.044723 1350.044723 0 0 1 121.496687 139.148041 760.046508 760.046508 0 0 0 61.578996-126.965146c32.963037-90.554904 33.918287-166.324203 2.491956-197.764378C895.80272 97.753887 870.924695 89.987291 837.158695 89.987291c-61.16367 0-150.48644 27.965281-250.663062 87.218452zM114.879161 111.667307c-0.539924 0.484547-1.135224 0.899873-1.633616 1.384419-31.426331 31.440175-30.457237 107.209475 2.491956 197.764379a761.223265 761.223265 0 0 0 61.606684 126.965146A1368.346754 1368.346754 0 0 1 437.87816 177.205743a720.133683 720.133683 0 0 0-158.211502-71.394532A333.742098 333.742098 0 0 0 187.228943 89.987291c-32.672309 0-56.941189 7.337425-72.349782 21.680016z m324.411108 400.332693a72.90355 72.90355 0 1 1 72.90355 72.90355 72.90355 72.90355 0 0 1-72.90355-72.90355z" p-id="40481"></path></svg>
