<svg xmlns="http://www.w3.org/2000/svg" width="200" height="200" class="icon" viewBox="0 0 1024 1024"><path d="M746.2 667a99 99 0 1 0 .2 198 99 99 0 0 0-.2-198m3.4 151.8a49.6 49.6 0 1 1 0-99.2 49.6 49.6 0 0 1 0 99.2M1018 716.9c-3.8-19.7-16.6-32.6-33-32.6h-2.4a57 57 0 0 1-57-56.5c0-8.2 3.7-18.2 5-21.4a41 41 0 0 0-15.4-50.6l-66.7-36.6a45 45 0 0 0-48.7 9.6c-8.3 8.5-30.4 26-45.6 26-15.4 0-37.5-17.8-45.8-26.5a45 45 0 0 0-48.7-10l-1.2.5-67.8 37-1.7 1a41 41 0 0 0-14 49.5c.5 1.2 5 12.1 5 21.5a57 57 0 0 1-57 56.5h-2.6c-16 0-28.9 12.8-32.6 32.6a332 332 0 0 0-5.6 52.5c0 22.2 5 49.5 5.6 52.7 3.7 19.7 16.5 32.5 33 32.5h2.2a57 57 0 0 1 57 56.5c0 8.2-3.6 18.3-5 21.4a41 41 0 0 0 15.5 50.6l65.4 36.2a44 44 0 0 0 49-10.2c8-8.7 31-27.7 46.6-27.7 15.8 0 38.4 19 46.8 28.3a44.5 44.5 0 0 0 50.6 9.7l66.2-36.3 1.6-1a41 41 0 0 0 14-49.4 65 65 0 0 1-5-21.6 57 57 0 0 1 57-56.5h2.6c16 0 28.9-12.8 32.7-32.5 0-.3 5.6-29.3 5.6-52.7 0-22-5-49.4-5.6-52.5m-50.5 87.3a108 108 0 0 0-94.3 107.3c0 12.7 3.1 24.7 5.9 32.8l-47.6 26.3a190 190 0 0 0-19.6-16.8q-31.6-23.3-60.4-23.4-28.6.1-60 23a191 191 0 0 0-19.4 16.4l-45.4-25.4a108 108 0 0 0 5.8-32.9c0-54.8-40.7-100.4-94.3-107.4a251 251 0 0 1-3.3-34.6 246 246 0 0 1 3.3-34.6 108 108 0 0 0 94.3-107.5c0-12.6-3.1-24.6-5.8-32.7l49-26.9c4.3 4 11.2 10 19.5 16q31 22 59 22.1 27.6 0 58.5-21.7a186 186 0 0 0 19.3-15.7l47 26.1a108 108 0 0 0-5.8 32.9c0 54.8 40.8 100.3 94.3 107.4 1.3 9 3.2 23.3 3.2 34.6s-1.9 25.7-3.3 34.7zM67.5 950v-57c0-194.2 150-354.1 341.1-372.2h.5q17.6-1.6 35.6-1.7l5.3.1c42.3-3.3 106.2-13.1 139.6-43l16.4-12.7a258 258 0 0 0 100.6-204C706.6 116.5 589.1 0 444.6 0s-262 116.5-262 259.6c0 79.9 36.8 154.2 100.6 204l16.4 12.8-19.3 7.6C110.1 551.4.1 712 .1 893v90.5a33.6 33.6 0 0 0 33.8 33.4H527a341 341 0 0 1-40.8-66.8H67.7zM251 257.5C251 152 338.3 66 445.8 66c107.4 0 194.7 86 194.7 191.5S553.2 449 445.8 449c-107.5 0-194.9-85.9-194.9-191.5z"/></svg>