<svg xmlns="http://www.w3.org/2000/svg" width="200" height="200" class="icon" viewBox="0 0 1131 1024"><path d="M771 3.1H360.8c-48.9 0-94 25.9-118.3 68l-223 373.7a134 134 0 0 0-.3 134l223.5 375a136 136 0 0 0 118.1 67.5h410.4c48.9 0 94-25.9 118.3-67.9l223.5-374a134 134 0 0 0 .2-134.1l-224-374.7a136 136 0 0 0-118-67.5M360.8 77.8h410.4a62 62 0 0 1 53.7 30.6l224 374.7a59 59 0 0 1-.3 58.3L825 915.5a62 62 0 0 1-54 31H360.8A62 62 0 0 1 307 916L83.5 541a59 59 0 0 1 .3-58.4l223-373.7a62 62 0 0 1 54-31"/><path d="m561 730.3-17.5-69.8H426.3l-18.7 69.8h-97.9l138.5-468.5h72.3L659 730.3zm-74.2-290.8-34.2 125H519zm210.8 290.8V261.8H791v468.5h-93.7z"/></svg>