<svg xmlns="http://www.w3.org/2000/svg" width="200" height="200" class="icon" viewBox="0 0 1024 1024"><path d="M1018.5 314.1q0-2.3-.3-4.4c-2.8-43-35-90-77.4-111.8L588.5 17.1a106 106 0 0 0-36.7-11.4 198 198 0 0 0-43-4.6 195 195 0 0 0-46 5.3 108 108 0 0 0-31.7 10.7L79 198C36.5 219.6 4.2 267 1.5 309.8q-.2 2.2-.2 4.4l-.1 1.5v385.6l.3 4.4c2.8 42.9 35.1 90 77.4 111.8l352.3 180.8q18.3 9.3 36.7 11.4a200 200 0 0 0 88.9-.7 110 110 0 0 0 31.7-10.7l352.3-180.8c42.4-21.8 74.7-69 77.4-111.9l.2-4.4.1-1.5V314.2zM470.4 577.6v359.9L120.4 758l-1.4-.9 1.4-.7 201.4-103.5 104.8 53.8V670l-94.1-48.3-.7-.4.7-.4 90-46.2a847 847 0 0 1-26.4-22.6l-81.9 42.2V481.6a296 296 0 0 1-31.4-14h-4.6v128.5L80.1 697.8V317.6l351 180.2.4.2q7 3.6 13.4 9.7l-.3.3a76 76 0 0 1 27 57q0 6.4-1.3 12.6zM509.7 447c-14.2 0-27.6-3-39.3-8.4v.1L119.3 258.6l-1.5-.9 1.5-.8 351-180.2V286L359 341.6a184 184 0 0 1 29.9 21l103-51.2v84.7h1c11 .1 23.2.4 35 1.2V312l94.4 48.6h1.7a325 325 0 0 1 31.7-19.6l-106.4-54.8V78l349.9 179.5 1.5.8-1.4.8-350 179.7v-.2a96 96 0 0 1-39.6 8.5m430 250.8L741.3 596v-135h-6.9q-14.4 7.4-29 14.5v118.7l-86.8-44.6Q607 561.7 596 574l91.7 47.1.7.4-.7.4-91 47v36.4L698 652.9l202.4 103.9 1.5.8-1.5.8-351 180.2V578q-1.3-6.4-1.3-13a76 76 0 0 1 27-57l-.3-.3q6.5-6.1 13.7-10l351.1-180.1z"/></svg>