<svg t="1756541631920" class="icon" viewBox="0 0 1024 1024" version="1.1" xmlns="http://www.w3.org/2000/svg" p-id="7707" width="200" height="200"><path d="M1018.453333 314.112c-0.085333-1.536-0.085333-2.986667-0.256-4.394667-2.773333-42.965333-35.072-90.112-77.397333-111.786666L588.501333 17.109333a105.941333 105.941333 0 0 0-36.693333-11.392 197.973333 197.973333 0 0 0-43.093333-4.650666 194.56 194.56 0 0 0-45.824 5.376 107.946667 107.946667 0 0 0-31.744 10.666666L78.933333 197.930667C36.522667 219.648 4.224 266.88 1.493333 309.76 1.28 311.168 1.28 312.746667 1.28 314.154667L1.194667 315.733333v384l0.085333 1.536c0.042667 1.493333 0.085333 2.986667 0.213333 4.437334 2.773333 42.88 35.114667 90.069333 77.397334 111.786666l352.298666 180.778667c12.16 6.272 24.490667 10.026667 36.693334 11.392 14.122667 3.114667 28.586667 4.693333 43.093333 4.693333 15.914667 0 31.445333-1.877333 45.824-5.376 10.538667-1.749333 21.205333-5.333333 31.701333-10.666666l352.298667-180.821334c42.368-21.76 74.666667-68.949333 77.397333-111.872 0.128-1.408 0.170667-2.901333 0.213334-4.394666l0.085333-1.493334v-384l-0.085333-1.578666z m-548.096 263.509333v359.850667l-349.952-179.498667-1.450666-0.853333 1.450666-0.725333 201.386667-103.466667 104.789333 53.802667v-36.778667L332.501333 621.653333l-0.682666-0.384 0.682666-0.341333 90.069334-46.250667a847.36 847.36 0 0 1-26.453334-22.528l-81.92 42.112v-112.64a296.448 296.448 0 0 1-31.402666-13.952h-4.565334v128.426667l-198.144 101.674667V317.568l351.061334 180.224 0.341333 0.170667c4.650667 2.389333 9.173333 5.76 13.44 9.770666l-0.341333 0.256c16.64 14.72 27.008 34.773333 27.008 56.96 0 4.266667-0.469333 8.533333-1.28 12.672z m39.381334-130.645333c-14.208 0-27.605333-3.029333-39.381334-8.405333v0.170666L119.253333 258.56l-1.450666-0.853333 1.450666-0.768 351.104-180.266667v209.408l-111.36 55.552c10.922667 6.272 20.906667 13.141333 29.866667 20.992l102.954667-51.2v84.693333h1.109333c10.965333 0.085333 23.168 0.341333 34.901333 1.194667V311.893333l94.421334 48.64h1.706666c10.24-7.168 20.821333-13.696 31.786667-19.626666l-106.410667-54.784V77.866667l349.866667 179.541333c0.597333 0.256 1.066667 0.597333 1.536 0.810667l-1.450667 0.810666-349.952 179.626667v-0.128a95.744 95.744 0 0 1-39.594666 8.448z m429.866666 250.794667l-198.186666-101.674667v-0.298667l0.042666-0.682666v-133.973334h-6.954666c-9.642667 4.864-19.285333 9.642667-29.013334 14.421334v118.698666l-86.784-44.586666c-7.765333 7.978667-15.36 16.085333-22.741333 24.362666l91.733333 47.104 0.682667 0.341334-0.682667 0.384-91.050666 47.061333v36.352l101.376-52.352 202.368 103.850667 1.493333 0.810666-1.493333 0.810667-351.061334 180.224v-360.576c-0.810667-4.266667-1.28-8.661333-1.28-13.098667 0-22.186667 10.282667-42.325333 27.008-56.96l-0.298666-0.256c4.352-4.053333 8.96-7.509333 13.738666-9.941333l351.104-180.224v380.202667z" p-id="7708"></path></svg>
