<svg xmlns="http://www.w3.org/2000/svg" width="200" height="200" class="icon" viewBox="0 0 1210 1024"><path d="M1166.6 931a43.6 43.6 0 0 1 43.6 43.5v6a43.6 43.6 0 0 1-43.6 43.7H43.6A43.6 43.6 0 0 1 0 980.6v-6a43.6 43.6 0 0 1 43.6-43.7zM328.8 279.2a43.6 43.6 0 0 1 43.6 43.6v518a43.6 43.6 0 0 1-43.6 43.6h-192A43.6 43.6 0 0 1 93 840.9v-518a43.6 43.6 0 0 1 43.6-43.6zm744.7 139.6a43.6 43.6 0 0 1 43.6 43.6v378.2a43.6 43.6 0 0 1-43.6 43.6h-192a43.6 43.6 0 0 1-43.7-43.6V462.5a43.6 43.6 0 0 1 43.6-43.6zM701.4 0A43.6 43.6 0 0 1 745 43.6v797.1a43.6 43.6 0 0 1-43.6 43.6H509a43.6 43.6 0 0 1-43.6-43.6v-797A43.6 43.6 0 0 1 509.1 0z"/></svg>