<svg xmlns="http://www.w3.org/2000/svg" width="200" height="200" class="icon" viewBox="0 0 1024 1024"><path d="M987.5 719.9c-20.5 0-34.3 11-41.1 16.6-123.4 100-281 16.7-418-11.1-144-33.3-322.2-27.7-466 16.7-20.7 5.5-48 11-55 22.2-13.6 22.2-6.8 44.4 7 55.5 75.3 16.7 123.3-27.8 260.3-44.4 253.6-22.2 363.3 83.3 541.5 77.7 48 0 89-11.1 130.2-27.8 27.5-11 68.5-38.8 75.4-66.6 6.9-22.1-6.9-38.8-34.3-38.8M178 649.3l3-.2a864 864 0 0 0 70.2-9.4c9-1.5 12.2-2 33.7-5.9 47.5-8.3 72-12 101.9-14.4 66.4-4.3 105.6 3.7 176.5 29.2l11.6 4.1c78.6 28.2 128.7 36.6 208.6 26 38.2-5 71-12.2 100.3-25C933 632.4 963.6 597.3 959 546l-.4-4.7-1.4-4.6-16.2-50.3q-6.6-20.6-13.7-41a936 936 0 0 0-11.1-30c-13.6-34.4-30-68.4-59.3-123.2-28-48.7-59.6-94-80.8-108.7-46.6-29-87.3-.6-127.4 51.7C595.8 130.8 545 56.3 488.2 21.9c-60.7-42-117-19.4-175.9 41.7-82.2 101-147.5 224.8-231 415.7-43.7 81.3-2.5 170 96.7 170m751.6 241.3c-17.1 0-28.6 11-34.3 16.6-102.8 100-234.2 16.7-348.4-11.1-120-33.3-268.4-27.8-388.4 16.6-17.1 5.6-40 11.2-45.7 22.3-11.4 22.2-5.7 44.3 5.8 55.5 62.8 16.7 102.8-27.8 217-44.4 211.3-22.2 302.7 83.2 451.2 77.7 40 0 74.2-11.1 108.6-27.8 22.8-11 57-38.8 62.8-66.6 5.7-22.2-5.8-38.8-28.6-38.8"/></svg>