<svg xmlns="http://www.w3.org/2000/svg" width="200" height="200" class="icon" viewBox="0 0 1024 1024"><path d="M308.3 860.6a25 25 0 0 1-12.5-3.4l-154-88.8a74 74 0 0 1-36.9-64 25 25 0 1 1 50 0 24 24 0 0 0 12 20.7l109.5 63.2a624 624 0 0 1-3-60.6c0-129 39.4-252.4 113.9-357.1a619 619 0 0 1 128-132.8 616 616 0 0 1 115.2-69.7L524 106.6a24 24 0 0 0-24 0l-152 87.7a25 25 0 1 1-25-43.3l152-87.7a74 74 0 0 1 74 0L699.3 150a25 25 0 0 1-3.9 45.1 565 565 0 0 0-149.7 82.3 569 569 0 0 0-117.7 122 563 563 0 0 0-104.5 328.2 572 572 0 0 0 9.4 103.4 25 25 0 0 1-10.2 25 25 25 0 0 1-14.4 4.5M129.9 458a25 25 0 0 1-25-25V319.6a74 74 0 0 1 37-64L243.6 197a25 25 0 1 1 25 43.3L167 298.9a24 24 0 0 0-12 20.7v113.5a25 25 0 0 1-25 25"/><path d="M711.5 863a25 25 0 0 1-12.5-46.6L857.1 725a24 24 0 0 0 12-20.7v-129a625 625 0 0 1-48.8 31.4 613 613 0 0 1-367.7 79.8 619 619 0 0 1-179.5-45.3 617 617 0 0 1-118.2-65.5v128.6a24 24 0 0 0 12 20.7l153.9 88.8a25 25 0 1 1-25 43.3l-154-88.8a74 74 0 0 1-36.9-64V524.8a25 25 0 0 1 41.1-19 569.3 569.3 0 0 0 311.4 131.1 563 563 0 0 0 338-73.4q44-25.5 82.6-58a25 25 0 0 1 26.6-3.6 25 25 0 0 1 14.5 22.7v179.7a74 74 0 0 1-37 64L724 859.8a25 25 0 0 1-12.5 3.3"/><path d="M512 970.6a74 74 0 0 1-37-9.9L375 903a25 25 0 1 1 25-43.3l100 57.7a24 24 0 0 0 24 0l95.6-55.2a25 25 0 1 1 25 43.3L549 960.7a74 74 0 0 1-37 10M711.5 863a25 25 0 0 1-14.5-4.6 25 25 0 0 1-10-25 565 565 0 0 0 5.8-173 569 569 0 0 0-46-165.3 563 563 0 0 0-233.5-258.3A573 573 0 0 0 327 196a25 25 0 0 1-16.2-21.4A25 25 0 0 1 323 151l152-87.7a74 74 0 0 1 73.9 0L699.3 150a25 25 0 1 1-25 43.3L524 106.6a24 24 0 0 0-24 0L391.7 169a627 627 0 0 1 46.6 24.4 612 612 0 0 1 254.2 281.2 620 620 0 0 1 50 179.8q8.1 68.3 1.2 136.1L857 725.1a24 24 0 0 0 12-20.7 25 25 0 1 1 50 0 74 74 0 0 1-37 64L724 859.7a25 25 0 0 1-12.5 3.3m182.6-405a25 25 0 0 1-25-25V319.6a24 24 0 0 0-12-20.7l-103-59.5a25 25 0 1 1 25-43.3l103 59.5a74 74 0 0 1 37 64V433a25 25 0 0 1-25 25"/></svg>