<svg xmlns="http://www.w3.org/2000/svg" width="200" height="200" class="icon" viewBox="0 0 1024 1024"><path d="M654.4 1020H369.6c-8.8 0-16-7.2-16-16V670.4H20c-8.8 0-16-7.2-16-16V369.6c0-8.8 7.2-16 16-16h333.6V20c0-8.8 7.2-16 16-16h284c8.8 0 16 7.2 16 16v333.6h333.6c8.8 0 16 7.2 16 16v284c0 8.8-7.2 16-16 16H670.4v333.6c0 9.6-7.2 16.8-16 16.8m-268.8-32h252V654.4c0-8.8 7.2-16 16-16h333.6V385.6H654.4c-8.8 0-16-7.2-16-16V36H385.6v333.6c0 8.8-7.2 16-16 16H36v252h333.6c8.8 0 16 7.2 16 16z"/><path d="M512 944c-2.4 0-4.8-.8-6.4-3.2L415.2 824c-1.6-2.4-2.4-5.6-.8-8.8 1.6-2.4 4-4.8 7.2-4.8h180.8q4.8 0 7.2 4.8c1.6 2.4.8 6.4-.8 8.8l-90.4 116.8c-1.6 2.4-4 3.2-6.4 3.2m-73.6-116 74.4 96 74.4-96zm164-616H421.6q-4.8 0-7.2-4.8c-1.6-2.4-.8-6.4.8-8.8l90.4-116.8c3.2-4 9.6-4 12.8 0l90.4 116.8c1.6 2.4 2.4 5.6.8 8.8q-2.4 4.8-7.2 4.8m-164-16h148L512 100zM204 610.4c-1.6 0-3.2-.8-4.8-1.6L82.4 518.4c-1.6-1.6-2.4-4-2.4-6.4s.8-4.8 3.2-6.4L200 415.2c2.4-1.6 5.6-2.4 8.8-.8 2.4 1.6 4.8 4 4.8 7.2v180.8q0 4.8-4.8 7.2c-2.4.8-3.2.8-4.8.8M100.8 512l96 74.4v-148zM820 610.4c-1.6 0-2.4 0-3.2-.8-2.4-1.6-4.8-4-4.8-7.2V421.6q0-4.8 4.8-7.2c2.4-1.6 6.4-.8 8.8.8l116.8 90.4c1.6 1.6 3.2 4 3.2 6.4s-.8 4.8-3.2 6.4l-116.8 90.4c-2.4.8-4 1.6-5.6 1.6m8-172v148l96-74.4zM512 632c-66.4 0-120-53.6-120-120s53.6-120 120-120 120 53.6 120 120-53.6 120-120 120m0-224c-57.6 0-104 46.4-104 104s46.4 104 104 104 104-46.4 104-104-46.4-104-104-104"/></svg>