<svg xmlns="http://www.w3.org/2000/svg" width="200" height="200" class="icon" viewBox="0 0 1024 1024"><path d="M512 1024a42.7 42.7 0 0 1-18.133-4.053 42.67 42.67 0 0 1-24.534-38.614V810.667H128a128 128 0 0 1-128-128V128A128 128 0 0 1 128 0h768a128 128 0 0 1 128 128v554.667a128 128 0 0 1-128 128H783.36l-244.053 203.52A42.67 42.67 0 0 1 512 1024M128 85.333A42.667 42.667 0 0 0 85.333 128v554.667A42.667 42.667 0 0 0 128 725.333h384A42.667 42.667 0 0 1 554.667 768v122.24l186.026-155.093A42.67 42.67 0 0 1 768 725.333h128a42.667 42.667 0 0 0 42.667-42.666V128A42.667 42.667 0 0 0 896 85.333z"/><path d="M170.667 405.333a85.333 85.333 0 1 0 170.666 0 85.333 85.333 0 1 0-170.666 0M426.66700000000003 405.333a85.333 85.333 0 1 0 170.666 0 85.333 85.333 0 1 0-170.666 0M682.667 405.333a85.333 85.333 0 1 0 170.666 0 85.333 85.333 0 1 0-170.666 0"/></svg>