<svg t="1758964540519" class="icon" viewBox="0 0 1024 1024" version="1.1" xmlns="http://www.w3.org/2000/svg" p-id="8372" id="mx_n_1758964540520" width="200" height="200"><path d="M155.025119 1024c-43.937733 0-82.841822-15.100929-111.507993-43.681785-69.27658-69.361896-54.175651-197.421191 33.443866-285.296656L600.118617 170.840143l36.515242 36.600557-522.901677 524.181417c-66.375837 66.546469-81.81803 163.636061-33.443866 211.924908 22.694052 22.779368 56.479183 32.420075 95.383272 27.2158 41.463569-5.630855 82.756506-27.215799 116.115057-60.744982L816.650589 384.130107l36.515242 36.685874-524.863945 525.887736c-41.463569 41.634201-93.165056 68.423421-145.719703 75.504647-9.384758 1.194424-18.598885 1.791636-27.557064 1.791636z" p-id="8373"></path><path d="M988.221036 647.073975a118.58922 118.58922 0 0 1-72.603904 35.235502 82.24461 82.24461 0 0 1-67.399628-22.52342L364.305232 175.959102c-34.979554-34.979554-29.348699-98.113384 12.626766-140.088849a118.58922 118.58922 0 0 1 72.603904-35.235502 82.24461 82.24461 0 0 1 67.399629 22.52342l152.715614 152.800931L780.391295 65.218952c58.782714-58.86803 147.084759-66.887733 195.970819-17.831041 24.485688 24.485688 34.723606 58.86803 31.652231 94.35948a167.389964 167.389964 0 0 1-49.483272 101.696655L847.961556 354.184196l152.715614 152.80093c35.320818 35.06487 29.604647 98.113384-12.370818 140.088849z" p-id="8374"></path><path d="M888.145385 682.736057c-27.983643 0-53.493123-10.152602-72.518588-29.092751l-445.349446-445.349446c-42.913941-42.913941-37.539034-117.992008 11.688291-167.219332 23.205948-23.205948 52.895911-37.539034 83.609666-40.354461 32.420075-3.071375 62.195354 7.081227 83.609666 28.580855l121.575279 121.489964 82.756506-82.756506c64.840149-64.840149 162.953533-72.26264 218.835504-16.38067 27.557063 27.557063 40.695725 66.119889 36.856506 108.351302a181.381786 181.381786 0 0 1-53.237175 110.484202l-82.756507 82.756506 121.489964 121.489964c21.328996 21.328996 31.566915 51.189591 28.580855 83.609666-2.815428 30.799071-17.063197 60.57435-40.354461 83.609666a136.249629 136.249629 0 0 1-94.700744 40.781041zM476.837018 54.469138c-2.047584 0-4.009851 0.170632-5.972119 0.255948a82.415242 82.415242 0 0 0-50.336432 24.65632c-27.642379 27.642379-33.102602 69.105948-11.602974 90.605577l445.349446 445.349445a49.227324 49.227324 0 0 0 40.354461 12.797398 82.415242 82.415242 0 0 0 50.251116-24.571004 82.329926 82.329926 0 0 0 24.571003-50.251115 49.31264 49.31264 0 0 0-12.797397-40.354462L796.601332 353.24572l121.1487-121.1487c21.755576-21.67026 34.979554-49.056692 37.62435-76.955019 2.388848-25.93606-5.118959-49.142008-21.243681-65.181413-34.041078-34.126394-99.137175-26.447956-142.136432 16.380669l-121.1487 121.1487L511.048728 67.693116a47.521004 47.521004 0 0 0-34.297026-13.223978z" p-id="8375"></path></svg>