<svg xmlns="http://www.w3.org/2000/svg" width="200" height="200" class="icon" viewBox="0 0 1024 1024"><path d="M683 0c34 0 66.5 12.7 90.5 35.3l213 200.4A117 117 0 0 1 1024 321v582.5c0 66.6-57.3 120.5-128 120.5H128C57.3 1024 0 970 0 903.5v-783C0 53.9 57.3 0 128 0zM146.3 73.1H128c-31.2 0-54.9 22.3-54.9 47.4v783c0 25.1 23.7 47.4 54.9 47.4h768c31.2 0 54.9-22.3 54.9-47.4v-469H658.3c-32.9 0-73.2-35.6-73.2-68.9V73.1H292.6v146.3H146.3zm146.3 585.2v146.3H146.3V658.3zM438.9 512v146.3H292.6V512zM292.6 365.7V512H146.3V365.7zM683 73.1h-24.7v292.6h292.6V321a44 44 0 0 0-14.5-32l-213-200.5A59 59 0 0 0 683 73.1M439 219.4v146.3H292.6V219.4z"/></svg>