<svg t="1757001201337" class="icon" viewBox="0 0 1024 1024" version="1.1" xmlns="http://www.w3.org/2000/svg" p-id="15102" id="mx_n_1757001201338" width="200" height="200"><path d="M683.008 0c33.938286 0 66.486857 12.726857 90.477714 35.254857l212.992 200.484572c23.771429 21.942857 37.302857 52.809143 37.522286 85.211428v582.582857c0 66.56-57.344 120.466286-128 120.466286H128C57.344 1024 0 970.093714 0 903.533714V120.466286C0 53.906286 57.344 0 128 0h555.008zM146.285714 73.142857h-18.285714c-31.232 0-54.857143 22.235429-54.857143 47.323429v783.067428c0 25.088 23.625143 47.323429 54.857143 47.323429h768c31.232 0 54.857143-22.235429 54.857143-47.323429V434.468571H658.285714c-32.841143 0-73.142857-35.547429-73.142857-68.827428V73.142857H292.571429v146.285714H146.285714V73.142857z m146.285715 585.142857v146.285715H146.285714V658.285714h146.285715z m146.285714-146.285714v146.285714H292.571429V512h146.285714zM292.571429 365.714286v146.285714H146.285714V365.714286h146.285715z m390.436571-292.571429H658.285714v292.571429h292.571429v-44.763429a43.885714 43.885714 0 0 0-14.482286-31.890286L723.382857 88.502857A59.099429 59.099429 0 0 0 683.008 73.142857zM438.857143 219.428571v146.285715H292.571429V219.428571h146.285714z" p-id="15103"></path></svg>