<svg xmlns="http://www.w3.org/2000/svg" width="200" height="200" class="icon" viewBox="0 0 1024 1024"><path d="M479 618.8a46.5 46.5 0 0 1 66 0l162.8 162.8a46.5 46.5 0 0 1 0 65.8l-162.9 163a46.5 46.5 0 0 1-65.8 0l-162.9-163a46.5 46.5 0 0 1 0-65.8zm368.4-279.4 163 163a46.5 46.5 0 0 1 0 65.8L847.4 731a46.5 46.5 0 0 1-65.8 0L618.8 568.2a46.5 46.5 0 0 1 0-65.9l162.9-162.8a46.5 46.5 0 0 1 65.8 0zm-605-23.2 162.8 162.9a46.5 46.5 0 0 1 0 65.8L242.4 707.8a46.5 46.5 0 0 1-65.8 0l-163-162.9a46.5 46.5 0 0 1 0-65.8l163-162.9a46.5 46.5 0 0 1 65.8 0M545 13.6l162.9 163a46.5 46.5 0 0 1 0 65.8L544.9 405.2a46.5 46.5 0 0 1-65.8 0L316.2 242.4a46.5 46.5 0 0 1 0-65.8l162.9-163a46.5 46.5 0 0 1 65.8 0"/></svg>