<svg xmlns="http://www.w3.org/2000/svg" width="200" height="200" class="icon" viewBox="0 0 1024 1024"><path d="M325.3 0H139.7q-38.2 0-70.4 18.6T18.6 69.3 0 139.7v185.6q0 38.2 18.6 70.4Q37 428 69.3 446.5t70.4 18.6h185.6q38.2 0 70.4-18.6t50.8-50.8 18.6-70.4V139.7q0-38.2-18.6-70.4t-50.8-50.7T325.3 0m47 325.3q0 19.7-13.7 33.3-13.6 13.7-33.3 13.7H139.7q-19.6 0-33.3-13.7t-13.6-33.3V139.7q0-19.6 13.6-33.3t33.3-13.6h185.6q19.7 0 33.3 13.6 13.7 13.7 13.7 33.3zM884.3 0H698.7q-38.2 0-70.4 18.6Q596 37 577.5 69.3T559 139.7v744.6q0 38.2 18.5 70.4 18.6 32.2 50.8 50.7 32.2 18.6 70.4 18.6h185.6q38.2 0 70.4-18.6 32.2-18.5 50.7-50.7 18.6-32.2 18.6-70.4V139.7q0-38.2-18.6-70.4t-50.7-50.7T884.3 0m47 884.3q0 19.6-13.7 33.3t-33.3 13.6H698.7q-19.7 0-33.3-13.6t-13.6-33.3V139.7q0-19.6 13.6-33.3t33.3-13.6h185.6q19.6 0 33.3 13.6t13.6 33.3zm-606-325.4H139.7q-38.2 0-70.4 18.6t-50.7 50.8T0 698.7v185.5q0 38.3 18.6 70.5 18.5 32.2 50.7 50.7 32.2 18.6 70.4 18.6h185.6q38.2 0 70.4-18.6 32.2-18.5 50.8-50.7t18.6-70.5V698.7q0-38.2-18.6-70.4t-50.8-50.8-70.4-18.6m47 325.4q0 19.6-13.7 33.3t-33.3 13.6H139.7q-19.6 0-33.3-13.6t-13.6-33.3V698.7q0-19.7 13.6-33.3t33.3-13.7h185.6q19.7 0 33.3 13.7 13.7 13.6 13.7 33.3z"/></svg>