<svg t="1756824988449" class="icon" viewBox="0 0 1024 1024" version="1.1" xmlns="http://www.w3.org/2000/svg" p-id="5227" id="mx_n_1756824988451" width="200" height="200"><path d="M325.326823 0H139.748635q-38.209627 0-70.419312 18.559819T18.559819 69.329323Q0 101.529009 0 139.748635v185.578188q0 38.209627 18.559819 70.419312 18.559819 32.199686 50.769504 50.759505 32.199686 18.559819 70.419312 18.559818h185.578188q38.209627 0 70.419312-18.559818 32.199686-18.559819 50.759505-50.759505 18.559819-32.209685 18.559818-70.419312V139.748635q0-38.209627-18.559818-70.419312t-50.759505-50.769504Q363.53645 0 325.326823 0z m46.939542 325.316823q0 19.649808-13.639867 33.299675-13.639867 13.639867-33.299675 13.639867H139.748635q-19.649808 0-33.299674-13.639867-13.649867-13.639867-13.649867-33.299675V139.738635q0-19.649808 13.649867-33.299674 13.649867-13.649867 33.299674-13.649867h185.578188q19.649808 0 33.299675 13.649867 13.639867 13.649867 13.639867 33.299674v185.578188zM884.261365 0H698.683177q-38.209627 0-70.409312 18.559819-32.209685 18.559819-50.759505 50.769504-18.559819 32.199686-18.559818 70.419312v744.51273q0 38.209627 18.559818 70.409312 18.559819 32.209685 50.759505 50.769504 32.209685 18.559819 70.409312 18.559819h185.578188q38.209627 0 70.409312-18.559819 32.209685-18.559819 50.769504-50.769504 18.559819-32.199686 18.559819-70.409312V139.748635q0-38.209627-18.559819-70.419312t-50.769504-50.769504Q922.470992 0 884.261365 0z m46.949541 884.251365q0 19.649808-13.649866 33.299675-13.649867 13.649867-33.299675 13.649866H698.683177q-19.649808 0-33.289675-13.649866t-13.639867-33.299675V139.738635q0-19.649808 13.639867-33.299674 13.639867-13.649867 33.289675-13.649867h185.578188q19.649808 0 33.299675 13.649867 13.649867 13.649867 13.649866 33.299674v744.51273zM325.326823 558.934542H139.748635q-38.209627 0-70.419312 18.559818t-50.769504 50.759505Q0 660.46355 0 698.663177v185.578188q0 38.209627 18.559819 70.409312 18.559819 32.209685 50.769504 50.769504 32.199686 18.559819 70.419312 18.559819h185.578188q38.209627 0 70.419312-18.559819 32.199686-18.559819 50.759505-50.769504 18.559819-32.199686 18.559818-70.409312V698.663177q0-38.209627-18.559818-70.409312-18.559819-32.209685-50.759505-50.759505-32.209685-18.559819-70.419312-18.559818z m46.939542 325.316823q0 19.649808-13.639867 33.299675-13.639867 13.649867-33.299675 13.649866H139.748635q-19.649808 0-33.299674-13.649866-13.649867-13.649867-13.649867-33.299675V698.673177q0-19.649808 13.649867-33.289675t33.299674-13.639867h185.578188q19.649808 0 33.299675 13.639867 13.639867 13.639867 13.639867 33.289675v185.578188z" p-id="5228"></path></svg>
