<svg t="1756650418518" class="icon" viewBox="0 0 1024 1024" version="1.1" xmlns="http://www.w3.org/2000/svg" p-id="95991" width="200" height="200"><path d="M971.213002 908.642151h-15.358294v64.22042c0 28.099989-23.663149 50.966781-52.730141 50.966781-29.066993 0-52.673259-22.866793-52.673259-50.966781v-64.22042H120.704836c-29.066993 0-52.673259-22.923675-52.673259-51.080547V217.234529h-15.358293c-29.01011 0-52.673259-22.923675-52.673259-51.080546 0-28.099989 23.663149-50.966781 52.673259-50.966782h15.358293V50.966781c0-28.156871 23.606266-51.023664 52.673259-51.023664 29.066993 0 52.730141 22.866793 52.730141 51.023664v64.22042h729.68959c29.066993 0 52.730141 22.866793 52.730141 50.966782v640.44084h15.358294c29.066993 0 52.673259 22.866793 52.673258 50.966781 0 28.156871-23.606266 51.080547-52.673258 51.080547zM850.451308 217.234529H173.434977v589.360294h677.016331V217.234529zM334.469529 532.705255a33.560715 33.560715 0 0 1 41.86557-11.035218l171.102767 80.545717h0.284412l99.885791-147.724031a32.536829 32.536829 0 0 1 30.944117-14.106877 31.854238 31.854238 0 0 1 27.132985 20.193312l88.338629 228.554161a29.863349 29.863349 0 0 1-3.981779 28.896344 32.76436 32.76436 0 0 1-26.677925 13.310522H260.351542a32.593712 32.593712 0 0 1-28.611932-16.097767 29.977114 29.977114 0 0 1 1.080769-32.252417l101.64915-150.283746z m28.782579-75.141873c-41.808688 0-75.824464-32.935007-75.824464-73.435396s34.015776-73.492279 75.824464-73.492279c41.751805 0 75.767581 32.99189 75.767582 73.492279 0 40.500389-34.015776 73.435396-75.767582 73.435396z" p-id="95992"></path></svg>
