<svg xmlns="http://www.w3.org/2000/svg" width="200" height="200" class="icon" viewBox="0 0 1024 1024"><path d="M85.3 0h853.4a85.3 85.3 0 0 1 85.3 85.3V768a85.3 85.3 0 0 1-85.3 85.3H85.3A85.3 85.3 0 0 1 0 768V85.3A85.3 85.3 0 0 1 85.3 0M128 85.3A42.7 42.7 0 0 0 85.3 128v512a42.7 42.7 0 0 0 42.7 42.7h768a42.7 42.7 0 0 0 42.7-42.7V128A42.7 42.7 0 0 0 896 85.3zm384 725.4a42.7 42.7 0 1 0 0-85.4 42.7 42.7 0 0 0 0 85.4m-170.7 128h341.4A85.3 85.3 0 0 1 768 1024H256a85.3 85.3 0 0 1 85.3-85.3m85.4-85.4h170.6v85.4H426.7zm-42.7-512h85.3v256H384zm-170.7 85.4h85.4v170.6h-85.4zM554.7 256H640v341.3h-85.3zm170.6-85.3h85.4v426.6h-85.4z"/></svg>