<svg t="1757084962233" class="icon" viewBox="0 0 1024 1024" version="1.1" xmlns="http://www.w3.org/2000/svg" p-id="3889" width="200" height="200"><path d="M1008 512c0-26.24-21.76-48-48-48s-48 21.76-48 48v204.16L545.92 350.08a48.256 48.256 0 0 0-67.84 0L384 444.16 97.92 158.08c-18.56-18.56-49.28-18.56-67.84 0s-18.56 49.28 0 67.84l320 320c18.56 18.56 49.28 18.56 67.84 0L512 451.84l332.16 332.16H640c-26.24 0-48 21.76-48 48s21.76 48 48 48h320c6.4 0 12.16-1.28 18.56-3.84 11.52-5.12 21.12-14.08 26.24-26.24 2.56-5.76 3.84-12.16 3.84-18.56v-320z" p-id="3890"></path></svg>
