<svg t="1756485609690" class="icon" viewBox="0 0 1024 1024" version="1.1" xmlns="http://www.w3.org/2000/svg" p-id="36783" width="200" height="200"><path d="M533.650286 0v77.984914L873.311086 241.956571v146.958629L943.542857 352.826514V197.339429L533.650286 0z m-43.300572 0L80.457143 197.383314v153.892572l70.275657 36.571428V241.956571L490.349714 77.984914V0zM288.065829 368.201143v274.3296L512 776.777143l223.963429-134.231772V368.215771L512 247.778743 288.065829 368.201143z m26.9312 258.940343V384.687543L512 278.001371l197.002971 106.101029v241.956571L512 745.442743l-197.002971-118.301257zM80.457143 778.357029L490.349714 1024v-81.671314L150.7328 738.552686v-288.621715L80.457143 413.856914v364.485486z m792.853943-327.899429v288.095086l-339.675429 203.776V1024L943.542857 777.815771V414.427429l-70.231771 36.0448z" p-id="36784"></path><path d="M517.544229 515.949714V687.542857L665.6 605.154743v-165.741714l-148.055771 76.522057z m-13.136458-21.650285l147.017143-76.024686L505.519543 336.457143l-147.543772 81.8176 146.432 76.024686z m-13.092571 21.650285L343.771429 439.925029v164.717714l147.543771 81.802971V515.949714z" p-id="36785"></path></svg>
