<svg xmlns="http://www.w3.org/2000/svg" width="200" height="200" class="icon" viewBox="0 0 1024 1024"><path d="M533.7 0v78l339.6 164v147l70.2-36.2V197.3zm-43.4 0L80.5 197.4v153.9l70.2 36.5V242L490.3 78zM288.1 368.2v274.3L512 776.8l224-134.3V368.2L512 247.8zm26.9 259V384.6L512 278l197 106.1v242L512 745.4zM80.5 778.3 490.3 1024v-81.7L150.7 738.6V449.9l-70.2-36zm792.8-328v288.2L533.6 942.3v81.7l410-246.2V414.4z"/><path d="M517.5 516v171.5l148.1-82.3V439.4zm-13-21.7 147-76-146-81.8L358 418.3zm-13.2 21.6-147.5-76v164.7l147.5 81.8z"/></svg>