<svg xmlns="http://www.w3.org/2000/svg" width="200" height="200" class="icon" viewBox="0 0 1172 1024"><path d="M111.5 314.5 214 183l65.9 102.4zm161-168.2L477.3 95c-14.7 14.6-22 29.2-36.6 43.9a3523 3523 0 0 0-95.1 117zm146.2 131.6c58.6-73.1 109.8-131.6 153.6-182.8l161 175.5zm65.9 556-387.7-439 219.4-36.5zm278-490.1L587 885 396.8 343.8zm109.6-65.9 65.9-109.7 95 131.7zm168.3 102.4L674.7 826.5l153.6-475.4zm-373-285.2 204.7 36.6-65.8 117zm460.7 219.4L967.3 95.1c-14.6-14.6-22-22-43.9-29.3L579.7 0h-29.3L213.9 80.5c-14.6 7.3-29.2 14.6-36.5 29.2l-161 219.4c-21.9 29.3-21.9 65.9 0 87.8l512 585.2a66 66 0 0 0 51.3 21.9c21.9 0 36.5-7.3 51.2-22l490-599.7c22-29.3 29.3-65.8 7.3-87.8"/></svg>