<svg xmlns="http://www.w3.org/2000/svg" width="200" height="200" class="icon" viewBox="0 0 1024 1024"><path d="M1021 527a39 39 0 0 0 3-15q0-8-3-15.1a38 38 0 0 0-8.5-12.7L849.9 321.7a39.2 39.2 0 0 0-55.4 55.4l95.7 95.7h-339V133.7l95.7 95.7a39 39 0 0 0 27.6 11.4 39.2 39.2 0 0 0 27.7-66.9L539.8 11.4c-1.8-1.9-4.1-2.7-6.2-4.2-2.1-1.4-4-3.2-6.5-4.2A40 40 0 0 0 497 3c-2.5 1-4.3 2.8-6.5 4.2-2 1.5-4.3 2.3-6.2 4.2L321.7 173.9a39 39 0 0 0 0 55.5 39 39 0 0 0 55.4 0l95.7-95.7v339h-339l95.6-95.6a39.2 39.2 0 0 0-55.4-55.4L11.5 484.2A37 37 0 0 0 3.1 497a38 38 0 0 0-3.1 15A38 38 0 0 0 3 527a38 38 0 0 0 8.5 12.7L174 702.2a39 39 0 0 0 27.7 11.4 39 39 0 0 0 27.7-66.9l-95.6-95.5h339v339l-95.7-95.6a39 39 0 0 0-55.4 0 39 39 0 0 0 0 55.4l162.5 162.5a39 39 0 0 0 12.8 8.4 38 38 0 0 0 15 3.1q7.7 0 14.9-3a39 39 0 0 0 12.8-8.5L702.3 850a39.2 39.2 0 0 0-55.4-55.4l-95.7 95.6v-339h339l-95.7 95.6a39 39 0 0 0 0 55.4 39 39 0 0 0 27.8 11.4c10 0 20-3.7 27.6-11.4l162.6-162.5a39 39 0 0 0 8.4-12.7"/></svg>