<svg t="1757904576930" class="icon" viewBox="0 0 1024 1024" version="1.1" xmlns="http://www.w3.org/2000/svg" p-id="5591" id="mx_n_1757904576932" width="200" height="200"><path d="M274.043838 886.435911h-175.715977L10.44898 732.80457l87.899775-153.610446h175.50704l87.920669 153.610446z m-143.623261-56.412977h111.44697l55.598123-97.176576-55.598123-97.176576H130.420577l-55.598123 97.134788z m795.005101 56.412977h-175.507039l-87.920669-153.631341 87.920669-153.610446h175.507039L1013.346347 732.80457z m-143.497898-56.412977h111.426076l55.598123-97.176576-55.598123-97.176576h-111.426076l-55.598123 97.176576zM42.62527 550.611549A28.081126 28.081126 0 0 1 14.773974 522.342379a503.705203 503.705203 0 0 1 36.396817-188.711855 498.001224 498.001224 0 0 1 109.211345-165.895939 488.411018 488.411018 0 0 1 66.358376-56.183147 27.663252 27.663252 0 0 1 38.757804 6.89492 28.478107 28.478107 0 0 1-6.811344 39.238359A438.872067 438.872067 0 0 0 199.745858 207.725117 443.635829 443.635829 0 0 0 70.476566 522.342379a27.997552 27.997552 0 0 1-27.851296 28.26917zM511.897664 1023.979106a495.99543 495.99543 0 0 1-210.106999-46.885452 28.26917 28.26917 0 0 1-13.45554-37.504182 27.621465 27.621465 0 0 1 37.023628-13.685371 437.012528 437.012528 0 0 0 373.286758 0 27.851296 27.851296 0 0 1 37.023628 13.685371 28.519894 28.519894 0 0 1-13.497327 37.504182A496.538666 496.538666 0 0 1 511.897664 1023.979106z m469.230606-473.367557A28.081126 28.081126 0 0 1 953.297868 522.342379a445.913242 445.913242 0 0 0-196.129117-370.110916 28.457213 28.457213 0 0 1-7.667986-39.133891 27.663252 27.663252 0 0 1 38.611549-7.772455 503.203754 503.203754 0 0 1 184.491328 228.347195A503.997715 503.997715 0 0 1 1009.000459 522.342379a28.081126 28.081126 0 0 1-27.872189 28.26917z m-816.797226 0A28.081126 28.081126 0 0 1 136.479749 522.342379a378.719119 378.719119 0 0 1 109.942624-267.96164 392.801469 392.801469 0 0 1 50.0404-42.51867 27.684146 27.684146 0 0 1 38.757804 6.894919 28.499 28.499 0 0 1-6.811344 39.259254 326.568455 326.568455 0 0 0-42.706713 36.229667A321.470394 321.470394 0 0 0 192.077872 522.342379a27.93487 27.93487 0 0 1-27.725934 28.26917zM511.897664 901.228647a376.776005 376.776005 0 0 1-158.792084-35.373026 28.248276 28.248276 0 0 1-13.497327-37.504183 27.621465 27.621465 0 0 1 37.023628-13.664476 316.894675 316.894675 0 0 0 270.406203 0 27.809508 27.809508 0 0 1 37.002734 13.664476 28.478107 28.478107 0 0 1-13.351071 37.48329 374.665742 374.665742 0 0 1-158.792083 35.393919z m347.671087-350.617098A28.081126 28.081126 0 0 1 831.696562 522.342379a321.950949 321.950949 0 0 0-93.603755-227.950214 335.343807 335.343807 0 0 0-42.706713-36.250561 28.26917 28.26917 0 0 1-6.811344-39.23836 27.496103 27.496103 0 0 1 38.757804-6.894919 366.015752 366.015752 0 0 1 49.915038 42.539563 378.175882 378.175882 0 0 1 109.942624 267.982534 27.872189 27.872189 0 0 1-27.642359 28.081127z" p-id="5592"></path><path d="M599.651183 307.137319h-175.507039l-87.962457-153.610447L424.144144 0h175.507039l87.899776 153.631341zM456.174179 250.724342h111.44697l55.577229-97.176576-55.577229-97.134789h-111.44697l-55.598123 97.113895z" p-id="5593"></path></svg>