<svg xmlns="http://www.w3.org/2000/svg" width="200" height="200" class="icon" viewBox="0 0 1024 1024"><path d="M921.6 0H102.4A102.4 102.4 0 0 0 0 102.4v819.2A102.4 102.4 0 0 0 102.4 1024h819.2A102.4 102.4 0 0 0 1024 921.6V102.4A102.4 102.4 0 0 0 921.6 0m-365 724.5h-234a77 77 0 0 1-76.8-76.8V301.6a77.3 77.3 0 0 1 76.8-76.8h346a77 77 0 0 1 76.9 76.8V554H707V301.6a39 39 0 0 0-38.4-38.4H322.6a39 39 0 0 0-38.4 38.4v346a38.4 38.4 0 0 0 38.4 38.5h234zM380.3 378.9a19.5 19.5 0 0 1-19.4-20.5 19 19 0 0 1 19.4-19h230.4a19 19 0 0 1 19.5 19 19.5 19.5 0 0 1-19.5 19.5zm173 95.7a19.5 19.5 0 0 1-19.4 19.5H380.4a19.5 19.5 0 0 1-19.4-19.5 19 19 0 0 1 19.4-19H534a19 19 0 0 1 19.5 19m19 134.7h-192a19 19 0 0 1-19.4-19 19.5 19.5 0 0 1 19.4-19.4h192a19.5 19.5 0 0 1 19.5 19.4 19 19 0 0 1-19.5 19m234 117.2h-76.8v76.8a19 19 0 0 1-19.5 19 18.4 18.4 0 0 1-18.9-19v-76.8h-76.8a19.5 19.5 0 0 1 0-38.9h76.8v-76.8a18.4 18.4 0 0 1 19-19 19 19 0 0 1 19.4 19v76.8h76.8a19.5 19.5 0 0 1 0 39"/></svg>