<svg t="1756520190215" class="icon" viewBox="0 0 1024 1024" version="1.1" xmlns="http://www.w3.org/2000/svg" p-id="19754" width="200" height="200"><path d="M365.804083 316.689249L118.647038 69.532205h118.85847a34.286097 34.286097 0 0 0 0-68.572194H34.737531a34.286097 34.286097 0 0 0-34.286097 34.286097v202.74512a34.286097 34.286097 0 0 0 68.572193 0v-121.14421l248.299915 248.322772a34.286097 34.286097 0 0 0 48.480541 0 34.286097 34.286097 0 0 0 0-48.480541zM657.784484 315.729238L904.941528 68.572194h-118.858469a34.286097 34.286097 0 0 1 0-68.572194h202.74512a34.286097 34.286097 0 0 1 34.286097 34.286097v202.779406a34.286097 34.286097 0 1 1-68.572194 0v-121.144209L706.265025 364.221208a34.286097 34.286097 0 0 1-48.480541 0 34.286097 34.286097 0 0 1 0-48.49197zM366.215516 707.310751L119.058472 954.467795h118.858469a34.286097 34.286097 0 0 1 0 68.572194H35.137535a34.286097 34.286097 0 0 1-34.286097-34.286097v-202.74512a34.286097 34.286097 0 0 1 68.572194 0v121.14421l248.299914-248.368487a34.286097 34.286097 0 0 1 48.49197 0 34.286097 34.286097 0 0 1 0 48.526256zM658.184489 708.270762l247.157044 247.157044h-118.85847a34.286097 34.286097 0 0 0 0 68.572194h202.74512a34.286097 34.286097 0 0 0 34.286097-34.286097v-202.74512a34.286097 34.286097 0 1 0-68.572194 0v121.144209L706.676458 659.778792a34.286097 34.286097 0 0 0-48.491969 0 34.286097 34.286097 0 0 0 0 48.49197z" p-id="19755"></path></svg>
