<svg xmlns="http://www.w3.org/2000/svg" width="200" height="200" class="icon" viewBox="0 0 1024 1024"><path d="M365.8 316.7 118.6 69.5h119a34.3 34.3 0 0 0 0-68.5H34.6A34.3 34.3 0 0 0 .5 35.2V238a34.3 34.3 0 0 0 68.5 0V116.8l248.3 248.4a34.3 34.3 0 0 0 48.5 0 34.3 34.3 0 0 0 0-48.5m292-1L904.9 68.6H786.1A34.3 34.3 0 0 1 786 0h202.7a34.3 34.3 0 0 1 34.3 34.3V237a34.3 34.3 0 1 1-68.6 0V115.9L706.3 364.2a34.3 34.3 0 0 1-48.5 0 34.3 34.3 0 0 1 0-48.5M366.2 707.3 119.1 954.5h118.8a34.3 34.3 0 0 1 0 68.5H35.1A34.3 34.3 0 0 1 1 988.8V786a34.3 34.3 0 0 1 68.5 0v121.2l248.3-248.4a34.3 34.3 0 0 1 48.5 0 34.3 34.3 0 0 1 0 48.5m292 1 247.1 247.1H786.5a34.3 34.3 0 0 0 0 68.6h202.7a34.3 34.3 0 0 0 34.3-34.3V787a34.3 34.3 0 1 0-68.6 0V908L706.7 659.8a34.3 34.3 0 0 0-48.5 0 34.3 34.3 0 0 0 0 48.5"/></svg>