<svg xmlns="http://www.w3.org/2000/svg" width="200" height="200" class="icon" viewBox="0 0 1024 1024"><path d="M896 537.6H588.8c-28.3 0-51.2 23-51.2 51.2V896c0 28.3 23 51.2 51.2 51.2H896c28.3 0 51.2-23 51.2-51.2V588.8c0-28.3-23-51.2-51.2-51.2m-.8 329.3a31 31 0 0 1-31 31H619a31 31 0 0 1-31-31V621.8a31 31 0 0 1 31-31h245.1a31 31 0 0 1 31 31zm-460-329.3H128c-28.3 0-51.2 23-51.2 51.2V896c0 28.3 23 51.2 51.2 51.2h307.2c28.3 0 51.2-23 51.2-51.2V588.8c0-28.3-23-51.2-51.2-51.2m-1.7 329.3a31 31 0 0 1-31 31H157.4a31 31 0 0 1-31-31V621.8a31 31 0 0 1 31-31h245a31 31 0 0 1 31 31zM128 486.4h307.2c28.3 0 51.2-23 51.2-51.2V128c0-28.3-23-51.2-51.2-51.2H128c-28.3 0-51.2 23-51.2 51.2v307.2c0 28.3 23 51.2 51.2 51.2m-1.7-327.1a31 31 0 0 1 31-31h245.2a31 31 0 0 1 31 31v245a31 31 0 0 1-31 31.1H157.4a31 31 0 0 1-31-31zm883 142.7L855.9 36a51 51 0 0 0-70-18.8l-266 153.6a51 51 0 0 0-18.8 70l153.6 266a51 51 0 0 0 70 18.7l266-153.6a51 51 0 0 0 18.8-70m-78.6 38-202 118a29.6 29.6 0 0 1-40.5-10.7l-117.9-202A29.6 29.6 0 0 1 581 205L782.9 87a29.6 29.6 0 0 1 40.5 10.7l117.9 202a29.6 29.6 0 0 1-10.6 40.4"/></svg>