<svg xmlns="http://www.w3.org/2000/svg" width="200" height="200" class="icon" viewBox="0 0 1024 1024"><path d="M285 281.6H184.7V100.4A100.4 100.4 0 0 1 285 0h234A100 100 0 0 1 619 100.1v177.7H519V100.4H285zm234 335.6h100v307.2a100 100 0 0 1-100 99.6H285a100.4 100.4 0 0 1-100.2-99.8V614.4H285M519 1024"/><path d="M804.6 627.2H99.8A100 100 0 0 1 0 527.4V293a100 100 0 0 1 99.8-99.8h704.8a51 51 0 0 1 35 14.3l169 167.2a49.7 49.7 0 0 1 0 70.9l-169 167.2a51 51 0 0 1-35 14.3M99.8 527.4h684l118.6-117.8-118.5-117.2h-684zm0 0"/><path d="M668.4 458.8H224.3a51.2 51.2 0 1 1 0-100.1h444.1a51.2 51.2 0 0 1 0 100m0 0"/></svg>