<svg xmlns="http://www.w3.org/2000/svg" width="200" height="200" class="icon" viewBox="0 0 1024 1024"><path d="m806.2 1022.9-4.7-.1H199.7c-40.4 0-63.6-18.6-76-34.2-27-34.1-24.9-80.4-23.7-93.2V499.5h64.5v400.7l-.3 2c-.8 7.1-.9 29 8.3 40.4 2 2.4 7.9 9.7 27.2 9.7H804l.7.1c2.2.1 22.5.5 35.3-12.7q12.8-13.3 12.8-43.3V499.2h64.4v397.2c0 50.5-18.3 79.7-33.8 95.3a110 110 0 0 1-77.3 31.2zm-674-490.3h-99c-13.4 0-25.3-9-30.1-22.8a38 38 0 0 1 8.7-38.8L487.3 9.5a30 30 0 0 1 42.5-.2l482 457.8a37 37 0 0 1 9.3 38.5 33 33 0 0 1-29.4 23.3L886 532.2h-1c-17.3 0-31.6-15-32.1-34.2-.5-19.4 13.5-35.6 31.3-36.2l23-.7L509 82.8 118.1 462h14.1c17.8 0 32.3 15.7 32.3 35.2s-14.5 35.3-32.3 35.3zm268.5 455.3c-15 0-27.1-13.3-27.1-29.7V709.5a75 75 0 0 1 20.1-48.5c23-25.5 61.9-38.4 115.7-38.4 53 0 91.5 13.1 114.4 39a78 78 0 0 1 20.6 50.9v244.7c0 16.4-12.2 29.7-27.2 29.7S590 973.6 590 957.2V712.8c-.2-1.2-1.3-6.7-8-12.7-7.7-6.7-27.2-18-72.6-18-52.6 0-71.3 14.4-77 20.6a19 19 0 0 0-4.5 8v247.5c0 16.4-12.2 29.7-27.2 29.7"/></svg>