<svg xmlns="http://www.w3.org/2000/svg" width="200" height="200" class="icon" viewBox="0 0 1024 1024"><path d="M182.4 1019.2c-54.4 0-99.2-16-131.2-48-118.4-118.4-8-412.8 251.2-672 30.4-30.4 62.4-59.2 92.8-86.4A32.4 32.4 0 0 1 440 216a32.4 32.4 0 0 1-3.2 44.8 1405 1405 0 0 0-89.6 81.6C99.2 595.2 17.6 848 96 928s332.8-1.6 580.8-251.2c113.6-113.6 201.6-239.9 248-353.6C966.4 217.6 968 136 928 96c-43.2-43.2-166.4-43.2-291.2 32a30 30 0 0 1-43.2-11.2 30 30 0 0 1 11.2-43.2C744-11.2 902.4-20.8 974.3 51.2c59.3 59.2 64 164.8 11.3 296-49.6 121.6-142.4 256-262.4 376-188.8 187.2-396.8 296-540.8 296"/><path d="M843.2 1019.2c-144 0-352-108.8-540.8-297.6C43.2 464-67.2 168 51.2 51.2c118.4-118.4 412.8-8 672 251.2s368 553.6 251.2 672c-33.6 30.4-78.4 44.8-131.2 44.8M96 96c-80 80 1.6 332.8 251.2 580.8C595.2 924.8 848 1006.4 928 928c40-40 38.4-123.2-3.2-227.2-46.4-113.7-134.4-240-248.1-353.6C428.8 97.6 176 16 96 96"/></svg>