<svg xmlns="http://www.w3.org/2000/svg" width="200" height="200" class="icon" viewBox="0 0 1024 1024"><path d="M115.2 468.5c2.6 2.5 15.4 30.7 46 30.7 18 0 36-18 41-20.5l87-107.5c5.2-7.7 7.8-18 5.2-25.6a34 34 0 0 0-18-20.5c-5-2.5-7.6-2.5-12.7-2.5s-15.4 2.5-25.6 12.8l-35.9 41v-18c0-25.6 5.2-51.2 5.2-53.8v-5c7.6-36 23-64 30.7-74.3l2.5 2.5 5.2-7.6a239 239 0 0 1 97.2-79.4c20.5-7.7 41-12.8 61.5-18h2.5c28.2-2.5 38.4-23 35.9-40.9 0-12.8-5.1-28.1-15.4-28.1-17.9 0-35.8 0-53.7 5a287 287 0 0 0-143.4 74.3c-46 46.1-71.7 92.2-84.5 143.4a745 745 0 0 0-10.2 79.3v7.7l-43.5-56.3s-7.7-7.7-18-7.7c-7.6 0-15.3 2.6-23 12.8-23 23-10.2 41-10.2 41zm811.5 81.9c-2.5-5.1-17.9-30.7-46-30.7-18 0-35.9 17.9-41 20.5l-87 107.5c-2.6 2.5-10.3 15.3-5.2 25.6 2.6 10.2 7.7 15.3 18 20.5 5 2.5 7.6 2.5 12.7 2.5s15.4-2.5 25.6-12.8l38.4-46v20.4c0 18-2.5 33.3-5 51.2v2.6c0 2.5 0 5.1-2.6 7.7-12.8 48.6-38.4 92.1-53.8 99.8h-2.6c-28.1 33.3-58.8 56.3-69 56.3h-2.6c-25.6 10.3-46.1 12.8-71.7 18-28.2 2.5-38.4 20.4-35.9 35.8a34 34 0 0 0 33.3 33.3h18c10.2-2.6 20.4-2.6 33.2-7.7h5.1c7.7-2.6 12.8-2.6 12.8-5.1 56.4-18 105-51.2 146-105 41-56.3 64-117.8 64-181.8v-17.9l43.5 58.9s7.7 7.7 17.9 7.7c7.7 0 15.4-2.6 23-12.8 23-20.5 10.3-38.4 10.3-38.4zM893.4 41H645.1c-71.7 0-130.5 61.4-130.5 133v146c0 74.2 58.8 133.1 130.5 133.1h248.3c71.7 0 130.6-61.4 130.6-133.1V176.6C1024 102.4 965.1 41 893.4 41m53.8 281.6c0 30.7-23 56.3-53.8 56.3H645.1c-30.7 0-53.7-25.6-53.7-56.3v-146c0-30.7 23-56.3 53.7-56.3h248.3c30.8 0 53.8 25.6 53.8 56.3zM378.9 568.3H130.6C58.9 568.3 0 629.8 0 701.4v146c0 74.2 58.9 133 130.6 133h248.3c71.7 0 130.5-61.4 130.5-133v-146c0-74.2-58.8-133-130.5-133m0 335.4H130.6c-30.8 0-53.8-25.6-53.8-56.3v-146c0-30.7 23-56.3 53.8-56.3h248.3c30.7 0 53.7 25.6 53.7 56.3v146c0 30.7-23 56.3-53.7 56.3"/></svg>