<svg xmlns="http://www.w3.org/2000/svg" width="200" height="200" class="icon" viewBox="0 0 1024 1024"><path d="M870.4 12.8H153.6A141 141 0 0 0 12.8 153.6v716.8a141 141 0 0 0 140.8 140.8h504.3a38.4 38.4 0 0 0 0-76.8H153.6a64 64 0 0 1-64-64V153.6a64 64 0 0 1 64-64h716.8a64 64 0 0 1 64 64v716.8a64 64 0 0 1-64 64h-11.5a38.4 38.4 0 0 0 0 76.8h11.5a141 141 0 0 0 140.8-140.8V153.6A141 141 0 0 0 870.4 12.8"/><path d="M243.6 294.4h389.8a38.4 38.4 0 0 0 0-76.8H243.6a38.4 38.4 0 0 0 0 76.8M730 473.6H242.8a38.4 38.4 0 0 0 0 76.8H730a38.4 38.4 0 0 0 0-76.8m-486.4 256a38.4 38.4 0 0 0 0 76.8h193a38.4 38.4 0 0 0 0-76.8zm541.5-512h-4c-21.1 0-36.3 17.2-36.3 38.4s19.2 38.4 40.4 38.4a38.4 38.4 0 1 0-.1-76.8"/></svg>