<svg xmlns="http://www.w3.org/2000/svg" width="200" height="200" class="icon" viewBox="0 0 1024 1024"><path d="M358.2 0H111.1C49.8 0 0 49.8 0 111v247.2c0 61.3 49.8 111.1 111 111.1h247.2c61.3 0 111.1-49.8 111.1-111V111C469.3 49.8 419.5 0 358.3 0m37 358.2a37 37 0 0 1-37 37H111.1a37 37 0 0 1-37-37V111.1a37 37 0 0 1 37-37h247.1a37 37 0 0 1 37 37zm-37 196.5H111.1C49.8 554.7 0 604.5 0 665.7V913c0 61.3 49.8 111 111 111h247.2c61.3 0 111.1-49.7 111.1-111V665.8c0-61.3-49.8-111.1-111-111.1m37 358.2a37 37 0 0 1-37 37H111.1a37 37 0 0 1-37-37V665.8a37 37 0 0 1 37-37h247.1a37 37 0 0 1 37 37zM913 0H665.8c-61.3 0-111.1 49.8-111.1 111v247.2c0 61.3 49.8 111.1 111 111.1H913c61.3 0 111-49.8 111-111V111C1024 49.8 974.3 0 913 0m37 358.2a37 37 0 0 1-37 37H665.8a37 37 0 0 1-37-37V111.1a37 37 0 0 1 37-37h247.1a37 37 0 0 1 37 37zm-37 196.5H665.8c-61.3 0-111.1 49.8-111.1 111V913c0 61.3 49.8 111.1 111 111.1H913c61.3 0 111-49.8 111-111V665.7c0-61.3-49.7-111.1-111-111.1m37 358.2a37 37 0 0 1-37 37H665.8a37 37 0 0 1-37-37V665.8a37 37 0 0 1 37-37h247.1a37 37 0 0 1 37 37zm0 0"/></svg>