<svg xmlns="http://www.w3.org/2000/svg" width="200" height="200" class="icon" viewBox="0 0 1024 1024"><path d="M338.5 54c-17 0-28.5 11.4-28.5 28.5v187.7L54 14.2c-11.3-11.4-28.4-11.4-39.8 0S2.8 42.7 14.2 54l256 256H82.5c-17 0-28.5 11.4-28.5 28.5s11.4 28.4 28.5 28.4h258.8c17.1 0 28.5-11.3 28.5-28.4v-256c-2.9-17-14.2-28.5-31.3-28.5m0 600.2h-256c-17 0-28.5 11.4-28.5 28.5S65.4 711 82.5 711h187.7l-256 256a27.5 27.5 0 0 0 0 39.8c5.7 5.7 14.2 8.6 20 8.6s14.2-2.9 19.8-8.6l256-256v187.8c0 17 11.4 28.4 28.5 28.4s28.4-11.4 28.4-28.4v-256a28.5 28.5 0 0 0-28.4-28.5M682.7 367h258.8c17 0 28.5-11.3 28.5-28.4S958.6 310 941.5 310H753.8l256-256c11.4-11.3 11.4-28.4 0-39.8s-28.5-11.4-39.8 0l-256 256V82.5c0-17-11.4-28.5-28.5-28.5s-28.4 11.4-28.4 28.5v258.8c-2.9 14.3 11.3 25.6 25.6 25.6m68.2 344.2h187.8c17 0 28.4-11.4 28.4-28.4s-11.4-28.5-28.4-28.5h-256c-17.1 0-28.5 11.4-28.5 28.5v258.8c0 17 11.4 28.5 28.5 28.5s28.4-11.4 28.4-28.5V753.8l256 256c5.7 5.7 14.2 8.5 20 8.5s14.1-2.8 19.8-8.5a27.5 27.5 0 0 0 0-39.8z"/></svg>