<svg t="1756519965624" class="icon" viewBox="0 0 1024 1024" version="1.1" xmlns="http://www.w3.org/2000/svg" p-id="16621" width="200" height="200"><path d="M338.488889 54.044444c-17.066667 0-28.444444 11.377778-28.444445 28.444445v187.733333l-256-256C42.666667 2.844444 25.6 2.844444 14.222222 14.222222s-11.377778 28.444444 0 39.822222l256 256H82.488889c-17.066667 0-28.444444 11.377778-28.444445 28.444445s11.377778 28.444444 28.444445 28.444444H341.333333c17.066667 0 28.444444-11.377778 28.444445-28.444444v-256c-2.844444-17.066667-14.222222-28.444444-31.288889-28.444445zM338.488889 654.222222h-256c-17.066667 0-28.444444 11.377778-28.444445 28.444445s11.377778 28.444444 28.444445 28.444444h187.733333l-256 256c-11.377778 11.377778-11.377778 28.444444 0 39.822222 5.688889 5.688889 14.222222 8.533333 19.911111 8.533334s14.222222-2.844444 19.911111-8.533334l256-256V938.666667c0 17.066667 11.377778 28.444444 28.444445 28.444444s28.444444-11.377778 28.444444-28.444444v-256c0-14.222222-11.377778-28.444444-28.444444-28.444445zM682.666667 366.933333h258.844444c17.066667 0 28.444444-11.377778 28.444445-28.444444s-11.377778-28.444444-28.444445-28.444445h-187.733333l256-256c11.377778-11.377778 11.377778-28.444444 0-39.822222s-28.444444-11.377778-39.822222 0l-256 256V82.488889c0-17.066667-11.377778-28.444444-28.444445-28.444445s-28.444444 11.377778-28.444444 28.444445V341.333333c-2.844444 14.222222 11.377778 25.6 25.6 25.6zM750.933333 711.111111H938.666667c17.066667 0 28.444444-11.377778 28.444444-28.444444s-11.377778-28.444444-28.444444-28.444445h-256c-17.066667 0-28.444444 11.377778-28.444445 28.444445v258.844444c0 17.066667 11.377778 28.444444 28.444445 28.444445s28.444444-11.377778 28.444444-28.444445v-187.733333l256 256c5.688889 5.688889 14.222222 8.533333 19.911111 8.533333s14.222222-2.844444 19.911111-8.533333c11.377778-11.377778 11.377778-28.444444 0-39.822222l-256-258.844445z" p-id="16622"></path></svg>
