<svg xmlns="http://www.w3.org/2000/svg" width="200" height="200" class="icon" viewBox="0 0 1024 1024"><path d="m937.1 832.2-80.5-139.6V469.4A342 342 0 0 0 640.2 152a137 137 0 0 0 2-23.3 129.2 129.2 0 0 0-258-.7 140 140 0 0 0 2.3 23.3 342 342 0 0 0-218.8 318.1v222.2L87 831.3a43 43 0 0 0 0 42.6 43 43 0 0 0 37.2 21.1h190.1a216.2 216.2 0 0 0 395.7 0H900a43 43 0 0 0 37.2-21.1 43 43 0 0 0-.2-41.7M469.1 128a43 43 0 0 1 86.1 0v2.6a359 359 0 0 0-85.6 0zm43 810.6a129 129 0 0 1-96-42.6h192.2a129 129 0 0 1-96.1 42.6m215.3-128H198l49.6-86.6a40 40 0 0 0 5.5-23.3V469.4a258.3 258.3 0 0 1 516.7 0v230.4a40 40 0 0 0 5.6 23.3l51 87.5z"/></svg>