<svg xmlns="http://www.w3.org/2000/svg" width="200" height="200" class="icon" viewBox="0 0 1024 1024"><path d="M927 294.5h-56.7q-3.3.2-6.4 1.3v-240a48.3 48.3 0 0 0-48.3-48.3H235a48.3 48.3 0 0 0-48.3 48.3v238.7h-63a48.3 48.3 0 0 0-48.4 48.3v632.9a48.3 48.3 0 0 0 48.3 48.3H927a48.3 48.3 0 0 0 48.3-48.3v-633a48.5 48.5 0 0 0-48.3-48.2m-803 286 186.1 155.7L200 846.3a24.2 24.2 0 1 0 34.3 34.3L510 604.8c8.1-8 22.7-8 30.8 0l275.7 275.8a24 24 0 0 0 34.3 0 24.4 24.4 0 0 0 0-34.3l-110.1-110 186-155.8v366c0 16-13 28.9-29 28.9H153c-16 0-29-13-29-29zm691.4 30-109.2 91.2L559.5 555a48.3 48.3 0 0 0-68.2 0L344.5 701.7l-109.2-91.3V325.7q1.2-3.2 1.4-7-.2-3.5-1.4-6.8v-227c0-16 13-29 29-29h522.2c16 0 29 13 29 29zm-628.6-40.7-55.5-46.4q-3.4-2.7-7.4-4V372c0-16 13-29 29-29h34zM870.3 343h27.5c16 0 29 13 29 29v147.5q-4 1.4-7.4 4L864 570V341.7c2 .6 4 1.3 6.3 1.3"/><path d="M308.6 253h78.5a48.3 48.3 0 0 0 48.3-48.3v-78.5a48.3 48.3 0 0 0-48.3-48.3h-78.5a48.3 48.3 0 0 0-48.3 48.3v78.5a48.4 48.4 0 0 0 48.3 48.3m-9.5-67.7v-39.5c0-16 13-29 29-29h39.5c16 0 29 13 29 29v39.5c0 16-13 29-29 29h-39.5c-16 0-29-13-29-29m-20.5 138.3a24 24 0 0 0 24.2 24.2h445a24.2 24.2 0 0 0 0-48.4h-445a24.3 24.3 0 0 0-24.2 24.2m483.9 56H288.3a24.2 24.2 0 0 0 0 48.4h474.3a24.2 24.2 0 1 0-.1-48.4"/></svg>