<svg xmlns="http://www.w3.org/2000/svg" width="200" height="200" class="icon" viewBox="0 0 1024 1024"><path d="M507.9 177.2c42.5 0 78.9-36.4 78.9-78.9s-34.4-78.8-78.9-78.8c-42.5 0-78.8 36.3-78.8 78.8s35.8 78.9 78.8 78.9M224.3 759.3c0-44.5-36.4-83-83-83s-83 36.4-83 83c0 47.1 36.4 83.5 83 83.5s83-38.4 83-83.5m656.9-83a83 83 0 0 0-83 83c0 47.1 36.4 83.5 83 83.5s82.9-36.4 82.9-83.5a82 82 0 0 0-83-83M646.8 87.7c2 6.1 2 14.8 2 21.5 0 21.5-4 40.4-12.8 59.9C789.5 222.2 900.6 365 900.6 538q0 35.4-6.1 70.7c27.6 2 55.3 12.8 76.8 29.7 6.1-31.8 10.7-64 10.7-98.3C977 324 838.7 144.9 646.7 87.6"/><path d="M343.6 599.6a179 179 0 0 1 100.3-228.4 166 166 0 0 1 64-12.8 178 178 0 0 1 142.9 74.8l-81 40.4a87 87 0 0 0-93.7-21.5 86 86 0 0 0-49 111.1 87 87 0 0 0 112.5 49.2A85 85 0 0 0 590.8 510l81-40.5c34.2 89.6-8.8 192-100.4 228.4-89.1 35.8-191.5-8.7-227.8-98.3M768 825.3a386 386 0 0 1-260.1 100.4c-42.5 0-83-6.1-121.9-19.5l66.1-149.5c19.5 4.1 36.3 6.7 57.3 6.7a225 225 0 0 0 211-309.2 225 225 0 0 0-294.4-128 220 220 0 0 0-93.7 70.6l-151-66A367 367 0 0 1 384 168.4a134 134 0 0 1-12.8-59.9c0-8.7 0-14.8 2-21.5A468 468 0 0 0 40.4 535c0 34.3 4.1 66 10.8 98.3a138 138 0 0 1 76.8-29.7 390 390 0 0 1-6.1-70.6c0-62 14.8-117.3 38.4-170.5l149.5 66a220 220 0 0 0-12.8 190c21.5 55.3 64 98.3 115.2 121.3l-64 147.5a433 433 0 0 1-98.3-64c-17 21.5-38.4 40.4-66 49.1 85.4 81 198.6 130.1 324 130.1s241.2-49.2 324.1-130a146 146 0 0 1-64-47.2"/></svg>