<svg xmlns="http://www.w3.org/2000/svg" width="200" height="200" class="icon" viewBox="0 0 1024 1024"><path d="M514.3.2q6.8.6 13.3 2.8L954 158.2a38 38 0 0 1 27 37V482c0 341.3-372.7 491.3-464 537.9a38 38 0 0 1-34 0C391.4 973.4 42.6 825 42.6 484v-288a39.5 39.5 0 0 1 26.2-36.8L501.6 3A54 54 0 0 1 514.3.2m0 85.6-393 138V484c0 279 282 402.6 378.6 456 97.8-53.4 399.9-174.7 399.9-456.7V222.8zM512 213.5a170.6 170.6 0 0 1 42.7 335.9v176a42.7 42.7 0 0 1-85.4 0v-176A170.7 170.7 0 0 1 512 213.5m0 85.3a85.3 85.3 0 1 0 0 170.6 85.3 85.3 0 0 0 0-170.6"/></svg>