<svg xmlns="http://www.w3.org/2000/svg" width="200" height="200" class="icon" viewBox="0 0 1024 1024"><path d="M257 738.4H96a32 32 0 0 1-32-32v-447a32 32 0 0 1 32-32h160V130a64 64 0 0 1 64-64h384a64 64 0 0 1 64 64v97.4h160a32 32 0 0 1 32 32v406c0 17.7-14.3 73-32 73H768V928a32 32 0 0 1-32 32H289a32 32 0 0 1-32-32zm511-64h120a8 8 0 0 0 8-8v-367a8 8 0 0 0-8-8H136a8 8 0 0 0-8 8v367a8 8 0 0 0 8 8h121V503a16 16 0 0 1 16-16h479a16 16 0 0 1 16 16zM320 130v97h384v-97zm9 421a8 8 0 0 0-8 8v329a8 8 0 0 0 8 8h367a8 8 0 0 0 8-8V559a8 8 0 0 0-8-8zm-79-193h524a32 32 0 0 1 0 64H250a32 32 0 0 1 0-64m119 266h279a32 32 0 0 1 0 64H369a32 32 0 0 1 0-64m7 135h279a32 32 0 0 1 0 64H376a32 32 0 0 1 0-64"/></svg>