<svg xmlns="http://www.w3.org/2000/svg" width="200" height="200" class="icon" viewBox="0 0 1024 1024"><path d="M975.7 1024H48.3A48.3 48.3 0 0 1 0 975.7V48.3A48.3 48.3 0 0 1 48.3 0h927.4a48.3 48.3 0 0 1 48.3 48.3v927.4a48.3 48.3 0 0 1-48.3 48.3M96.6 927.4h830.8V96.6H96.6zm393.1-128.6H251.4a48 48 0 0 1-48.3-48.2V447.4a48.3 48.3 0 0 1 48.2-48.3h238.4a48 48 0 0 1 48.3 48.2v303.2a48 48 0 0 1-48.1 48.3zm-190-96.6h141.8V495.7H299.7zm478.8 96.6H657.2a48.3 48.3 0 0 1 0-96.6h121.3a48.3 48.3 0 0 1 0 96.6m0-247.2H657.2a48.3 48.3 0 0 1 0-96.6h121.3a48.3 48.3 0 0 1 0 96.6m0-247.2H251.3a48.3 48.3 0 0 1 0-96.5h527.1a48.3 48.3 0 0 1 0 96.5z"/></svg>