<svg t="1757747118563" class="icon" viewBox="0 0 1024 1024" version="1.1" xmlns="http://www.w3.org/2000/svg" p-id="5491" id="mx_n_1757747118563" width="200" height="200"><path d="M232.727273 153.6c-11.636364 23.272727-20.945455 46.545455-25.6 69.818182-27.927273 107.054545-2.327273 221.090909 69.818182 335.127273 2.327273 4.654545 4.654545 11.636364 6.981818 20.945454 18.618182 60.509091-13.963636 123.345455-72.145455 141.963636-11.636364 2.327273-20.945455 4.654545-32.581818 4.654546-46.545455 0-86.109091-27.927273-107.054545-72.145455 0-2.327273 0-2.327273-2.327273-4.654545-2.327273-4.654545-2.327273-11.636364-4.654546-16.290909 0-2.327273 0-4.654545-2.327272-4.654546-27.927273-146.618182-6.981818-269.963636 60.509091-367.709091 32.581818-44.218182 69.818182-79.127273 109.381818-107.054545M460.8 0z m0 0S-90.763636 90.763636 13.963636 640c2.327273 4.654545 6.981818 27.927273 11.636364 32.581818 27.927273 62.836364 88.436364 102.4 153.6 102.4 16.290909 0 32.581818-2.327273 46.545455-6.981818 88.436364-27.927273 134.981818-118.690909 107.054545-204.8-4.654545-11.636364-6.981818-20.945455-11.636364-30.254545-153.6-239.709091-48.872727-432.872727 139.636364-532.945455z" p-id="5492"></path><path d="M758.690909 630.690909c27.927273 0 53.527273 9.309091 74.472727 27.927273 41.890909 37.236364 51.2 100.072727 18.618182 148.945454-2.327273 4.654545-6.981818 6.981818-9.309091 11.636364-4.654545 4.654545-6.981818 9.309091-9.309091 9.309091-104.727273 93.090909-211.781818 139.636364-323.490909 139.636364-60.509091 0-116.363636-13.963636-167.563636-34.909091 134.981818-11.636364 246.690909-97.745455 318.836364-246.690909 4.654545-4.654545 9.309091-11.636364 13.963636-18.618182 20.945455-23.272727 51.2-37.236364 83.781818-37.236364m0-51.2c-44.218182 0-90.763636 18.618182-121.018182 55.854546l-20.945454 27.927272c-74.472727 158.254545-188.509091 221.090909-307.2 221.090909-74.472727 0-151.272727-25.6-221.090909-67.490909 0 0 174.545455 204.8 421.236363 204.8 109.381818 0 230.4-39.563636 358.4-155.927272 4.654545-4.654545 20.945455-20.945455 23.272728-25.6 48.872727-67.490909 39.563636-162.909091-23.272728-218.763637-32.581818-27.927273-69.818182-41.890909-109.381818-41.890909z" p-id="5493"></path><path d="M591.127273 69.818182h6.981818c4.654545 0 9.309091 2.327273 16.290909 2.327273 4.654545 0 9.309091 2.327273 11.636364 2.327272 144.290909 44.218182 246.690909 123.345455 300.218181 230.4 23.272727 46.545455 34.909091 95.418182 41.89091 141.963637-11.636364-16.290909-23.272727-32.581818-37.236364-46.545455-69.818182-69.818182-169.890909-107.054545-286.254546-107.054545-16.290909 0-34.909091 0-53.527272 2.327272-6.981818 0-13.963636-2.327273-20.945455-2.327272-62.836364-13.963636-102.4-72.145455-90.763636-132.654546 11.636364-53.527273 58.181818-90.763636 111.709091-90.763636m0-51.2c-76.8 0-144.290909 53.527273-160.581818 132.654545-18.618182 88.436364 41.890909 174.545455 130.327272 193.163637 11.636364 2.327273 20.945455 4.654545 32.581818 4.654545 18.618182-2.327273 34.909091-2.327273 51.2-2.327273 246.690909 0 351.418182 174.545455 349.09091 377.018182 2.327273-2.327273 181.527273-532.945455-353.745455-695.854545-4.654545-4.654545-27.927273-6.981818-34.909091-9.309091h-13.963636z" p-id="5494"></path></svg>