<svg t="1758515438629" class="icon" viewBox="0 0 1024 1024" version="1.1" xmlns="http://www.w3.org/2000/svg" p-id="7269" id="mx_n_1758515438629" width="200" height="200"><path d="M960.05765 1023.409484 829.608429 1023.409484c-35.201549 0-63.839591-28.638041-63.839591-63.839591L765.768839 63.839591c0-35.201549 28.638041-63.839591 63.839591-63.839591l130.449221 0c35.201549 0 63.839591 28.638041 63.839591 63.839591l0 895.730303C1023.897241 994.771442 995.259199 1023.409484 960.05765 1023.409484zM829.665286 959.569893l130.335507 0c0.01995-0.016957 0.0399-0.036907 0.056857-0.056857l0-895.616588c-0.016957-0.01995-0.036907-0.040897-0.056857-0.057855L829.665286 63.838593c-0.01995 0.016957-0.040897 0.037905-0.057855 0.057855l0 895.615591C829.624389 959.531988 829.645336 959.553933 829.665286 959.569893zM894.833538 198.256841c-17.628704 0-31.919795 14.291091-31.919795 31.919795s14.291091 31.919795 31.919795 31.919795c17.628704 0 31.919795-14.291091 31.919795-31.919795S912.462243 198.256841 894.833538 198.256841zM894.833538 327.363435c-17.628704 0-31.919795 14.291091-31.919795 31.919795s14.291091 31.919795 31.919795 31.919795c17.628704 0 31.919795-14.291091 31.919795-31.919795S912.462243 327.363435 894.833538 327.363435zM894.833538 452.957855c-17.628704 0-31.919795 14.291091-31.919795 31.919795 0 17.628704 14.291091 31.919795 31.919795 31.919795 17.628704 0 31.919795-14.291091 31.919795-31.919795C926.753334 467.247948 912.462243 452.957855 894.833538 452.957855zM638.213347 1023.409484 507.764126 1023.409484c-35.201549 0-63.839591-28.638041-63.839591-63.839591L443.924535 63.839591c0-35.201549 28.638041-63.839591 63.839591-63.839591l130.449221 0c35.201549 0 63.839591 28.638041 63.839591 63.839591l0 895.730303C702.052937 994.771442 673.414896 1023.409484 638.213347 1023.409484zM507.820983 959.569893l130.336504 0c0.01995-0.016957 0.0399-0.036907 0.056857-0.056857l0-895.616588c-0.016957-0.01995-0.036907-0.040897-0.056857-0.057855L507.820983 63.838593c-0.01995 0.016957-0.040897 0.036907-0.056857 0.057855l0 895.615591C507.780086 959.532986 507.801033 959.553933 507.820983 959.569893zM572.988238 198.256841c-17.628704 0-31.919795 14.291091-31.919795 31.919795s14.291091 31.919795 31.919795 31.919795 31.919795-14.291091 31.919795-31.919795S590.616942 198.256841 572.988238 198.256841zM572.988238 327.363435c-17.628704 0-31.919795 14.291091-31.919795 31.919795s14.291091 31.919795 31.919795 31.919795 31.919795-14.291091 31.919795-31.919795S590.616942 327.363435 572.988238 327.363435zM572.988238 452.957855c-17.628704 0-31.919795 14.291091-31.919795 31.919795 0 17.628704 14.291091 31.919795 31.919795 31.919795s31.919795-14.291091 31.919795-31.919795C604.908033 467.247948 590.616942 452.957855 572.988238 452.957855zM188.857441 1024c-5.177989 0-10.358971-0.637398-15.399306-1.893243l-124.780465-31.110828c-34.155178-8.5166-55.014765-43.23237-46.499162-77.387549l214.487059-860.262423c7.104149-28.492407 32.594101-48.393402 61.987245-48.393402 5.177989 0 10.358971 0.637398 15.399306 1.893243l124.780465 31.110828c34.155178 8.515603 55.014765 43.23237 46.499162 77.387549l-214.487059 860.261425C243.740537 1004.100003 218.250585 1024 188.857441 1024zM64.176726 929.064544l124.667748 31.083896c0.02394-0.01197 0.049875-0.026932 0.070822-0.042892l214.460127-860.149706c-0.010972-0.022942-0.025935-0.048877-0.041895-0.068827l-124.711638-31.094868c0.01995 0.008977-0.001995 0.028927-0.025935 0.050872L64.134831 928.995717C64.146801 929.019657 64.161763 929.044594 64.176726 929.064544zM308.862904 213.23321c-16.942429-4.224385-34.101314 6.085708-38.325699 23.028137-4.224385 16.942429 6.085708 34.101314 23.028137 38.325699 16.942429 4.224385 34.101314-6.085708 38.325699-23.028137C336.115427 234.61648 325.805333 217.457595 308.862904 213.23321zM277.926637 337.312437c-16.942429-4.224385-34.101314 6.085708-38.325699 23.028137-4.224385 16.942429 6.085708 34.101314 23.028137 38.325699 16.942429 4.224385 34.101314-6.085708 38.325699-23.028137C305.17916 358.695707 294.869066 341.536822 277.926637 337.312437zM247.832255 458.016145c-16.942429-4.224385-34.101314 6.085708-38.325699 23.028137-4.224385 16.942429 6.085708 34.101314 23.028137 38.325699 16.942429 4.224385 34.101314-6.085708 38.325699-23.028137C275.084778 479.399415 264.774684 462.24053 247.832255 458.016145z" p-id="7270"></path></svg>