<svg xmlns="http://www.w3.org/2000/svg" width="200" height="200" class="icon" viewBox="0 0 1137 1024"><path d="M556.7 250.7c-42 0-76.1 33.5-76.1 74.6a75.5 75.5 0 0 0 76 74.7c42 0 76-33.5 76-74.7a75.5 75.5 0 0 0-76-74.6zM900.5 1024H238.3a47 47 0 0 1-47.3-46.3 47 47 0 0 1 47.3-46.4h662.1c26 0 47.3 20.8 47.3 46.4a47 47 0 0 1-47.3 46.3zM94.2 186.2v467c0 24.7 10 48.4 27.8 65.9a96 96 0 0 0 67 27.3h759.3a96 96 0 0 0 67-27.3 92 92 0 0 0 27.8-65.8V186.2c0-24.7-10-48.4-27.8-65.8a96 96 0 0 0-67-27.3H189a96 96 0 0 0-67 27.3 92 92 0 0 0-27.7 65.8m853 650.2H189.4C84.8 836.4 0 753 0 650.2V186.6C0 83.9 84.8.6 189.4.6h757.8c104.7 0 189.4 83.3 189.4 186.1v463.6c0 102.8-84.7 186.1-189.4 186.1m-471-396.3a138 138 0 0 1-55.7-154 141 141 0 0 1 131.3-100 142 142 0 0 1 138 91 138 138 0 0 1-45 157.4c85.5 29.2 146.8 105.9 146.8 195.5 0 11.4-6.4 29.5-38 31.7-31.4 2.1-42.6-20.3-42.6-31.7 0-92.3-74.9-126.2-143-126.2-68.2 0-142.3 34-142.3 126.2 0 11.4-9.2 31.7-41.3 31.7s-40-20.3-40-31.7c0-84.3 54.1-157.1 131.7-189.9z"/></svg>