<svg t="1756633047188" class="icon" viewBox="0 0 1137 1024" version="1.1" xmlns="http://www.w3.org/2000/svg" p-id="48547" id="mx_n_1756633047189" width="200" height="200"><path d="M556.65685 250.708915c-41.98393 0-76.060318 33.5075-76.060318 74.638098 0 41.187487 34.133276 74.694987 76.003429 74.694987 41.927041 0 76.003429-33.5075 76.003429-74.694987 0-41.130598-34.133276-74.638098-76.003429-74.638098z m343.835871 773.23249H238.25027a46.819478 46.819478 0 0 1-47.217699-46.364368c0-25.599957 21.105743-46.421256 47.217699-46.421256h662.185563c26.055068 0 47.217699 20.821299 47.217699 46.421256 0 25.599957-21.162631 46.364367-47.217699 46.364368zM94.207843 186.197023v467.056999c0 24.689737 9.955539 48.355475 27.761731 65.820335 17.749304 17.46486 41.813264 27.306621 66.958111 27.306621H948.336197a95.573174 95.573174 0 0 0 66.958111-27.306621c17.749304-17.46486 27.761732-41.130598 27.761731-65.820335v-467.056999c0-24.689737-10.012428-48.355475-27.761731-65.820335a95.573174 95.573174 0 0 0-66.958111-27.306621H188.870796a95.573174 95.573174 0 0 0-66.901222 27.306621 92.273624 92.273624 0 0 0-27.761731 65.820335z m852.990578 650.238916H189.439684C84.764303 836.37905 0 752.980078 0 650.238916V186.595245C0 83.854082 84.764303 0.568888 189.439684 0.568888h757.758737c104.675381 0 189.439684 83.342083 189.439685 186.140134v463.586783c0 102.798051-84.764303 186.140134-189.439685 186.140134zM476.159206 440.091711a138.125992 138.125992 0 0 1-55.694129-153.941077A141.425542 141.425542 0 0 1 551.764414 186.026357a141.880652 141.880652 0 0 1 137.955325 91.135848 137.898437 137.898437 0 0 1-44.828369 157.297515c85.446969 29.24084 146.659311 105.926935 146.659311 195.583674 0 11.377759-6.371545 29.411507-37.887937 31.63017-31.459503 2.161774-42.666596-20.309299-42.666596-31.63017 0-92.330513-74.865653-126.293123-143.018428-126.293122-68.152775 0-142.278874 34.019499-142.278874 126.293122 0 11.377759-9.215985 31.63017-41.301264 31.63017-32.142169 0-39.935933-20.309299-39.935934-31.63017 0-84.366082 54.044354-157.183738 131.64067-189.894794h0.056888z" p-id="48548"></path></svg>
