<svg xmlns="http://www.w3.org/2000/svg" width="200" height="200" class="icon" viewBox="0 0 1024 1024"><path d="M512 0a512 512 0 1 1 0 1024A512 512 0 0 1 512 0M410.2 682.6c7.5 27.5 6.7 53.2-1 76.4l-2.8 7.7a143 143 0 0 1-27 42c-29.8 32.5-71.3 44.7-89.2 34.4-19.2-11.2-9.6-57 25-93.5 37.1-39.1 90.4-64.4 90.4-64.4zm423-463.4c-23.2-91-174-121-316.7-70.2-85 30.2-176.9 77.6-243 139.4-78.6 73.5-91.1 137.5-86 164.2 18.3 94.3 147.5 156 200.7 201.8v.3C372.5 662.3 258 719.9 231 779.5c-28.8 62.7 4.5 107.5 26.2 113.2 67.2 18.6 136.3-15.3 173.5-70.4 35.8-53.7 32.6-122.8 17.2-156.8 21.2-5.7 46.1-8.3 78.1-4.4 89.6 10.2 107.5 66.5 103.7 89.6a62 62 0 0 1-28.8 40.3c-6.4 3.8-8.3 5.1-7.7 7.7.7 3.8 3.9 3.8 9 3.2 7-1.3 46.7-19.2 48.6-62.8 2-55-50.5-116.4-144-115.2-38.4.7-62.7 3.9-80 11a15 15 0 0 0-4.5-4.6c-57.6-62-164.4-105.6-160-188.1 1.3-30.1 12.2-109.5 204.8-205.5 158.1-78.7 284.2-57 306-9 31.3 68.6-67.2 196-231.7 214.5-62.7 7-95.4-17.3-103.7-26.3-9-9.6-10.2-10.2-13.4-8.3-5.2 2.6-2 10.9 0 16 5 12.8 25 35.2 59.5 46.7 30 9.6 103.7 15.4 192-19.2C775 412.7 852.4 306 830 216.3z"/></svg>