<svg xmlns="http://www.w3.org/2000/svg" width="200" height="200" class="icon" viewBox="0 0 1024 1024"><path d="M433.8 949.3a44 44 0 0 0-32.6-26.6 43 43 0 0 0-25.8 2.5 44 44 0 0 0-24.2 24.2q-1.7 4-2.5 8.4a43 43 0 0 0 2.5 25.8 44 44 0 0 0 24.2 24.2q4 1.7 8.4 2.5a43 43 0 0 0 25.8-2.5 44 44 0 0 0 24.2-24.2q1.7-4 2.5-8.4a43 43 0 0 0-2.5-25.9m-89.3-226.1a44 44 0 0 0-32.6-26.6 43 43 0 0 0-25.8 2.5 44 44 0 0 0-20.1 16.4 44 44 0 0 0-6.6 33.5 48 48 0 0 0 6.6 16.1 45 45 0 0 0 68.8 6.8 46 46 0 0 0 9.7-14.5q1.7-4 2.5-8.4a43 43 0 0 0-2.5-25.8M86 690.1a44 44 0 0 0-24.2-24.2q-4-1.7-8.4-2.5a43 43 0 0 0-25.8 2.5 44 44 0 0 0-24.2 24.2q-1.7 4-2.5 8.4a43 43 0 0 0 2.5 25.8 44 44 0 0 0 24.2 24.2q4 1.7 8.4 2.5a43 43 0 0 0 25.8-2.5A44 44 0 0 0 86 724.3q1.7-4 2.5-8.4a43 43 0 0 0-2.5-25.8m934.7 0a44 44 0 0 0-24.2-24.2q-4-1.7-8.4-2.5a43 43 0 0 0-25.8 2.5 44 44 0 0 0-24.2 24.2q-1.7 4-2.5 8.4a43 43 0 0 0 2.5 25.8 44 44 0 0 0 24.2 24.2q4 1.7 8.4 2.5a43 43 0 0 0 25.8-2.5 44 44 0 0 0 24.2-24.2q1.7-4 2.5-8.4a43 43 0 0 0-2.5-25.8m-271 75a44 44 0 0 0 6.6-33.5 48 48 0 0 0-6.6-16.1 45 45 0 0 0-62-12.3 40 40 0 0 0-12.3 12.3 44 44 0 0 0-6.6 33.5 48 48 0 0 0 6.6 16.1q2.4 3.6 5.5 6.8a46 46 0 0 0 14.5 9.7q4 1.7 8.4 2.5a43 43 0 0 0 25.8-2.5 44 44 0 0 0 20.1-16.5m-171.3 2q-.3-3.2-1-6.5t-1.6-6.3q-1-3.1-2.2-6.1a64 64 0 0 0-19.3-25.9l-5.2-3.9-5.6-3.4a64 64 0 0 0-12-5q-3.2-1-6.3-1.6l-6.5-1a71 71 0 0 0-13 0q-3.2.3-6.5 1-3.1.6-6.3 1.6t-6.1 2.2a64 64 0 0 0-25.9 19.3 64 64 0 0 0-12.3 22.8q-1 3.2-1.6 6.3c-.6 3.1-.7 4.3-1 6.5a71 71 0 0 0 0 13q.3 3.3 1 6.5c.7 3.2 1 4.2 1.6 6.3q1 3.1 2.2 6.1a64 64 0 0 0 19.3 25.9l5.2 3.9 5.6 3.4a64 64 0 0 0 24.8 7.6 71 71 0 0 0 13 0q3.3-.3 6.5-1t6.3-1.6q3.1-1 6.1-2.2a64 64 0 0 0 25.9-19.3l3.9-5.2 3.4-5.6a64 64 0 0 0 5-12q1-3.2 1.6-6.3l1-6.5q.3-3.2.3-6.5t-.3-6.5M283.5 850q-.6-3.2-1.6-6.3t-2.2-6.1a64 64 0 0 0-19.3-25.9l-5.2-3.9-5.6-3.4a64 64 0 0 0-12-5q-3.1-1-6.3-1.6l-6.5-1a71 71 0 0 0-13 0q-3.2.3-6.5 1-3.1.6-6.3 1.6t-6.1 2.2a64 64 0 0 0-25.9 19.3l-3.9 5.2-3.4 5.6a64 64 0 0 0-5 12q-1 3.2-1.6 6.3c-.6 3.1-.7 4.3-1 6.5a71 71 0 0 0 0 13q.3 3.3 1 6.5c.7 3.2 1 4.2 1.6 6.3q1 3.1 2.2 6.1a64 64 0 0 0 19.3 25.9l5.2 3.9 5.6 3.4a64 64 0 0 0 24.8 7.6 71 71 0 0 0 13 0q3.3-.3 6.5-1 3.1-.6 6.3-1.6t6.1-2.2a64 64 0 0 0 25.9-19.3l3.9-5.2 3.4-5.6a64 64 0 0 0 5-12q1-3.2 1.6-6.3l1-6.5a71 71 0 0 0 0-13q-.3-3.3-1-6.5m589.2 0q-.6-3.2-1.6-6.3t-2.2-6.1a64 64 0 0 0-19.3-25.9l-5.2-3.9-5.6-3.4a64 64 0 0 0-12-5q-3.1-1-6.3-1.6c-3.2-.6-4.3-.7-6.5-1a71 71 0 0 0-13 0q-3.2.3-6.5 1t-6.3 1.6q-3.1 1-6.1 2.2a64 64 0 0 0-25.9 19.3l-3.9 5.2-3.4 5.6a64 64 0 0 0-5 12q-1 3.2-1.6 6.3l-1 6.5a71 71 0 0 0 0 13q.3 3.3 1 6.5t1.6 6.3q1 3.1 2.2 6.1a64 64 0 0 0 19.3 25.9l5.2 3.9 5.6 3.4a64 64 0 0 0 24.8 7.6 71 71 0 0 0 13 0q3.3-.3 6.5-1 3.1-.6 6.3-1.6t6.1-2.2a64 64 0 0 0 25.9-19.3l3.9-5.2 3.4-5.6a64 64 0 0 0 5-12q1-3.2 1.6-6.3c.6-3.1.7-4.3 1-6.5a71 71 0 0 0 0-13zm-208.1 99.3a44 44 0 0 0-24.1-24.1q-4-1.7-8.4-2.5a43 43 0 0 0-25.8 2.5 44 44 0 0 0-24.2 24.2q-1.7 4-2.5 8.4a43 43 0 0 0 2.5 25.8 44 44 0 0 0 24.2 24.2q4 1.7 8.4 2.5a43 43 0 0 0 25.8-2.5 44 44 0 0 0 26.6-32.6 43 43 0 0 0-2.5-25.9M433.8 40.5a44 44 0 0 0-24.2-24.2q-4-1.7-8.4-2.5a43 43 0 0 0-25.8 2.5 44 44 0 0 0-24.2 24.2q-1.7 4-2.5 8.4a43 43 0 0 0 2.5 25.8 44 44 0 0 0 24.2 24.2q4 1.7 8.4 2.5a43 43 0 0 0 25.8-2.5 44 44 0 0 0 24.2-24.2q1.7-4 2.5-8.4a43 43 0 0 0-2.5-25.8m-89.3 226.1a44 44 0 0 0-24.2-24.2q-4-1.7-8.4-2.5a43 43 0 0 0-25.8 2.5 44 44 0 0 0-24.2 24.2q-1.7 4-2.5 8.4a43 43 0 0 0 2.5 25.8 44 44 0 0 0 24.2 24.2q4 1.7 8.4 2.5a43 43 0 0 0 25.8-2.5 44 44 0 0 0 24.2-24.2q1.7-4 2.5-8.4a43 43 0 0 0-2.5-25.8M86 299.7a44 44 0 0 0-24.2-24.2q-4-1.7-8.4-2.5a43 43 0 0 0-25.8 2.5 44 44 0 0 0-24.2 24.2 41 41 0 0 0-3.3 17.1 43 43 0 0 0 3.4 17.1 44 44 0 0 0 24.2 24.2q4 1.7 8.4 2.5a43 43 0 0 0 25.8-2.5 44 44 0 0 0 24.2-24.2q1.7-4 2.5-8.4a43 43 0 0 0-2.6-25.8m852.2 34.2a44 44 0 0 0 24.2 24.2q4 1.7 8.4 2.5a43 43 0 0 0 25.8-2.5 44 44 0 0 0 24.2-24.2q1.7-4 2.5-8.4a43 43 0 0 0-2.5-25.8 44 44 0 0 0-24.2-24.2q-4-1.7-8.4-2.5a43 43 0 0 0-25.8 2.5 44 44 0 0 0-24.2 24.2q-1.7 4-2.5 8.4a43 43 0 0 0 2.5 25.8m-269.4-41.5a48 48 0 0 0 6.6 16.1q2.4 3.6 5.5 6.8a46 46 0 0 0 14.5 9.7q4 1.7 8.4 2.5a43 43 0 0 0 25.8-2.5 44 44 0 0 0 24.2-24.2q1.7-4 2.5-8.4a43 43 0 0 0-2.5-25.8 44 44 0 0 0-24.2-24.2q-4-1.7-8.4-2.5a43 43 0 0 0-25.8 2.5 44 44 0 0 0-26.6 32.6 43 43 0 0 0 0 17.4m-221.7-29.1q.6 3.2 1.6 6.3t2.2 6.1a64 64 0 0 0 19.3 25.9l5.2 3.9 5.6 3.4a64 64 0 0 0 24.8 7.6 71 71 0 0 0 13 0q3.3-.3 6.5-1t6.3-1.6 6.1-2.2a64 64 0 0 0 25.9-19.3l3.9-5.2 3.4-5.6a64 64 0 0 0 5-12q1-3.1 1.6-6.3l1-6.5a71 71 0 0 0 0-13q-.3-3.2-1-6.5-.6-3.1-1.6-6.3t-2.2-6.1a64 64 0 0 0-19.3-25.9l-5.2-3.9-5.6-3.4a64 64 0 0 0-12-5q-3.2-1-6.3-1.6l-6.5-1a71 71 0 0 0-13 0q-3.2.3-6.5 1-3.1.7-6.3 1.6t-6.1 2.2a64 64 0 0 0-25.9 19.3l-3.9 5.2-3.4 5.6a64 64 0 0 0-5 12q-1 3.1-1.6 6.3l-1 6.5a71 71 0 0 0 0 13zm0 281.7q.6 3.2 1.6 6.3t2.2 6.1a64 64 0 0 0 19.3 25.9l5.2 3.9 5.6 3.4a64 64 0 0 0 24.8 7.6 71 71 0 0 0 13 0q3.3-.3 6.5-1t6.3-1.6q3.1-1 6.1-2.2a64 64 0 0 0 25.9-19.3l3.9-5.2 3.4-5.6a64 64 0 0 0 5-12q1-3.2 1.6-6.3l1-6.5a71 71 0 0 0 0-13q-.3-3.2-1-6.5t-1.6-6.3q-1-3.1-2.2-6.1a64 64 0 0 0-19.3-25.9l-5.2-3.9-5.6-3.4a64 64 0 0 0-12-5q-3.2-1-6.3-1.6l-6.5-1a71 71 0 0 0-13 0q-3.2.3-6.5 1-3.1.6-6.3 1.6t-6.1 2.2a64 64 0 0 0-25.9 19.3l-3.9 5.2-3.4 5.6a64 64 0 0 0-5 12q-1 3.2-1.6 6.3l-1 6.5a71 71 0 0 0 0 13zM153.2 174q.6 3.1 1.6 6.3t2.2 6.1a64 64 0 0 0 19.3 25.9l5.2 3.9 5.6 3.4a64 64 0 0 0 24.8 7.6 71 71 0 0 0 13 0q3.3-.3 6.5-1 3.1-.7 6.3-1.6t6.1-2.2a64 64 0 0 0 25.9-19.3l3.9-5.2 3.4-5.6a64 64 0 0 0 5-12q1-3.1 1.6-6.3l1-6.5a71 71 0 0 0 0-13q-.3-3.2-1-6.5-.6-3.1-1.6-6.3t-2.2-6.1a64 64 0 0 0-6.2-11.5q-1.9-2.7-3.9-5.2a100 100 0 0 0-14.4-13.1l-5.6-3.4a64 64 0 0 0-12-5q-3.1-1-6.3-1.6l-6.5-1a71 71 0 0 0-13 0q-3.2.3-6.5 1-3.1.7-6.3 1.6t-6.1 2.2a64 64 0 0 0-25.9 19.3l-3.9 5.2-3.4 5.6a64 64 0 0 0-5 12q-1 3.1-1.6 6.3l-1 6.5a71 71 0 0 0 0 13q.3 3.3 1 6.5m0 356.8q.6 3.2 1.6 6.3t2.2 6.1a64 64 0 0 0 19.3 25.9l5.2 3.9 5.6 3.4a64 64 0 0 0 24.8 7.6 71 71 0 0 0 13 0q3.3-.3 6.5-1 3.1-.6 6.3-1.6t6.1-2.2a64 64 0 0 0 25.9-19.3l3.9-5.2 3.4-5.6a64 64 0 0 0 5-12q1-3.2 1.6-6.3l1-6.5a71 71 0 0 0 0-13q-.3-3.2-1-6.5-.6-3.1-1.6-6.3t-2.2-6.1a64 64 0 0 0-19.3-25.9l-5.2-3.9-5.6-3.4a64 64 0 0 0-12-5q-3.1-1-6.3-1.6l-6.5-1a71 71 0 0 0-13 0q-3.2.3-6.5 1-3.1.6-6.3 1.6t-6.1 2.2a64 64 0 0 0-25.9 19.3l-3.9 5.2-3.4 5.6a64 64 0 0 0-5 12q-1 3.2-1.6 6.3l-1 6.5a71 71 0 0 0 0 13q.3 3.3 1 6.5m719.5-382.7q-.6-3.1-1.6-6.3t-2.2-6.1a64 64 0 0 0-19.3-25.9l-5.2-3.9-5.6-3.4a64 64 0 0 0-12-5q-3.1-1-6.3-1.6l-6.5-1a71 71 0 0 0-13 0q-3.2.3-6.5 1t-6.3 1.6q-3.1 1-6.1 2.2a64 64 0 0 0-25.9 19.3l-3.9 5.2-3.4 5.6a64 64 0 0 0-5 12q-1 3.1-1.6 6.3l-1 6.5a71 71 0 0 0 0 13q.3 3.3 1 6.5.6 3.1 1.6 6.3t2.2 6.1a64 64 0 0 0 19.3 25.9l5.2 3.9 5.6 3.4a64 64 0 0 0 24.8 7.6 71 71 0 0 0 13 0q3.3-.3 6.5-1 3.1-.7 6.3-1.6t6.1-2.2a64 64 0 0 0 25.9-19.3l3.9-5.2 3.4-5.6a64 64 0 0 0 5-12q1-3.1 1.6-6.3c.6-3.2.7-4.3 1-6.5a71 71 0 0 0 0-13zm0 356.8q-.6-3.1-1.6-6.3t-2.2-6.1a64 64 0 0 0-19.3-25.9l-5.2-3.9-5.6-3.4a64 64 0 0 0-12-5q-3.1-1-6.3-1.6l-6.5-1a71 71 0 0 0-13 0q-3.2.3-6.5 1t-6.3 1.6q-3.1 1-6.1 2.2a64 64 0 0 0-25.9 19.3l-3.9 5.2-3.4 5.6a64 64 0 0 0-5 12q-1 3.2-1.6 6.3l-1 6.5a71 71 0 0 0 0 13q.3 3.3 1 6.5t1.6 6.3q1 3.1 2.2 6.1a64 64 0 0 0 19.3 25.9l5.2 3.9 5.6 3.4a64 64 0 0 0 24.8 7.6 71 71 0 0 0 13 0q3.3-.3 6.5-1c3.2-.7 4.2-1 6.3-1.6q3.1-1 6.1-2.2a64 64 0 0 0 25.9-19.3l3.9-5.2 3.4-5.6a64 64 0 0 0 5-12q1-3.2 1.6-6.3l1-6.5a71 71 0 0 0 0-13zM582.1 74.7a44 44 0 0 0 24.2 24.2q4 1.7 8.4 2.5a43 43 0 0 0 25.8-2.5 44 44 0 0 0 26.6-32.6 43 43 0 0 0-2.5-25.8 44 44 0 0 0-16.4-20.1 44 44 0 0 0-33.5-6.6 48 48 0 0 0-16.1 6.6 45 45 0 0 0-16.5 54.3"/></svg>