<svg t="1757322704057" class="icon" viewBox="0 0 1024 1024" version="1.1" xmlns="http://www.w3.org/2000/svg" p-id="5477" id="mx_n_1757322704059" width="200" height="200"><path d="M433.8 949.3c-1.1-2.7-2.5-5.3-4.1-7.7-1.6-2.4-3.5-4.7-5.6-6.8-2.1-2.1-4.3-3.9-6.8-5.5-2.4-1.6-5-3-7.7-4.1-2.7-1.1-5.5-2-8.4-2.5-2.9-0.6-5.8-0.9-8.7-0.9-2.9 0-5.8 0.3-8.7 0.9-2.9 0.6-5.7 1.4-8.4 2.5s-5.3 2.5-7.7 4.1c-2.4 1.6-4.7 3.5-6.8 5.6-2.1 2.1-3.9 4.3-5.6 6.8-1.6 2.4-3 5-4.1 7.7-1.1 2.7-2 5.5-2.5 8.4-0.6 2.9-0.9 5.8-0.9 8.7 0 2.9 0.3 5.8 0.9 8.7 0.6 2.9 1.4 5.7 2.5 8.4s2.5 5.3 4.1 7.7c1.6 2.4 3.5 4.7 5.6 6.8 2.1 2.1 4.3 3.9 6.8 5.6 2.4 1.6 5 3 7.7 4.1 2.7 1.1 5.5 2 8.4 2.5 2.9 0.6 5.8 0.9 8.7 0.9 2.9 0 5.8-0.3 8.7-0.9 2.9-0.6 5.7-1.4 8.4-2.5s5.3-2.5 7.7-4.1c2.4-1.6 4.7-3.5 6.8-5.6 2.1-2.1 3.9-4.3 5.6-6.8 1.6-2.4 3-5 4.1-7.7 1.1-2.7 2-5.5 2.5-8.4 0.6-2.9 0.9-5.8 0.9-8.7 0-2.9-0.3-5.8-0.9-8.7-0.6-3-1.4-5.8-2.5-8.5zM344.5 723.2c-1.1-2.7-2.5-5.3-4.1-7.7-1.6-2.4-3.5-4.7-5.6-6.8-2.1-2.1-4.3-3.9-6.8-5.5-2.4-1.6-5-3-7.7-4.1-2.7-1.1-5.5-2-8.4-2.5-2.9-0.6-5.8-0.9-8.7-0.9-2.9 0-5.8 0.3-8.7 0.9-2.9 0.6-5.7 1.4-8.4 2.5s-5.3 2.5-7.7 4.1c-2.4 1.6-4.7 3.5-6.8 5.5-2.1 2.1-3.9 4.3-5.6 6.8-1.6 2.4-3 5-4.1 7.7-1.1 2.7-2 5.5-2.5 8.4-0.6 2.9-0.9 5.8-0.9 8.7 0 2.9 0.3 5.8 0.9 8.7 0.6 2.9 1.4 5.7 2.5 8.4s2.5 5.3 4.1 7.7c1.6 2.4 3.5 4.7 5.6 6.8 2.1 2.1 4.3 3.9 6.8 5.6 2.4 1.6 5 3 7.7 4.1 2.7 1.1 5.5 2 8.4 2.5 2.9 0.6 5.8 0.9 8.7 0.9 2.9 0 5.8-0.3 8.7-0.9 2.9-0.6 5.7-1.4 8.4-2.5s5.3-2.5 7.7-4.1c2.4-1.6 4.7-3.5 6.8-5.6 2.1-2.1 3.9-4.3 5.6-6.8 1.6-2.4 3-5 4.1-7.7 1.1-2.7 2-5.5 2.5-8.4 0.6-2.9 0.9-5.8 0.9-8.7 0-2.9-0.3-5.8-0.9-8.7-0.6-2.9-1.4-5.7-2.5-8.4zM86 690.1c-1.1-2.7-2.5-5.3-4.1-7.7-1.6-2.4-3.5-4.7-5.6-6.8-2.1-2.1-4.3-3.9-6.8-5.6-2.4-1.6-5-3-7.7-4.1-2.7-1.1-5.5-2-8.4-2.5-2.9-0.6-5.8-0.9-8.7-0.9-2.9 0-5.8 0.3-8.7 0.9-2.9 0.6-5.7 1.4-8.4 2.5s-5.3 2.5-7.7 4.1c-2.4 1.6-4.7 3.5-6.8 5.6-2.1 2.1-3.9 4.3-5.6 6.8-1.6 2.4-3 5-4.1 7.7-1.1 2.7-2 5.5-2.5 8.4-0.6 2.9-0.9 5.8-0.9 8.7s0.3 5.8 0.9 8.7c0.6 2.9 1.4 5.7 2.5 8.4s2.5 5.3 4.1 7.7c1.6 2.4 3.5 4.7 5.6 6.8 2.1 2.1 4.3 3.9 6.8 5.6 2.4 1.6 5 3 7.7 4.1 2.7 1.1 5.5 2 8.4 2.5 2.9 0.6 5.8 0.9 8.7 0.9 2.9 0 5.8-0.3 8.7-0.9 2.9-0.6 5.7-1.4 8.4-2.5s5.3-2.5 7.7-4.1c2.4-1.6 4.7-3.5 6.8-5.6 2.1-2.1 3.9-4.3 5.6-6.8 1.6-2.4 3-5 4.1-7.7 1.1-2.7 2-5.5 2.5-8.4 0.6-2.9 0.9-5.8 0.9-8.7s-0.3-5.8-0.9-8.7c-0.6-2.9-1.4-5.7-2.5-8.4zM1020.7 690.1c-1.1-2.7-2.5-5.3-4.1-7.7-1.6-2.4-3.5-4.7-5.6-6.8-2.1-2.1-4.3-3.9-6.8-5.6-2.4-1.6-5-3-7.7-4.1-2.7-1.1-5.5-2-8.4-2.5-2.9-0.6-5.8-0.9-8.7-0.9-2.9 0-5.8 0.3-8.7 0.9-2.9 0.6-5.7 1.4-8.4 2.5s-5.3 2.5-7.7 4.1c-2.4 1.6-4.7 3.5-6.8 5.6-2.1 2.1-3.9 4.3-5.6 6.8-1.6 2.4-3 5-4.1 7.7-1.1 2.7-2 5.5-2.5 8.4-0.6 2.9-0.9 5.8-0.9 8.7s0.3 5.8 0.9 8.7c0.6 2.9 1.4 5.7 2.5 8.4s2.5 5.3 4.1 7.7c1.6 2.4 3.5 4.7 5.6 6.8 2.1 2.1 4.3 3.9 6.8 5.6 2.4 1.6 5 3 7.7 4.1 2.7 1.1 5.5 2 8.4 2.5 2.9 0.6 5.8 0.9 8.7 0.9 2.9 0 5.8-0.3 8.7-0.9 2.9-0.6 5.7-1.4 8.4-2.5s5.3-2.5 7.7-4.1c2.4-1.6 4.7-3.5 6.8-5.6 2.1-2.1 3.9-4.3 5.6-6.8 1.6-2.4 3-5 4.1-7.7s2-5.5 2.5-8.4c0.6-2.9 0.9-5.8 0.9-8.7s-0.3-5.8-0.9-8.7c-0.5-2.9-1.4-5.7-2.5-8.4zM749.7 765.1c1.6-2.4 3-5 4.1-7.7 1.1-2.7 2-5.5 2.5-8.4 0.6-2.9 0.9-5.8 0.9-8.7 0-2.9-0.3-5.8-0.9-8.7-0.6-2.9-1.4-5.7-2.5-8.4s-2.5-5.3-4.1-7.7c-1.6-2.4-3.5-4.7-5.6-6.8-2.1-2.1-4.3-3.9-6.8-5.5-2.4-1.6-5-3-7.7-4.1-2.7-1.1-5.5-2-8.4-2.5-2.9-0.6-5.8-0.9-8.7-0.9-2.9 0-5.8 0.3-8.7 0.9s-5.7 1.4-8.4 2.5-5.3 2.5-7.7 4.1c-2.4 1.6-4.7 3.5-6.8 5.5-2.1 2.1-3.9 4.3-5.5 6.8-1.6 2.4-3 5-4.1 7.7-1.1 2.7-2 5.5-2.5 8.4-0.6 2.9-0.9 5.8-0.9 8.7 0 2.9 0.3 5.8 0.9 8.7 0.6 2.9 1.4 5.7 2.5 8.4s2.5 5.3 4.1 7.7c1.6 2.4 3.5 4.7 5.5 6.8 2.1 2.1 4.3 3.9 6.8 5.6 2.4 1.6 5 3 7.7 4.1 2.7 1.1 5.5 2 8.4 2.5 2.9 0.6 5.8 0.9 8.7 0.9 2.9 0 5.8-0.3 8.7-0.9 2.9-0.6 5.7-1.4 8.4-2.5s5.3-2.5 7.7-4.1c2.4-1.6 4.7-3.5 6.8-5.6 2.2-2.1 4-4.4 5.6-6.8zM578.4 767.1c-0.2-2.2-0.5-4.3-1-6.5-0.4-2.1-1-4.2-1.6-6.3-0.6-2.1-1.4-4.1-2.2-6.1-0.8-2-1.8-4-2.8-5.9-1-1.9-2.1-3.8-3.4-5.6-1.2-1.8-2.5-3.6-3.9-5.2-1.4-1.7-2.8-3.3-4.4-4.8-1.5-1.5-3.2-3-4.8-4.4-1.7-1.4-3.4-2.7-5.2-3.9-1.8-1.2-3.7-2.3-5.6-3.4-1.9-1-3.9-2-5.9-2.8-2-0.8-4.1-1.6-6.1-2.2-2.1-0.6-4.2-1.2-6.3-1.6-2.1-0.4-4.3-0.7-6.5-1a70.68 70.68 0 0 0-13 0c-2.2 0.2-4.3 0.5-6.5 1-2.1 0.4-4.2 1-6.3 1.6-2.1 0.6-4.1 1.4-6.1 2.2-2 0.8-4 1.8-5.9 2.8-1.9 1-3.8 2.1-5.6 3.4-1.8 1.2-3.6 2.5-5.2 3.9-1.7 1.4-3.3 2.8-4.8 4.4-1.5 1.5-3 3.1-4.4 4.8-1.4 1.7-2.7 3.4-3.9 5.2s-2.3 3.7-3.4 5.6c-1 1.9-2 3.9-2.8 5.9-0.8 2-1.6 4.1-2.2 6.1-0.6 2.1-1.2 4.2-1.6 6.3s-0.7 4.3-1 6.5a70.68 70.68 0 0 0 0 13c0.2 2.2 0.5 4.3 1 6.5s1 4.2 1.6 6.3c0.6 2.1 1.4 4.1 2.2 6.1 0.8 2 1.8 4 2.8 5.9 1 1.9 2.1 3.8 3.4 5.6 1.2 1.8 2.5 3.6 3.9 5.2 1.4 1.7 2.8 3.3 4.4 4.8 1.5 1.5 3.2 3 4.8 4.4 1.7 1.4 3.4 2.7 5.2 3.9 1.8 1.2 3.7 2.3 5.6 3.4 1.9 1 3.9 2 5.9 2.8 2 0.8 4.1 1.6 6.1 2.2 2.1 0.6 4.2 1.2 6.3 1.6 2.1 0.4 4.3 0.7 6.5 1a70.68 70.68 0 0 0 13 0c2.2-0.2 4.3-0.5 6.5-1 2.1-0.4 4.2-1 6.3-1.6 2.1-0.6 4.1-1.4 6.1-2.2 2-0.8 4-1.8 5.9-2.8 1.9-1 3.8-2.1 5.6-3.4 1.8-1.2 3.6-2.5 5.2-3.9 1.7-1.4 3.3-2.8 4.8-4.4 1.5-1.5 3-3.1 4.4-4.8 1.4-1.7 2.7-3.4 3.9-5.2 1.2-1.8 2.3-3.7 3.4-5.6 1-1.9 2-3.9 2.8-5.9 0.8-2 1.6-4.1 2.2-6.1 0.6-2.1 1.2-4.2 1.6-6.3 0.4-2.1 0.7-4.3 1-6.5 0.2-2.2 0.3-4.3 0.3-6.5 0.1-2.1-0.1-4.3-0.3-6.5zM283.5 850c-0.4-2.1-1-4.2-1.6-6.3-0.6-2.1-1.4-4.1-2.2-6.1-0.8-2-1.8-4-2.8-5.9-1-1.9-2.1-3.8-3.4-5.6-1.2-1.8-2.5-3.6-3.9-5.2-1.4-1.7-2.8-3.3-4.4-4.8-1.5-1.5-3.2-3-4.8-4.4-1.7-1.4-3.4-2.7-5.2-3.9-1.8-1.2-3.7-2.3-5.6-3.4-1.9-1-3.9-2-5.9-2.8-2-0.8-4.1-1.6-6.1-2.2-2.1-0.6-4.2-1.2-6.3-1.6-2.1-0.4-4.3-0.7-6.5-1a70.68 70.68 0 0 0-13 0c-2.2 0.2-4.3 0.5-6.5 1-2.1 0.4-4.2 1-6.3 1.6-2.1 0.6-4.1 1.4-6.1 2.2-2 0.8-4 1.8-5.9 2.8-1.9 1-3.8 2.1-5.6 3.4-1.8 1.2-3.6 2.5-5.2 3.9-1.7 1.4-3.3 2.8-4.8 4.4-1.5 1.5-3 3.1-4.4 4.8-1.4 1.7-2.7 3.4-3.9 5.2-1.2 1.8-2.3 3.7-3.4 5.6-1 1.9-2 3.9-2.8 5.9-0.8 2-1.6 4.1-2.2 6.1-0.6 2.1-1.2 4.2-1.6 6.3s-0.7 4.3-1 6.5a70.68 70.68 0 0 0 0 13c0.2 2.2 0.5 4.3 1 6.5s1 4.2 1.6 6.3c0.6 2.1 1.4 4.1 2.2 6.1 0.8 2 1.8 4 2.8 5.9 1 1.9 2.1 3.8 3.4 5.6 1.2 1.8 2.5 3.6 3.9 5.2 1.4 1.7 2.8 3.3 4.4 4.8 1.5 1.5 3.2 3 4.8 4.4 1.7 1.4 3.4 2.7 5.2 3.9 1.8 1.2 3.7 2.3 5.6 3.4 1.9 1 3.9 2 5.9 2.8 2 0.8 4.1 1.6 6.1 2.2 2.1 0.6 4.2 1.2 6.3 1.6 2.1 0.4 4.3 0.7 6.5 1a70.68 70.68 0 0 0 13 0c2.2-0.2 4.3-0.5 6.5-1 2.1-0.4 4.2-1 6.3-1.6 2.1-0.6 4.1-1.4 6.1-2.2 2-0.8 4-1.8 5.9-2.8 1.9-1 3.8-2.1 5.6-3.4 1.8-1.2 3.6-2.5 5.2-3.9 1.7-1.4 3.3-2.8 4.8-4.4 1.5-1.5 3-3.1 4.4-4.8 1.4-1.7 2.7-3.4 3.9-5.2 1.2-1.8 2.3-3.7 3.4-5.6 1-1.9 2-3.9 2.8-5.9 0.8-2 1.6-4.1 2.2-6.1 0.6-2.1 1.2-4.2 1.6-6.3 0.4-2.1 0.7-4.3 1-6.5a70.68 70.68 0 0 0 0-13c-0.2-2.2-0.5-4.4-1-6.5zM872.7 850c-0.4-2.1-1-4.2-1.6-6.3-0.6-2.1-1.4-4.1-2.2-6.1-0.8-2-1.8-4-2.8-5.9-1-1.9-2.1-3.8-3.4-5.6-1.2-1.8-2.5-3.6-3.9-5.2-1.4-1.7-2.8-3.3-4.4-4.8-1.5-1.5-3.2-3-4.8-4.4-1.7-1.4-3.4-2.7-5.2-3.9-1.8-1.2-3.7-2.3-5.6-3.4-1.9-1-3.9-2-5.9-2.8-2-0.8-4.1-1.6-6.1-2.2-2.1-0.6-4.2-1.2-6.3-1.6s-4.3-0.7-6.5-1a70.68 70.68 0 0 0-13 0c-2.2 0.2-4.3 0.5-6.5 1-2.1 0.4-4.2 1-6.3 1.6-2.1 0.6-4.1 1.4-6.1 2.2-2 0.8-4 1.8-5.9 2.8-1.9 1-3.8 2.1-5.6 3.4-1.8 1.2-3.6 2.5-5.2 3.9-1.7 1.4-3.3 2.8-4.8 4.4-1.5 1.5-3 3.1-4.4 4.8-1.4 1.7-2.7 3.4-3.9 5.2-1.2 1.8-2.3 3.7-3.4 5.6-1 1.9-2 3.9-2.8 5.9-0.8 2-1.6 4.1-2.2 6.1-0.6 2.1-1.2 4.2-1.6 6.3-0.4 2.1-0.7 4.3-1 6.5a70.68 70.68 0 0 0 0 13c0.2 2.2 0.5 4.3 1 6.5 0.4 2.1 1 4.2 1.6 6.3 0.6 2.1 1.4 4.1 2.2 6.1 0.8 2 1.8 4 2.8 5.9 1 1.9 2.1 3.8 3.4 5.6 1.2 1.8 2.5 3.6 3.9 5.2 1.4 1.7 2.8 3.3 4.4 4.8 1.5 1.5 3.2 3 4.8 4.4 1.7 1.4 3.4 2.7 5.2 3.9 1.8 1.2 3.7 2.3 5.6 3.4 1.9 1 3.9 2 5.9 2.8 2 0.8 4.1 1.6 6.1 2.2 2.1 0.6 4.2 1.2 6.3 1.6 2.1 0.4 4.3 0.7 6.5 1a70.68 70.68 0 0 0 13 0c2.2-0.2 4.3-0.5 6.5-1 2.1-0.4 4.2-1 6.3-1.6 2.1-0.6 4.1-1.4 6.1-2.2 2-0.8 4-1.8 5.9-2.8 1.9-1 3.8-2.1 5.6-3.4 1.8-1.2 3.6-2.5 5.2-3.9 1.7-1.4 3.3-2.8 4.8-4.4 1.5-1.5 3-3.1 4.4-4.8 1.4-1.7 2.7-3.4 3.9-5.2 1.2-1.8 2.3-3.7 3.4-5.6 1-1.9 2-3.9 2.8-5.9 0.8-2 1.6-4.1 2.2-6.1 0.6-2.1 1.2-4.2 1.6-6.3s0.7-4.3 1-6.5a70.68 70.68 0 0 0 0-13c-0.3-2.2-0.6-4.4-1-6.5zM664.6 949.3c-1.1-2.7-2.5-5.3-4.1-7.7-1.6-2.4-3.5-4.7-5.5-6.8-2.1-2.1-4.3-3.9-6.8-5.5-2.4-1.6-5-3-7.7-4.1-2.7-1.1-5.5-2-8.4-2.5-2.9-0.6-5.8-0.9-8.7-0.9-2.9 0-5.8 0.3-8.7 0.9-2.9 0.6-5.7 1.4-8.4 2.5s-5.3 2.5-7.7 4.1c-2.4 1.6-4.7 3.5-6.8 5.6-2.1 2.1-3.9 4.3-5.6 6.8-1.6 2.4-3 5-4.1 7.7-1.1 2.7-2 5.5-2.5 8.4-0.6 2.9-0.9 5.8-0.9 8.7 0 2.9 0.3 5.8 0.9 8.7 0.6 2.9 1.4 5.7 2.5 8.4s2.5 5.3 4.1 7.7c1.6 2.4 3.5 4.7 5.6 6.8 2.1 2.1 4.3 3.9 6.8 5.6 2.4 1.6 5 3 7.7 4.1 2.7 1.1 5.5 2 8.4 2.5 2.9 0.6 5.8 0.9 8.7 0.9 2.9 0 5.8-0.3 8.7-0.9 2.9-0.6 5.7-1.4 8.4-2.5s5.3-2.5 7.7-4.1c2.4-1.6 4.7-3.5 6.8-5.6 2.1-2.1 3.9-4.3 5.5-6.8 1.6-2.4 3-5 4.1-7.7 1.1-2.7 2-5.5 2.5-8.4 0.6-2.9 0.9-5.8 0.9-8.7 0-2.9-0.3-5.8-0.9-8.7s-1.4-5.8-2.5-8.5zM433.8 40.5c-1.1-2.7-2.5-5.3-4.1-7.7-1.6-2.4-3.5-4.7-5.6-6.8-2.1-2.1-4.3-3.9-6.8-5.6-2.4-1.6-5-3-7.7-4.1-2.7-1.1-5.5-2-8.4-2.5-2.9-0.6-5.8-0.9-8.7-0.9-2.9 0-5.8 0.3-8.7 0.9-2.9 0.6-5.7 1.4-8.4 2.5s-5.3 2.5-7.7 4.1c-2.4 1.6-4.7 3.5-6.8 5.6-2.1 2.1-3.9 4.3-5.6 6.8-1.6 2.4-3 5-4.1 7.7-1.1 2.7-2 5.5-2.5 8.4-0.6 2.9-0.9 5.8-0.9 8.7 0 2.9 0.3 5.8 0.9 8.7 0.6 2.9 1.4 5.7 2.5 8.4s2.5 5.3 4.1 7.7c1.6 2.4 3.5 4.7 5.6 6.8 2.1 2.1 4.3 3.9 6.8 5.6 2.4 1.6 5 3 7.7 4.1 2.7 1.1 5.5 2 8.4 2.5 2.9 0.6 5.8 0.9 8.7 0.9 2.9 0 5.8-0.3 8.7-0.9 2.9-0.6 5.7-1.4 8.4-2.5s5.3-2.5 7.7-4.1c2.4-1.6 4.7-3.5 6.8-5.6 2.1-2.1 3.9-4.3 5.6-6.8 1.6-2.4 3-5 4.1-7.7 1.1-2.7 2-5.5 2.5-8.4 0.6-2.9 0.9-5.8 0.9-8.7 0-2.9-0.3-5.8-0.9-8.7-0.6-2.9-1.4-5.7-2.5-8.4zM344.5 266.6c-1.1-2.7-2.5-5.3-4.1-7.7-1.6-2.4-3.5-4.7-5.6-6.8-2.1-2.1-4.3-3.9-6.8-5.6-2.4-1.6-5-3-7.7-4.1-2.7-1.1-5.5-2-8.4-2.5-2.9-0.6-5.8-0.9-8.7-0.9-2.9 0-5.8 0.3-8.7 0.9-2.9 0.6-5.7 1.4-8.4 2.5s-5.3 2.5-7.7 4.1c-2.4 1.6-4.7 3.5-6.8 5.6-2.1 2.1-3.9 4.3-5.6 6.8-1.6 2.4-3 5-4.1 7.7-1.1 2.7-2 5.5-2.5 8.4-0.6 2.9-0.9 5.8-0.9 8.7 0 2.9 0.3 5.8 0.9 8.7 0.6 2.9 1.4 5.7 2.5 8.4s2.5 5.3 4.1 7.7c1.6 2.4 3.5 4.7 5.6 6.8 2.1 2.1 4.3 3.9 6.8 5.6 2.4 1.6 5 3 7.7 4.1 2.7 1.1 5.5 2 8.4 2.5 2.9 0.6 5.8 0.9 8.7 0.9 2.9 0 5.8-0.3 8.7-0.9 2.9-0.6 5.7-1.4 8.4-2.5s5.3-2.5 7.7-4.1c2.4-1.6 4.7-3.5 6.8-5.6 2.1-2.1 3.9-4.3 5.6-6.8 1.6-2.4 3-5 4.1-7.7 1.1-2.7 2-5.5 2.5-8.4 0.6-2.9 0.9-5.8 0.9-8.7 0-2.9-0.3-5.8-0.9-8.7-0.6-2.9-1.4-5.7-2.5-8.4zM86 299.7c-1.1-2.7-2.5-5.3-4.1-7.7-1.6-2.4-3.5-4.7-5.6-6.8-2.1-2.1-4.3-3.9-6.8-5.6-2.4-1.6-5-3-7.7-4.1-2.7-1.1-5.5-2-8.4-2.5-2.9-0.6-5.8-0.9-8.7-0.9-2.9 0-5.8 0.3-8.7 0.9-2.9 0.6-5.7 1.4-8.4 2.5s-5.3 2.5-7.7 4.1c-2.4 1.6-4.7 3.5-6.8 5.6-2.1 2.1-3.9 4.3-5.6 6.8-1.6 2.4-3 5-4.1 7.7-1.1 2.7-2 5.5-2.5 8.4-0.5 2.9-0.8 5.8-0.8 8.7 0 2.9 0.3 5.8 0.9 8.7 0.6 2.9 1.4 5.7 2.5 8.4s2.5 5.3 4.1 7.7c1.6 2.4 3.5 4.7 5.6 6.8 2.1 2.1 4.3 3.9 6.8 5.6 2.4 1.6 5 3 7.7 4.1 2.7 1.1 5.5 2 8.4 2.5 2.9 0.6 5.8 0.9 8.7 0.9 2.9 0 5.8-0.3 8.7-0.9 2.9-0.6 5.7-1.4 8.4-2.5s5.3-2.5 7.7-4.1c2.4-1.6 4.7-3.5 6.8-5.6 2.1-2.1 3.9-4.3 5.6-6.8 1.6-2.4 3-5 4.1-7.7 1.1-2.7 2-5.5 2.5-8.4 0.6-2.9 0.9-5.8 0.9-8.7 0-2.9-0.3-5.8-0.9-8.7-0.7-2.9-1.5-5.7-2.6-8.4zM938.2 333.9c1.1 2.7 2.5 5.3 4.1 7.7 1.6 2.4 3.5 4.7 5.6 6.8 2.1 2.1 4.3 3.9 6.8 5.6 2.4 1.6 5 3 7.7 4.1 2.7 1.1 5.5 2 8.4 2.5 2.9 0.6 5.8 0.9 8.7 0.9 2.9 0 5.8-0.3 8.7-0.9 2.9-0.6 5.7-1.4 8.4-2.5s5.3-2.5 7.7-4.1c2.4-1.6 4.7-3.5 6.8-5.6 2.1-2.1 3.9-4.3 5.6-6.8 1.6-2.4 3-5 4.1-7.7 1.1-2.7 2-5.5 2.5-8.4 0.6-2.9 0.9-5.8 0.9-8.7 0-2.9-0.3-5.8-0.9-8.7-0.6-2.9-1.4-5.7-2.5-8.4s-2.5-5.3-4.1-7.7c-1.6-2.4-3.5-4.7-5.6-6.8-2.1-2.1-4.3-3.9-6.8-5.6-2.4-1.6-5-3-7.7-4.1-2.7-1.1-5.5-2-8.4-2.5-2.9-0.6-5.8-0.9-8.7-0.9-2.9 0-5.8 0.3-8.7 0.9-2.9 0.6-5.7 1.4-8.4 2.5s-5.3 2.5-7.7 4.1c-2.4 1.6-4.7 3.5-6.8 5.6-2.1 2.1-3.9 4.3-5.6 6.8-1.6 2.4-3 5-4.1 7.7-1.1 2.7-2 5.5-2.5 8.4-0.6 2.9-0.9 5.8-0.9 8.7 0 2.9 0.3 5.8 0.9 8.7 0.6 2.9 1.4 5.7 2.5 8.4zM668.8 292.4c0.6 2.9 1.4 5.7 2.5 8.4s2.5 5.3 4.1 7.7c1.6 2.4 3.5 4.7 5.5 6.8 2.1 2.1 4.3 3.9 6.8 5.6 2.4 1.6 5 3 7.7 4.1 2.7 1.1 5.5 2 8.4 2.5 2.9 0.6 5.8 0.9 8.7 0.9 2.9 0 5.8-0.3 8.7-0.9 2.9-0.6 5.7-1.4 8.4-2.5s5.3-2.5 7.7-4.1c2.4-1.6 4.7-3.5 6.8-5.6 2.1-2.1 3.9-4.3 5.6-6.8 1.6-2.4 3-5 4.1-7.7 1.1-2.7 2-5.5 2.5-8.4 0.6-2.9 0.9-5.8 0.9-8.7 0-2.9-0.3-5.8-0.9-8.7-0.6-2.9-1.4-5.7-2.5-8.4s-2.5-5.3-4.1-7.7c-1.6-2.4-3.5-4.7-5.6-6.8-2.1-2.1-4.3-3.9-6.8-5.6-2.4-1.6-5-3-7.7-4.1-2.7-1.1-5.5-2-8.4-2.5-2.9-0.6-5.8-0.9-8.7-0.9-2.9 0-5.8 0.3-8.7 0.9-2.9 0.6-5.7 1.4-8.4 2.5s-5.3 2.5-7.7 4.1c-2.4 1.6-4.7 3.5-6.8 5.6-2.1 2.1-3.9 4.3-5.5 6.8-1.6 2.4-3 5-4.1 7.7-1.1 2.7-2 5.5-2.5 8.4-0.6 2.9-0.9 5.8-0.9 8.7 0.1 2.9 0.4 5.8 0.9 8.7zM447.1 263.3c0.4 2.1 1 4.2 1.6 6.3 0.6 2.1 1.4 4.1 2.2 6.1 0.8 2 1.8 4 2.8 5.9 1 1.9 2.1 3.8 3.4 5.6 1.2 1.8 2.5 3.6 3.9 5.2 1.4 1.7 2.8 3.3 4.4 4.8 1.5 1.5 3.2 3 4.8 4.4 1.7 1.4 3.4 2.7 5.2 3.9 1.8 1.2 3.7 2.3 5.6 3.4 1.9 1 3.9 2 5.9 2.8 2 0.8 4.1 1.6 6.1 2.2 2.1 0.6 4.2 1.2 6.3 1.6 2.1 0.4 4.3 0.7 6.5 1a70.68 70.68 0 0 0 13 0c2.2-0.2 4.3-0.5 6.5-1 2.1-0.4 4.2-1 6.3-1.6 2.1-0.6 4.1-1.4 6.1-2.2 2-0.8 4-1.8 5.9-2.8 1.9-1 3.8-2.1 5.6-3.4 1.8-1.2 3.6-2.5 5.2-3.9 1.7-1.4 3.3-2.8 4.8-4.4 1.5-1.5 3-3.1 4.4-4.8 1.4-1.7 2.7-3.4 3.9-5.2 1.2-1.8 2.3-3.7 3.4-5.6 1-1.9 2-3.9 2.8-5.9 0.8-2 1.6-4.1 2.2-6.1 0.6-2.1 1.2-4.2 1.6-6.3 0.4-2.1 0.7-4.3 1-6.5a70.68 70.68 0 0 0 0-13c-0.2-2.2-0.5-4.3-1-6.5-0.4-2.1-1-4.2-1.6-6.3-0.6-2.1-1.4-4.1-2.2-6.1-0.8-2-1.8-4-2.8-5.9-1-1.9-2.1-3.8-3.4-5.6-1.2-1.8-2.5-3.6-3.9-5.2-1.4-1.7-2.8-3.3-4.4-4.8-1.5-1.5-3.2-3-4.8-4.4-1.7-1.4-3.4-2.7-5.2-3.9-1.8-1.2-3.7-2.3-5.6-3.4-1.9-1-3.9-2-5.9-2.8-2-0.8-4.1-1.6-6.1-2.2-2.1-0.6-4.2-1.2-6.3-1.6-2.1-0.4-4.3-0.7-6.5-1a70.68 70.68 0 0 0-13 0c-2.2 0.2-4.3 0.5-6.5 1-2.1 0.4-4.2 1-6.3 1.6-2.1 0.6-4.1 1.4-6.1 2.2-2 0.8-4 1.8-5.9 2.8-1.9 1-3.8 2.1-5.6 3.4-1.8 1.2-3.6 2.5-5.2 3.9-1.7 1.4-3.3 2.8-4.8 4.4-1.5 1.5-3 3.2-4.4 4.8-1.4 1.7-2.7 3.4-3.9 5.2-1.2 1.8-2.3 3.7-3.4 5.6-1 1.9-2 3.9-2.8 5.9-0.8 2-1.6 4.1-2.2 6.1-0.6 2.1-1.2 4.2-1.6 6.3-0.4 2.1-0.7 4.3-1 6.5a70.68 70.68 0 0 0 0 13c0.3 2.2 0.6 4.4 1 6.5zM447.1 545c0.4 2.1 1 4.2 1.6 6.3 0.6 2.1 1.4 4.1 2.2 6.1 0.8 2 1.8 4 2.8 5.9 1 1.9 2.1 3.8 3.4 5.6 1.2 1.8 2.5 3.6 3.9 5.2 1.4 1.7 2.8 3.3 4.4 4.8 1.5 1.5 3.2 3 4.8 4.4 1.7 1.4 3.4 2.7 5.2 3.9 1.8 1.2 3.7 2.3 5.6 3.4 1.9 1 3.9 2 5.9 2.8 2 0.8 4.1 1.6 6.1 2.2 2.1 0.6 4.2 1.2 6.3 1.6 2.1 0.4 4.3 0.7 6.5 1a70.68 70.68 0 0 0 13 0c2.2-0.2 4.3-0.5 6.5-1 2.1-0.4 4.2-1 6.3-1.6 2.1-0.6 4.1-1.4 6.1-2.2 2-0.8 4-1.8 5.9-2.8 1.9-1 3.8-2.1 5.6-3.4 1.8-1.2 3.6-2.5 5.2-3.9 1.7-1.4 3.3-2.8 4.8-4.4 1.5-1.5 3-3.2 4.4-4.8 1.4-1.7 2.7-3.4 3.9-5.2 1.2-1.8 2.3-3.7 3.4-5.6 1-1.9 2-3.9 2.8-5.9 0.8-2 1.6-4.1 2.2-6.1 0.6-2.1 1.2-4.2 1.6-6.3 0.4-2.1 0.7-4.3 1-6.5a70.68 70.68 0 0 0 0-13c-0.2-2.2-0.5-4.3-1-6.5-0.4-2.1-1-4.2-1.6-6.3-0.6-2.1-1.4-4.1-2.2-6.1-0.8-2-1.8-4-2.8-5.9-1-1.9-2.1-3.8-3.4-5.6-1.2-1.8-2.5-3.6-3.9-5.2-1.4-1.7-2.8-3.3-4.4-4.8-1.5-1.5-3.2-3-4.8-4.4-1.7-1.4-3.4-2.7-5.2-3.9-1.8-1.2-3.7-2.3-5.6-3.4-1.9-1-3.9-2-5.9-2.8-2-0.8-4.1-1.6-6.1-2.2-2.1-0.6-4.2-1.2-6.3-1.6-2.1-0.4-4.3-0.7-6.5-1a70.68 70.68 0 0 0-13 0c-2.2 0.2-4.3 0.5-6.5 1-2.1 0.4-4.2 1-6.3 1.6-2.1 0.6-4.1 1.4-6.1 2.2-2 0.8-4 1.8-5.9 2.8-1.9 1-3.8 2.1-5.6 3.4-1.8 1.2-3.6 2.5-5.2 3.9-1.7 1.4-3.3 2.8-4.8 4.4-1.5 1.5-3 3.2-4.4 4.8-1.4 1.7-2.7 3.4-3.9 5.2-1.2 1.8-2.3 3.7-3.4 5.6-1 1.9-2 3.9-2.8 5.9-0.8 2-1.6 4.1-2.2 6.1-0.6 2.1-1.2 4.2-1.6 6.3-0.4 2.1-0.7 4.3-1 6.5a70.68 70.68 0 0 0 0 13c0.3 2.3 0.6 4.4 1 6.5zM153.2 174c0.4 2.1 1 4.2 1.6 6.3 0.6 2.1 1.4 4.1 2.2 6.1 0.8 2 1.8 4 2.8 5.9 1 1.9 2.1 3.8 3.4 5.6 1.2 1.8 2.5 3.6 3.9 5.2 1.4 1.7 2.8 3.3 4.4 4.8 1.5 1.5 3.2 3 4.8 4.4 1.7 1.4 3.4 2.7 5.2 3.9 1.8 1.2 3.7 2.3 5.6 3.4 1.9 1 3.9 2 5.9 2.8 2 0.8 4.1 1.6 6.1 2.2 2.1 0.6 4.2 1.2 6.3 1.6 2.1 0.4 4.3 0.7 6.5 1a70.68 70.68 0 0 0 13 0c2.2-0.2 4.3-0.5 6.5-1 2.1-0.4 4.2-1 6.3-1.6 2.1-0.6 4.1-1.4 6.1-2.2 2-0.8 4-1.8 5.9-2.8 1.9-1 3.8-2.1 5.6-3.4 1.8-1.2 3.6-2.5 5.2-3.9 1.7-1.4 3.3-2.8 4.8-4.4 1.5-1.5 3-3.1 4.4-4.8 1.4-1.7 2.7-3.4 3.9-5.2 1.2-1.8 2.3-3.7 3.4-5.6 1-1.9 2-3.9 2.8-5.9 0.8-2 1.6-4.1 2.2-6.1 0.6-2.1 1.2-4.2 1.6-6.3 0.4-2.1 0.7-4.3 1-6.5a70.68 70.68 0 0 0 0-13c-0.2-2.2-0.5-4.3-1-6.5-0.4-2.1-1-4.2-1.6-6.3-0.6-2.1-1.4-4.1-2.2-6.1-0.8-2-1.8-4-2.8-5.9-1-1.9-2.1-3.8-3.4-5.6s-2.5-3.6-3.9-5.2c-1.4-1.7-2.8-3.3-4.4-4.8-1.5-1.5-3.2-3-4.8-4.4-1.7-1.4-3.4-2.7-5.2-3.9-1.8-1.2-3.7-2.3-5.6-3.4-1.9-1-3.9-2-5.9-2.8-2-0.8-4.1-1.6-6.1-2.2-2.1-0.6-4.2-1.2-6.3-1.6-2.1-0.4-4.3-0.7-6.5-1a70.68 70.68 0 0 0-13 0c-2.2 0.2-4.3 0.5-6.5 1-2.1 0.4-4.2 1-6.3 1.6-2.1 0.6-4.1 1.4-6.1 2.2-2 0.8-4 1.8-5.9 2.8-1.9 1-3.8 2.1-5.6 3.4-1.8 1.2-3.6 2.5-5.2 3.9-1.7 1.4-3.3 2.8-4.8 4.4-1.5 1.5-3 3.1-4.4 4.8-1.4 1.7-2.7 3.4-3.9 5.2-1.2 1.8-2.3 3.7-3.4 5.6-1 1.9-2 3.9-2.8 5.9-0.8 2-1.6 4.1-2.2 6.1-0.6 2.1-1.2 4.2-1.6 6.3-0.4 2.1-0.7 4.3-1 6.5a70.68 70.68 0 0 0 0 13c0.2 2.2 0.5 4.4 1 6.5zM153.2 530.8c0.4 2.1 1 4.2 1.6 6.3 0.6 2.1 1.4 4.1 2.2 6.1 0.8 2 1.8 4 2.8 5.9 1 1.9 2.1 3.8 3.4 5.6 1.2 1.8 2.5 3.6 3.9 5.2 1.4 1.7 2.8 3.3 4.4 4.8 1.5 1.5 3.2 3 4.8 4.4 1.7 1.4 3.4 2.7 5.2 3.9 1.8 1.2 3.7 2.3 5.6 3.4 1.9 1 3.9 2 5.9 2.8 2 0.8 4.1 1.6 6.1 2.2 2.1 0.6 4.2 1.2 6.3 1.6 2.1 0.4 4.3 0.7 6.5 1a70.68 70.68 0 0 0 13 0c2.2-0.2 4.3-0.5 6.5-1 2.1-0.4 4.2-1 6.3-1.6 2.1-0.6 4.1-1.4 6.1-2.2 2-0.8 4-1.8 5.9-2.8 1.9-1 3.8-2.1 5.6-3.4 1.8-1.2 3.6-2.5 5.2-3.9 1.7-1.4 3.3-2.8 4.8-4.4 1.5-1.5 3-3.2 4.4-4.8 1.4-1.7 2.7-3.4 3.9-5.2 1.2-1.8 2.3-3.7 3.4-5.6 1-1.9 2-3.9 2.8-5.9 0.8-2 1.6-4.1 2.2-6.1 0.6-2.1 1.2-4.2 1.6-6.3 0.4-2.1 0.7-4.3 1-6.5a70.68 70.68 0 0 0 0-13c-0.2-2.2-0.5-4.3-1-6.5-0.4-2.1-1-4.2-1.6-6.3-0.6-2.1-1.4-4.1-2.2-6.1-0.8-2-1.8-4-2.8-5.9-1-1.9-2.1-3.8-3.4-5.6-1.2-1.8-2.5-3.6-3.9-5.2-1.4-1.7-2.8-3.3-4.4-4.8-1.5-1.5-3.2-3-4.8-4.4-1.7-1.4-3.4-2.7-5.2-3.9-1.8-1.2-3.7-2.3-5.6-3.4-1.9-1-3.9-2-5.9-2.8-2-0.8-4.1-1.6-6.1-2.2-2.1-0.6-4.2-1.2-6.3-1.6-2.1-0.4-4.3-0.7-6.5-1a70.68 70.68 0 0 0-13 0c-2.2 0.2-4.3 0.5-6.5 1-2.1 0.4-4.2 1-6.3 1.6-2.1 0.6-4.1 1.4-6.1 2.2-2 0.8-4 1.8-5.9 2.8-1.9 1-3.8 2.1-5.6 3.4-1.8 1.2-3.6 2.5-5.2 3.9-1.7 1.4-3.3 2.8-4.8 4.4-1.5 1.5-3 3.2-4.4 4.8-1.4 1.7-2.7 3.4-3.9 5.2-1.2 1.8-2.3 3.7-3.4 5.6-1 1.9-2 3.9-2.8 5.9-0.8 2-1.6 4.1-2.2 6.1-0.6 2.1-1.2 4.2-1.6 6.3-0.4 2.1-0.7 4.3-1 6.5a70.68 70.68 0 0 0 0 13c0.2 2.2 0.5 4.4 1 6.5zM872.7 148.1c-0.4-2.1-1-4.2-1.6-6.3-0.6-2.1-1.4-4.1-2.2-6.1-0.8-2-1.8-4-2.8-5.9-1-1.9-2.1-3.8-3.4-5.6-1.2-1.8-2.5-3.6-3.9-5.2-1.4-1.7-2.8-3.3-4.4-4.8-1.5-1.5-3.2-3-4.8-4.4-1.7-1.4-3.4-2.7-5.2-3.9-1.8-1.2-3.7-2.3-5.6-3.4-1.9-1-3.9-2-5.9-2.8-2-0.8-4.1-1.6-6.1-2.2-2.1-0.6-4.2-1.2-6.3-1.6-2.1-0.4-4.3-0.7-6.5-1a70.68 70.68 0 0 0-13 0c-2.2 0.2-4.3 0.5-6.5 1-2.1 0.4-4.2 1-6.3 1.6-2.1 0.6-4.1 1.4-6.1 2.2-2 0.8-4 1.8-5.9 2.8-1.9 1-3.8 2.1-5.6 3.4-1.8 1.2-3.6 2.5-5.2 3.9-1.7 1.4-3.3 2.8-4.8 4.4-1.5 1.5-3 3.1-4.4 4.8-1.4 1.7-2.7 3.4-3.9 5.2-1.2 1.8-2.3 3.7-3.4 5.6-1 1.9-2 3.9-2.8 5.9-0.8 2-1.6 4.1-2.2 6.1-0.6 2.1-1.2 4.2-1.6 6.3-0.4 2.1-0.7 4.3-1 6.5a70.68 70.68 0 0 0 0 13c0.2 2.2 0.5 4.3 1 6.5 0.4 2.1 1 4.2 1.6 6.3 0.6 2.1 1.4 4.1 2.2 6.1 0.8 2 1.8 4 2.8 5.9 1 1.9 2.1 3.8 3.4 5.6 1.2 1.8 2.5 3.6 3.9 5.2 1.4 1.7 2.8 3.3 4.4 4.8 1.5 1.5 3.2 3 4.8 4.4 1.7 1.4 3.4 2.7 5.2 3.9 1.8 1.2 3.7 2.3 5.6 3.4 1.9 1 3.9 2 5.9 2.8 2 0.8 4.1 1.6 6.1 2.2 2.1 0.6 4.2 1.2 6.3 1.6 2.1 0.4 4.3 0.7 6.5 1a70.68 70.68 0 0 0 13 0c2.2-0.2 4.3-0.5 6.5-1 2.1-0.4 4.2-1 6.3-1.6 2.1-0.6 4.1-1.4 6.1-2.2 2-0.8 4-1.8 5.9-2.8 1.9-1 3.8-2.1 5.6-3.4 1.8-1.2 3.6-2.5 5.2-3.9 1.7-1.4 3.3-2.8 4.8-4.4 1.5-1.5 3-3.1 4.4-4.8 1.4-1.7 2.7-3.4 3.9-5.2 1.2-1.8 2.3-3.7 3.4-5.6 1-1.9 2-3.9 2.8-5.9 0.8-2 1.6-4.1 2.2-6.1 0.6-2.1 1.2-4.2 1.6-6.3s0.7-4.3 1-6.5a70.68 70.68 0 0 0 0-13c-0.3-2.2-0.6-4.4-1-6.5zM872.7 504.9c-0.4-2.1-1-4.2-1.6-6.3-0.6-2.1-1.4-4.1-2.2-6.1-0.8-2-1.8-4-2.8-5.9-1-1.9-2.1-3.8-3.4-5.6-1.2-1.8-2.5-3.6-3.9-5.2-1.4-1.7-2.8-3.3-4.4-4.8-1.5-1.5-3.2-3-4.8-4.4-1.7-1.4-3.4-2.7-5.2-3.9-1.8-1.2-3.7-2.3-5.6-3.4-1.9-1-3.9-2-5.9-2.8-2-0.8-4.1-1.6-6.1-2.2-2.1-0.6-4.2-1.2-6.3-1.6-2.1-0.4-4.3-0.7-6.5-1a70.68 70.68 0 0 0-13 0c-2.2 0.2-4.3 0.5-6.5 1-2.1 0.4-4.2 1-6.3 1.6-2.1 0.6-4.1 1.4-6.1 2.2-2 0.8-4 1.8-5.9 2.8-1.9 1-3.8 2.1-5.6 3.4-1.8 1.2-3.6 2.5-5.2 3.9-1.7 1.4-3.3 2.8-4.8 4.4-1.5 1.5-3 3.2-4.4 4.8-1.4 1.7-2.7 3.4-3.9 5.2-1.2 1.8-2.3 3.7-3.4 5.6-1 1.9-2 3.9-2.8 5.9-0.8 2-1.6 4.1-2.2 6.1-0.6 2.1-1.2 4.2-1.6 6.3-0.4 2.1-0.7 4.3-1 6.5a70.68 70.68 0 0 0 0 13c0.2 2.2 0.5 4.3 1 6.5 0.4 2.1 1 4.2 1.6 6.3 0.6 2.1 1.4 4.1 2.2 6.1 0.8 2 1.8 4 2.8 5.9 1 1.9 2.1 3.8 3.4 5.6 1.2 1.8 2.5 3.6 3.9 5.2 1.4 1.7 2.8 3.3 4.4 4.8 1.5 1.5 3.2 3 4.8 4.4 1.7 1.4 3.4 2.7 5.2 3.9 1.8 1.2 3.7 2.3 5.6 3.4 1.9 1 3.9 2 5.9 2.8 2 0.8 4.1 1.6 6.1 2.2 2.1 0.6 4.2 1.2 6.3 1.6 2.1 0.4 4.3 0.7 6.5 1a70.68 70.68 0 0 0 13 0c2.2-0.2 4.3-0.5 6.5-1s4.2-1 6.3-1.6c2.1-0.6 4.1-1.4 6.1-2.2 2-0.8 4-1.8 5.9-2.8 1.9-1 3.8-2.1 5.6-3.4 1.8-1.2 3.6-2.5 5.2-3.9 1.7-1.4 3.3-2.8 4.8-4.4 1.5-1.5 3-3.2 4.4-4.8 1.4-1.7 2.7-3.4 3.9-5.2 1.2-1.8 2.3-3.7 3.4-5.6 1-1.9 2-3.9 2.8-5.9 0.8-2 1.6-4.1 2.2-6.1 0.6-2.1 1.2-4.2 1.6-6.3 0.4-2.1 0.7-4.3 1-6.5a70.68 70.68 0 0 0 0-13c-0.3-2.3-0.6-4.4-1-6.5zM582.1 74.7c1.1 2.7 2.5 5.3 4.1 7.7 1.6 2.4 3.5 4.7 5.6 6.8 2.1 2.1 4.3 3.9 6.8 5.6 2.4 1.6 5 3 7.7 4.1 2.7 1.1 5.5 2 8.4 2.5 2.9 0.6 5.8 0.9 8.7 0.9 2.9 0 5.8-0.3 8.7-0.9 2.9-0.6 5.7-1.4 8.4-2.5s5.3-2.5 7.7-4.1c2.4-1.6 4.7-3.5 6.8-5.6 2.1-2.1 3.9-4.3 5.5-6.8 1.6-2.4 3-5 4.1-7.7 1.1-2.7 2-5.5 2.5-8.4 0.6-2.9 0.9-5.8 0.9-8.7 0-2.9-0.3-5.8-0.9-8.7-0.6-2.9-1.4-5.7-2.5-8.4s-2.5-5.3-4.1-7.7c-1.6-2.4-3.5-4.7-5.5-6.8-2.1-2.1-4.3-3.9-6.8-5.6-2.4-1.6-5-3-7.7-4.1-2.7-1.1-5.5-2-8.4-2.5-2.9-0.6-5.8-0.9-8.7-0.9-2.9 0-5.8 0.3-8.7 0.9-2.9 0.6-5.7 1.4-8.4 2.5s-5.3 2.5-7.7 4.1c-2.4 1.6-4.7 3.5-6.8 5.6-2.1 2.1-3.9 4.3-5.6 6.8-1.6 2.4-3 5-4.1 7.7-1.1 2.7-2 5.5-2.5 8.4-0.6 2.9-0.9 5.8-0.9 8.7 0 2.9 0.3 5.8 0.9 8.7 0.5 2.9 1.4 5.7 2.5 8.4z" p-id="5478"></path></svg>
