<svg t="1756520471151" class="icon" viewBox="0 0 1024 1024" version="1.1" xmlns="http://www.w3.org/2000/svg" p-id="20743" width="200" height="200"><path d="M985.395 917.163L780.05 711.799c60.297-75.502 93.133-168.482 93.133-266.513 0-114.38-44.544-221.883-125.423-302.745C666.914 61.66 559.394 17.135 445.013 17.135c-114.363 0-221.883 44.527-302.728 125.406-166.946 166.929-166.946 438.545-0.017 605.508 80.862 80.862 188.382 125.406 302.745 125.406 98.219 0 191.335-32.922 266.889-93.423l205.329 205.33c24.252 24.268 59.187 28.671 77.995 9.847 18.875-18.842 14.438-53.778-9.83-78.046zM193.4 696.883c-138.734-138.735-138.717-364.493 0.018-503.228A353.45 353.45 0 0 1 445.013 89.446c95.062 0 184.406 37 251.614 104.21 67.209 67.208 104.226 156.57 104.226 251.613S763.82 629.675 696.627 696.866a353.553 353.553 0 0 1-251.614 104.226A353.434 353.434 0 0 1 193.4 696.883z" p-id="20744"></path></svg>
