<svg xmlns="http://www.w3.org/2000/svg" width="200" height="200" class="icon" viewBox="0 0 1024 1024"><path d="M985.4 917.2 780.1 711.8a425 425 0 0 0 93-266.5 425 425 0 0 0-125.3-302.8A425 425 0 0 0 445 17.1a425 425 0 0 0-302.7 125.4 428.6 428.6 0 0 0 0 605.5A425 425 0 0 0 445 873.5c98.2 0 191.3-33 266.9-93.5l205.3 205.4c24.3 24.2 59.2 28.6 78 9.8 18.9-18.8 14.5-53.8-9.8-78m-792-220.3a356 356 0 0 1 0-503.2A354 354 0 0 1 445 89.4c95 0 184.4 37 251.6 104.3S801 350.2 801 445.3s-37 184.4-104.3 251.6A354 354 0 0 1 445 801a353 353 0 0 1-251.6-104.2"/></svg>