<svg xmlns="http://www.w3.org/2000/svg" width="200" height="200" class="icon" viewBox="0 0 1024 1024"><path d="M793.4 1020.1 512 865.1l-281.4 155a31 31 0 0 1-34-2.6 35 35 0 0 1-12.9-33L237.5 656 9.8 423.4a35 35 0 0 1-8.2-34.7 33 33 0 0 1 26-23l314.7-48L483.1 19A32 32 0 0 1 512 0c12.3 0 23.5 7.3 29 18.9l140.7 298.8 314.6 48a33 33 0 0 1 26.1 23 35 35 0 0 1-8.2 34.7L786.6 656l53.7 328.4a35 35 0 0 1-7.1 27.6 32 32 0 0 1-24.7 12q-7.9 0-15-3.9M676.2 829.7a18 18 0 0 0 23.1-4.7 20 20 0 0 0 4.2-16l-31.4-191.7L805 481.6a20 20 0 0 0 4.7-20.2 19 19 0 0 0-15.2-13.5L611 420l-82.1-174.2a19 19 0 0 0-16.9-11 19 19 0 0 0-16.9 11l-82 174.3-183.6 28a19 19 0 0 0-15.2 13.4 20 20 0 0 0 4.7 20.2L352 617.3 320.5 809a20 20 0 0 0 7.5 19.3 18 18 0 0 0 19.8 1.5L512 739.3z"/></svg>