<svg xmlns="http://www.w3.org/2000/svg" width="200" height="200" class="icon" viewBox="0 0 1024 1024"><path d="M677.8 780.7H356.5a31.4 31.4 0 0 1-31.4-31.3V506.9a31.5 31.5 0 0 1-36.3-5.9l-81.2-81.2a31.4 31.4 0 0 1 0-44.3l132.5-132.2h95.1a31 31 0 0 1 30 22.5 54 54 0 0 0 103.6 0 31 31 0 0 1 30-22.5H694l132.5 132.4a31.4 31.4 0 0 1 0 44.3l-81 81.2a31 31 0 0 1-22.2 9.2 32 32 0 0 1-14.1-3.3v242.3a31.3 31.3 0 0 1-31.4 31.3m-301.5-51.2h281.6V461.4a31.3 31.3 0 0 1 53.8-22.2l11.8 11.8 53.1-53.1-103.4-103.4h-60.5a105.2 105.2 0 0 1-191.1 0h-60.3L257.8 397.9l53.1 53 11.7-11.8a31.3 31.3 0 0 1 53.7 22.2zm222.6-435.2"/><path d="M888.3 1008.6H146A125.6 125.6 0 0 1 20.5 883.2V140.8A125.6 125.6 0 0 1 145.9 15.4h742.4a125.6 125.6 0 0 1 125.5 125.4v742.4a125.6 125.6 0 0 1-125.5 125.4M146 66.6a74.3 74.3 0 0 0-74.2 74.2v742.4a74.3 74.3 0 0 0 74.2 74.2h742.4a74.3 74.3 0 0 0 74.3-74.2V140.8a74.3 74.3 0 0 0-74.3-74.2z"/></svg>