<svg xmlns="http://www.w3.org/2000/svg" width="200" height="200" class="icon" viewBox="0 0 1024 1024"><path d="M486.6 1000.6c-48.7-6.2-73-10.4-93.5-16a493 493 0 0 1-216.7-122.4A485 485 0 0 1 34 582c-4.9-34.6-4.5-100 .8-136.8 3.3-23 15.5-71.8 23-91.7a494 494 0 0 1 200-248.1 502 502 0 0 1 169-66.9c33-6.5 48.3-8 87.4-8 28.2 0 38.5.7 61 4A491 491 0 0 1 858.8 178a459 459 0 0 1 85.9 121.8c31 63 46 119.9 49.7 188.7a479 479 0 0 1-141 367.4 488 488 0 0 1-293.8 141.7c-23 2.5-64 4.2-72.9 3m-141-54.8c0-.4-5.3-5.7-11.8-12a261 261 0 0 1-73.5-125.5c-3.9-14.8-4.3-19-5-52.1-.7-41.9.7-53.5 10.3-82.5 13-39.8 32.2-71 62.2-101a236 236 0 0 1 97.7-61.1c20.9-7 34.5-9.6 59.6-11.6 73.1-5.8 84.1-8.2 122.2-26.9A228 228 0 0 0 730 313.6c3.8-17.3 3.8-67 0-84.4-15.2-70.8-59.4-128.7-121.2-158.8-29.2-14.3-52.3-18.8-94.7-18.7-164.8.5-319.3 91.6-402.8 237.6a463 463 0 0 0-37.1 369.6 451 451 0 0 0 112.5 182.5A468 468 0 0 0 324 937.3c18.6 8.6 21.5 9.8 21.5 8.5m192-101a61 61 0 0 0 17.6-98.5 84 84 0 0 0-16.5-12.6c-7.7-4-9.6-4.3-26-4.4-16.7 0-18 .3-26 4.6a66 66 0 0 0-27.7 27.5 62 62 0 0 0 35 86.3 61 61 0 0 0 20.3 1.6 50 50 0 0 0 23.3-4.5m-24.8-615.6c-33.1 0-60 27.1-60 60.4a60 60 0 0 0 60 60.5c33 0 60-27.1 60-60.5a60 60 0 0 0-60-60.4"/></svg>