<svg xmlns="http://www.w3.org/2000/svg" width="200" height="200" class="icon" viewBox="0 0 1024 1024"><path d="M626.6 10.2a34 34 0 0 1 34.7-8.6 510 510 0 0 1 224.7 146 34 34 0 0 1 7.6 31.7q-6 22.7-6.1 47.4c0 74.7 43.6 140.6 108.2 167.4a34 34 0 0 1 20.5 25.8q7.8 45.1 7.8 92 0 63.7-14 124.4a34 34 0 0 1-22.7 24.8C916.5 684.1 867 753.3 867 833a190 190 0 0 0 3.8 37.8 34 34 0 0 1-9.7 31.3 506 506 0 0 1-199.8 120.3 34 34 0 0 1-34-8A165 165 0 0 0 512 967c-43.3 0-84 17-115.4 47.3a34 34 0 0 1-34 8 503 503 0 0 1-175.3-97.8 34 34 0 0 1-11.5-30.8q1.7-12 1.7-25c0-83.7-54.6-155.4-130.1-174.8a34 34 0 0 1-24.2-23.2A558.7 558.7 0 0 1 7.6 420a34 34 0 0 1 20.6-26c64.7-26.7 108.3-92.6 108.3-167.3q0-24.5-6-47.7a34 34 0 0 1 7.6-31.3A508 508 0 0 1 362.7 1.6a34 34 0 0 1 34 8 164.3 164.3 0 0 0 227.5 3zm32.1 62.6-9.5 7.5a232 232 0 0 1-277-2l-6.8-5.5-2.2.8a440 440 0 0 0-159.4 103.9l-3.2 3.3 2.1 13a258 258 0 0 1 1.6 16.4l.5 16.5c0 93-49.7 176.5-126.6 219l-5.8 3-2.5 22.6-1.2 20.3-.4 20.4c0 47.8 6.8 94.6 20.2 139l-4.7-17.3 5.4 2c88.7 33.7 151 119.7 156.2 219.3l.4 13.7q0 6-.3 11.7l-.2 3.3 3.5 2.9c34.8 26.9 73.2 48.3 113.9 63.5l2.6 1 7-5.5c36-27.1 79-43.4 124.5-46.4l15.2-.5c51.1 0 99.7 16.8 139.8 47l6.8 5.4 3.4-1.2c49.2-18.5 94.8-46 134.7-81.2l4-3.8-1.4-14.6-.6-17.3c0-100 57.5-188.6 143.4-227.4l5-2.1.8-3.8a488 488 0 0 0 7.3-65.5l.5-22.2a476 476 0 0 0-6.7-80.6l2.5 17.2-5.8-3a249 249 0 0 1-126.1-205l-.4-14q0-16.5 2.1-33l2-12.9-3-3.2a441 441 0 0 0-159.5-104zm-147.3 237a205.1 205.1 0 1 1 0 410.2 205.1 205.1 0 0 1 0-410.3m0 68.3a136.8 136.8 0 1 0 0 273.5 136.8 136.8 0 0 0 0-273.5"/></svg>