<svg t="1757749186780" class="icon" viewBox="0 0 1024 1024" version="1.1" xmlns="http://www.w3.org/2000/svg" p-id="10849" width="200" height="200"><path d="M540.445013 455.111111A142.392889 142.392889 0 0 1 398.222791 312.888889C398.222791 234.439111 461.995236 170.666667 540.445013 170.666667S682.667236 234.439111 682.667236 312.888889 618.894791 455.111111 540.445013 455.111111z m0-206.961778c-35.783111 0-64.853333 29.070222-64.853333 64.853334 0 35.783111 29.070222 64.853333 64.853333 64.853333 35.783111 0 64.853333-29.184 64.853334-64.853333 0-35.783111-29.070222-64.853333-64.853334-64.853334z" p-id="10850"></path><path d="M540.843236 796.444444l-29.752889-32.881777c-2.503111-2.787556-62.577778-69.12-127.032889-155.022223-88.405333-117.646222-139.491556-211.057778-151.893334-277.845333a258.048 258.048 0 0 1 6.997334-125.098667c12.060444-38.684444 32.654222-73.955556 61.610666-104.903111C360.334791 36.693333 447.829902 0 540.445013 0c48.241778 0 94.549333 9.671111 137.955556 28.672 41.358222 18.147556 78.506667 44.771556 107.349333 76.856889 27.875556 30.947556 47.388444 65.820444 58.197334 103.708444 11.491556 40.049778 12.401778 81.294222 2.958222 122.652445-15.189333 66.104889-66.616889 159.118222-153.088 276.366222a2547.939556 2547.939556 0 0 1-123.847111 154.794667L540.843236 796.444444zM540.331236 68.835556c-70.257778 0-136.533333 27.818667-181.76 76.344888-21.788444 23.324444-37.432889 49.891556-46.421334 79.075556a194.616889 194.616889 0 0 0-5.233778 94.947556c7.395556 39.082667 37.546667 114.346667 139.946667 250.709333 35.271111 46.990222 69.802667 88.576 93.127111 115.939555a2534.4 2534.4 0 0 0 91.136-116.167111c79.644444-108.032 128.568889-195.128889 141.596445-251.676444 13.824-60.643556-2.389333-120.661333-45.738667-168.96a240.128 240.128 0 0 0-81.635556-58.424889 259.754667 259.754667 0 0 0-105.016888-21.788444z" p-id="10851"></path><path d="M913.636124 1024H364.430791v-70.371556h549.091556a36.408889 36.408889 0 0 0 37.148444-35.612444c0-20.536889-17.521778-37.376-38.968889-37.376H132.55168a134.656 134.656 0 0 1-93.809778-37.376A123.448889 123.448889 0 0 1 0.000569 753.095111C0.114347 682.951111 59.733902 625.777778 132.836124 625.777778h114.176v70.371555H132.836124c-32.768 0-59.448889 25.6-59.562666 57.059556 0 15.189333 6.087111 29.468444 17.294222 40.220444 11.264 10.808889 26.168889 16.839111 41.927111 16.839111h779.264c61.838222 0 112.241778 48.355556 112.241778 107.747556C1024.000569 976.497778 974.393458 1024 913.636124 1024z" p-id="10852"></path></svg>