<svg xmlns="http://www.w3.org/2000/svg" width="200" height="200" class="icon" viewBox="0 0 1024 1024"><path d="M291.2 355.7q-29.2 0-37.5-15.4-8.1-15.4 11.5-39.7A2214 2214 0 0 0 313 239q27-36 56.5-74.6l57-75.2a2115 2115 0 0 1 49.4-63Q495.5 1.9 513.4.8q18-1 38.6 22.3 20.6 24.3 47.3 58.8t54.8 72a8734 8734 0 0 0 56 73.6q27.8 36 49.4 62.5 24 28.6 18.5 47.6-5.4 19.2-35.8 18-18.5 0-47.9 1.1-29.3 1-48.8 1.1-21.7 1-26.7 13.2t-4.9 33.4v51.9q0 28.6.6 58.2t.5 58.3v53q0 10.5-1.6 22.2a53 53 0 0 1-7.6 21.2 47 47 0 0 1-17.4 15.9q-11.5 6.3-31 6.3-22.8 0-41.8.5t-45.1.6q-36 0-48.3-16.5-12.6-16.4-12.5-52.4v-41.3q0-24.3-.6-51.9t-.5-55v-49.8q0-31.8-6.6-50.3-6.4-18.6-29.3-17.5-16.2 0-39.7-1-23.3-1.2-41.8-1.1zm729.1 541.2a77 77 0 0 1-2.7 48.7 107 107 0 0 1-28.8 40.8A143 143 0 0 1 941 1014a180 180 0 0 1-60.8 10H143.4q-39 0-69-13.7a143 143 0 0 1-47.8-33.9 104 104 0 0 1-23.9-44 69 69 0 0 1 1.6-42.8q6.6-14.9 13-30.7A988 988 0 0 1 46.8 792L88 694.6H212L165.2 828h699.7l-46.7-133.4h118.5l41.2 97.4q7.7 19 15.3 37.1l13.5 32.3q6 14.3 9.8 24.4a82 82 0 0 1 3.8 11.1"/></svg>