<svg t="1756484497509" class="icon" viewBox="0 0 1025 1024" version="1.1" xmlns="http://www.w3.org/2000/svg" p-id="28495" id="mx_n_1756484497511" width="200" height="200"><path d="M624.56 438.572v-57.205C624.56 171.615 573.711 0 516.506 0c-57.205 12.712-108.054 184.327-108.054 394.08v57.204c31.78-25.424 69.917-44.493 108.054-44.493s76.273 6.356 108.054 31.78zM783.463 686.46c-12.712-12.712-31.78-25.424-44.493-31.78-6.356 38.137-19.068 69.917-38.137 101.698-25.424 31.78-57.205 50.849-95.341 57.205 12.712 12.712 25.424 25.424 44.493 38.136 165.259 133.479 330.518 203.396 362.298 158.903 31.78-44.493-69.917-190.683-228.82-324.162z m-463.996 69.918c-25.425-31.78-38.137-69.918-38.137-108.054-12.712 12.712-31.78 19.068-44.493 31.78C71.578 813.583-30.12 959.774 8.017 1004.266s197.04-25.424 362.298-158.903c12.713-12.712 25.425-25.424 44.493-38.136-38.136 0-69.917-19.069-95.341-50.85z m197.04-228.82c-50.85 0-88.986 38.136-88.986 88.985 0 50.85 38.136 88.986 88.985 88.986s88.986-38.137 88.986-88.986c0-44.493-38.137-88.985-88.986-88.985z" p-id="28496"></path></svg>
