<svg xmlns="http://www.w3.org/2000/svg" width="200" height="200" class="icon" viewBox="0 0 1024 1024"><path d="M1024 325.8V46.5A46.5 46.5 0 0 0 977.3 0H698.2a46.5 46.5 0 0 0-46.6 46.5V163A489 489 0 0 0 179 529.8l-48.3-8.5a23.3 23.3 0 0 0-24.8 33.5l50.4 99.5A186 186 0 0 0 0 837.8a186.4 186.4 0 0 0 186.2 186.1A186.4 186.4 0 0 0 370.8 861h164.5v46.6a23.3 23.3 0 0 0 37.2 18.6l81.4-61a186 186 0 0 0 183.8 158.7A186.4 186.4 0 0 0 1024 837.8a186.4 186.4 0 0 0-163-184.6V488.7h46.7a23.3 23.3 0 0 0 18.6-37.2l-59.4-79h110.5a46.6 46.6 0 0 0 46.6-46.7m-837.8 605a93.1 93.1 0 1 1 .1-186.2 93.1 93.1 0 0 1 0 186.3m744.7-93a93.2 93.2 0 0 1-186 0 93.2 93.2 0 0 1 186 0m-183.7-362a23 23 0 0 0 20.8 12.9h46.5v164.5a186 186 0 0 0-160.6 157.2l-81.4-61.1a23.3 23.3 0 0 0-37.2 18.6v46.5H370.8A186.4 186.4 0 0 0 209 653.1l.3-1.5v-.3l70.5-66a23.2 23.2 0 0 0-11.9-39.8l-43.2-7.6a442.6 442.6 0 0 1 426.8-328.5v116.4a46.5 46.5 0 0 0 46.5 46.6h110.6l-59.4 79.1a23 23 0 0 0-2.1 24.3m183.7-196.6H744.7V93.1H931z"/></svg>