<svg xmlns="http://www.w3.org/2000/svg" width="200" height="200" class="icon" viewBox="0 0 1024 1024"><path d="M512.2 898.8c-118.6 76.2-234.1 118.3-325 118.3-54.7 0-100.5-15.3-132.7-47.4C-31 884 3.3 702 125.5 512 3.2 322-31.2 140 54.4 54.3A152 152 0 0 1 115 17.8 227 227 0 0 1 187.2 7a390 390 0 0 1 92.4 12.3 796 796 0 0 1 232.6 106C630.8 49 746.3 6.9 837.2 6.9c54.7 0 100.5 15.3 132.6 47.4C1055.5 140 1021.1 322 899 512c122.1 190 156.6 372 71 457.7-32.2 32.1-78 47.4-132.7 47.4-90.9 0-206.4-42-325-118.3m213.3-173.4a1349 1349 0 0 1-139 121.4C686.7 906 776 934 837.2 934q50.8-.1 73.9-23c31.4-31.5 30.5-107.3-2.5-197.8a760 760 0 0 0-61.6-127 1347 1347 0 0 1-121.5 139.2m-609.8-12.2c-33 90.5-33.9 166.3-2.5 197.7q23.2 23 74 23.1c61.2 0 150.5-28 250.7-87.2a1350 1350 0 0 1-139-121.4 1346 1346 0 0 1-121.6-139.2 761 761 0 0 0-61.6 127m241.9-355.8A1251 1251 0 0 0 225.9 512a1254 1254 0 0 0 131.6 154.6 1236 1236 0 0 0 154.6 131.5 1237 1237 0 0 0 154.7-131.5A1254 1254 0 0 0 798.4 512a1251 1251 0 0 0-131.6-154.6A1236 1236 0 0 0 512 225.9a1235 1235 0 0 0-154.5 131.5zm228.9-180.2a1347 1347 0 0 1 139 121.4A1350 1350 0 0 1 847 437.8a760 760 0 0 0 61.6-127c33-90.5 34-166.3 2.5-197.7Q888 90 837.1 90c-61.1 0-150.4 28-250.6 87.2m-471.6-65.5-1.7 1.4c-31.4 31.4-30.4 107.2 2.5 197.7a761 761 0 0 0 61.6 127A1368 1368 0 0 1 438 177.2a720 720 0 0 0-158.2-71.4A334 334 0 0 0 187.2 90c-32.6 0-57 7.3-72.3 21.7M439.3 512a72.9 72.9 0 1 1 72.9 72.9 73 73 0 0 1-73-72.9"/></svg>