<svg t="1756522055169" class="icon" viewBox="0 0 1024 1024" version="1.1" xmlns="http://www.w3.org/2000/svg" p-id="23920" width="200" height="200"><path d="M651.263985 390.015991H927.999979c26.367999 0.64 47.231999 22.527999 46.655999 48.895999V927.999979a47.743999 47.743999 0 0 1-46.655999 48.895999H419.327991a47.743999 47.743999 0 0 1-46.655999-48.895999V633.983986H95.999998a47.743999 47.743999 0 0 1-46.591999-48.895999V95.999998A47.743999 47.743999 0 0 1 95.999998 47.103999h508.671988c26.367999 0.64 47.231999 22.527999 46.591999 48.895999v294.015993zM95.999998 585.087987h508.671988V95.999998H95.999998v489.087989z m565.503987-31.679999L559.167988 831.999981h45.503998l24.96-71.679998h113.791997l24.96 71.679998h43.839999l-102.911998-278.591993h-47.807999z m-22.143999 170.559996l44.351999-126.207997 47.167999 126.207997H639.359986zM337.471992 152.959997h35.2V223.999995h135.359997v188.159996h-35.264v-22.144H372.671992v130.815997H339.199992V390.015991H241.919995v22.208h-35.2V223.999995H339.199992L337.407992 152.959997zM241.919995 353.663992h96.639997V260.415994H241.919995v93.247998z m130.751997 0h100.095997V260.415994H372.671992v93.247998z" p-id="23921"></path></svg>
