<svg xmlns="http://www.w3.org/2000/svg" width="200" height="200" class="icon" viewBox="0 0 1024 1024"><path d="M651.3 390H928a48 48 0 0 1 46.7 49v489a47.7 47.7 0 0 1-46.7 48.9H419.3a47.7 47.7 0 0 1-46.6-48.9V634H96a47.7 47.7 0 0 1-46.6-49V96A47.7 47.7 0 0 1 96 47.1h508.7A48 48 0 0 1 651.3 96zM96 585h508.7V96H96zm565.5-31.6L559.2 832h45.5l25-71.7h113.7l25 71.7h43.8L709.3 553.4zM639.4 724l44.3-126.2L731 724zm-302-571h35.3v71H508v188.2h-35.2V390H372.7v130.8h-33.5V390h-97.3v22.2h-35.2V224h132.5zM242 353.7h96.7v-93.3h-96.7zm130.8 0h100v-93.3h-100z"/></svg>